{"glyphs":{"0":{"ha":897,"x_min":47,"x_max":893,"o":"m 496 904 q 419 740 447 824 q 361 519 390 657 q 326 211 322 318 q 457 110 365 144 q 594 515 543 243 q 614 840 633 711 q 496 904 575 892 m 399 -1 q 147 144 247 -1 q 84 522 47 290 q 227 892 121 753 q 492 1031 333 1032 q 715 956 619 1031 q 852 766 811 882 q 875 524 893 650 q 716 138 840 278 q 399 -1 592 -1 z "},"1":{"ha":546,"x_min":71,"x_max":572,"o":"m 485 751 l 376 250 l 357 -1 q 209 -6 271 -15 q 83 40 147 3 l 229 704 l 285 806 l 261 818 l 185 725 q 71 775 114 711 l 233 1043 q 416 1052 310 1067 q 572 983 522 1038 l 485 751 z "},"2":{"ha":769,"x_min":8,"x_max":758,"o":"m 422 872 q 285 788 346 872 l 319 703 q 274 667 310 686 q 217 643 238 647 q 68 826 117 728 q 219 999 122 932 q 414 1065 315 1065 q 563 999 485 1065 q 690 839 640 933 q 740 664 740 744 q 556 385 740 538 l 285 161 l 297 150 l 700 213 q 636 -26 758 140 l 272 26 l 129 -3 q 44 81 79 31 q 13 189 8 132 l 426 563 q 557 735 517 649 q 501 835 536 797 q 422 872 467 872 z "},"3":{"ha":804,"x_min":29,"x_max":785,"o":"m 406 854 q 275 790 333 854 l 310 703 q 263 667 300 686 q 207 643 226 647 q 60 826 104 732 q 221 999 121 933 q 414 1065 321 1065 q 592 1017 507 1065 q 731 895 676 968 q 784 763 785 822 q 752 665 783 704 q 650 597 721 626 l 528 544 q 710 443 644 497 q 768 315 775 389 q 566 104 758 192 q 94 -3 374 17 q 43 74 57 24 q 40 160 29 124 q 347 240 233 197 q 531 342 460 283 q 449 407 503 379 q 301 464 394 435 l 315 540 l 561 722 q 500 819 544 783 q 406 854 456 854 z "},"4":{"ha":917,"x_min":1,"x_max":899,"o":"m 622 1049 q 896 933 814 1049 l 813 732 l 738 374 l 883 379 q 892 303 899 346 q 861 236 886 261 l 714 242 l 694 0 q 553 -9 639 -19 q 419 43 467 1 l 468 253 l 429 254 l 67 233 q 10 360 1 281 l 510 1039 q 622 1049 582 1049 m 386 360 l 494 364 l 528 508 l 649 903 l 633 910 l 494 696 l 293 363 l 386 360 z "},"5":{"ha":774,"x_min":19,"x_max":818,"o":"m 715 396 q 578 122 704 250 q 312 -7 451 -7 q 28 60 172 -7 q 44 219 19 156 q 115 300 69 282 l 408 169 q 524 364 494 242 q 473 431 506 406 q 368 478 440 456 l 249 513 q 147 580 175 536 q 129 706 119 624 l 153 867 q 185 983 163 950 q 257 1032 207 1015 l 401 994 l 722 1065 q 721 829 818 943 l 401 874 l 307 654 l 457 638 q 663 560 603 618 q 715 396 722 501 z "},"6":{"ha":860,"x_min":29,"x_max":839,"o":"m 274 292 q 427 586 332 483 q 628 689 522 689 q 786 619 733 689 q 821 426 839 550 q 743 226 808 325 q 582 62 678 126 q 403 -4 486 -3 q 252 26 319 -6 q 131 116 185 57 q 53 274 78 175 q 46 494 29 374 q 276 900 83 756 q 792 1044 468 1044 q 822 963 825 1019 q 783 851 818 906 q 447 824 586 869 q 331 641 369 738 q 276 394 292 544 q 274 292 269 339 m 567 365 q 525 515 590 501 q 410 389 465 482 q 321 183 356 296 q 400 155 351 154 q 501 224 449 156 q 567 365 553 293 z "},"7":{"ha":774,"x_min":83,"x_max":836,"o":"m 703 1035 q 800 967 763 1011 q 799 842 836 921 l 313 3 q 188 -6 254 -19 q 93 49 122 7 l 413 651 l 556 829 l 544 844 l 113 819 q 103 929 83 860 q 182 1056 124 999 l 560 996 l 703 1035 z "},"8":{"ha":860,"x_min":43,"x_max":876,"o":"m 875 828 q 822 710 876 765 q 638 583 767 656 q 765 471 719 529 q 808 328 810 413 q 735 161 806 243 q 563 35 664 79 q 365 -6 461 -10 q 133 68 224 -1 q 49 232 43 138 q 121 372 54 307 q 339 513 188 436 q 184 635 238 579 q 133 766 131 690 q 206 915 136 842 q 383 1027 275 988 q 600 1065 492 1067 q 790 987 708 1063 q 875 828 872 911 m 488 143 q 572 281 549 193 q 438 446 564 354 q 297 269 353 367 q 488 143 328 138 m 540 644 q 656 749 601 692 q 543 913 646 865 q 458 860 499 894 q 393 783 417 825 q 540 644 413 724 z "},"9":{"ha":865,"x_min":51,"x_max":871,"o":"m 68 633 q 224 931 89 797 q 511 1064 358 1064 q 767 925 664 1064 q 842 563 871 786 q 228 -15 781 81 q 158 68 186 10 q 154 171 131 126 q 460 242 339 185 q 613 649 592 396 q 614 763 621 714 q 460 470 556 572 q 263 368 365 368 q 106 441 161 368 q 68 633 51 514 m 364 540 q 477 667 424 576 q 567 869 531 758 q 493 903 536 899 q 390 828 444 897 q 321 682 335 760 q 364 540 303 556 z "},"\u0000":{"ha":0,"x_min":0,"x_max":0,"o":""},"\r":{"ha":608,"x_min":0,"x_max":0,"o":""}," ":{"ha":608,"x_min":0,"x_max":0,"o":""},"!":{"ha":582,"x_min":58,"x_max":614,"o":"m 358 110 q 262 23 315 56 q 164 -10 208 -10 q 91 19 119 -10 q 58 93 63 49 q 122 211 74 158 q 228 272 169 264 q 310 220 269 272 q 358 110 351 168 m 438 797 l 344 389 q 176 392 288 304 l 244 769 l 307 1290 q 479 1308 390 1324 q 614 1239 568 1293 l 438 797 z "},"\"":{"ha":571,"x_min":160,"x_max":671,"o":"m 422 939 l 485 1267 q 671 1267 607 1296 l 653 1142 l 542 918 q 422 939 469 910 m 160 939 l 224 1267 q 413 1267 347 1296 l 392 1142 l 292 918 q 160 939 211 910 z "},"#":{"ha":1193,"x_min":40,"x_max":1244,"o":"m 1192 747 l 996 744 l 917 421 l 1106 432 q 1094 314 1150 401 l 899 311 l 861 -42 q 732 -51 808 -61 q 611 0 656 -42 l 681 307 l 461 304 l 425 -42 q 297 -51 374 -61 q 176 0 221 -42 l 244 300 l 72 297 q 79 411 40 335 l 268 407 l 313 606 l 338 735 l 146 732 q 149 846 111 768 l 358 842 l 431 1210 q 574 1222 490 1231 q 701 1175 657 1214 l 590 865 l 583 838 l 689 835 l 794 840 l 867 1210 q 1008 1222 925 1231 q 1135 1175 1092 1214 l 1022 854 l 1203 865 q 1192 747 1244 835 m 750 619 l 774 742 l 558 738 l 476 404 l 594 401 l 703 408 l 750 619 z "},"$":{"ha":939,"x_min":22,"x_max":911,"o":"m 589 888 l 547 642 q 794 486 728 544 q 892 353 872 414 q 749 122 869 213 q 440 4 629 31 l 408 -181 q 304 -129 339 -200 l 350 13 q 147 103 238 42 q 22 236 57 164 q 127 361 67 322 q 282 371 188 400 q 394 146 308 249 l 403 171 l 450 426 q 339 485 379 463 q 242 550 299 508 q 110 751 126 635 q 290 954 168 875 q 565 1053 411 1033 l 594 1211 q 694 1169 663 1233 l 647 1042 q 911 850 828 999 q 664 735 875 693 q 596 906 646 840 l 589 888 m 494 671 l 540 918 q 422 852 475 893 q 369 784 368 811 q 401 732 369 757 q 494 671 432 707 m 615 304 q 506 399 615 342 l 463 138 q 573 206 531 161 q 615 304 615 251 z "},"%":{"ha":1225,"x_min":86,"x_max":1190,"o":"m 613 550 l 881 1193 q 986 1193 953 1204 q 1040 1143 1019 1182 l 336 -122 q 236 -111 268 -128 q 196 -53 204 -94 l 613 550 m 951 485 q 889 308 911 417 q 867 126 867 199 q 929 75 888 92 q 997 285 969 143 q 1008 454 1015 393 q 951 485 986 481 m 894 -15 q 749 69 807 -15 q 713 289 690 154 q 795 505 733 424 q 950 588 857 586 q 1126 496 1063 586 q 1172 276 1190 406 q 1081 66 1154 147 q 894 -15 1008 -15 m 347 949 q 284 765 307 878 q 264 592 261 653 q 326 538 281 557 q 389 728 365 606 q 404 918 413 850 q 347 949 382 944 m 346 1050 q 523 959 458 1050 q 571 754 588 868 q 477 529 550 611 q 292 447 404 447 q 144 532 203 447 q 108 752 86 617 q 191 969 129 888 q 346 1050 253 1050 z "},"&":{"ha":982,"x_min":104,"x_max":918,"o":"m 417 -12 q 592 -35 547 21 l 593 -271 q 447 -323 507 -319 q 339 -285 388 -326 l 417 -12 m 724 1053 q 547 1074 593 1019 l 546 1311 q 692 1363 632 1360 q 801 1325 753 1367 l 724 1053 m 650 976 q 888 883 772 976 q 880 776 911 813 q 744 711 849 739 l 656 839 q 517 797 575 829 q 401 706 458 764 q 538 600 433 632 q 654 631 614 607 q 697 475 747 603 q 358 324 469 440 q 494 200 379 253 q 772 383 646 261 q 883 347 847 397 q 897 218 918 297 q 699 118 789 151 q 463 64 610 85 q 226 152 314 96 q 104 303 139 208 q 390 538 190 494 q 221 590 292 544 q 136 701 150 636 q 340 899 197 822 q 650 976 482 976 z "},"'":{"ha":299,"x_min":150,"x_max":403,"o":"m 150 939 l 214 1267 q 403 1267 338 1296 l 382 1142 l 282 918 q 150 939 201 910 z "},"(":{"ha":831,"x_min":225,"x_max":886,"o":"m 688 1046 q 500 528 536 838 q 523 194 481 339 q 667 -76 565 49 q 612 -126 649 -110 q 526 -135 575 -143 q 310 166 396 -17 q 243 553 225 349 q 404 979 265 794 q 765 1283 543 1164 q 851 1259 818 1289 q 886 1183 885 1229 l 688 1046 z "},")":{"ha":831,"x_min":14,"x_max":676,"o":"m 135 -137 q 49 -112 82 -142 q 14 -37 17 -82 l 211 101 q 399 619 365 314 q 233 1224 439 978 q 374 1283 274 1297 q 591 983 506 1165 q 657 594 676 800 q 496 169 635 354 q 135 -137 357 -17 z "},"*":{"ha":560,"x_min":161,"x_max":647,"o":"m 469 1117 l 636 1144 q 624 1036 647 1089 l 463 1065 l 589 969 q 504 894 561 914 l 424 1029 l 435 867 q 328 867 386 850 l 374 1028 l 264 894 q 197 971 217 919 l 342 1065 l 175 1036 q 188 1144 161 1093 l 346 1117 l 222 1211 q 306 1286 254 1263 l 386 1154 l 375 1314 q 483 1314 432 1329 l 436 1151 l 546 1288 q 613 1211 593 1260 l 469 1117 z "},"+":{"ha":1032,"x_min":118,"x_max":953,"o":"m 588 531 l 933 544 q 946 492 953 532 q 907 415 939 453 l 567 418 l 501 72 q 447 71 481 60 q 385 113 414 82 l 453 419 l 133 421 q 124 475 118 440 q 156 544 131 510 l 474 529 l 524 879 q 576 883 539 897 q 644 832 613 869 l 588 531 z "},",":{"ha":400,"x_min":-78,"x_max":282,"o":"m 282 79 q 4 -253 239 -122 q -78 -189 -68 -240 l 32 -67 l 36 169 q 154 195 101 206 q 240 152 207 185 q 282 79 274 119 z "},"-":{"ha":781,"x_min":83,"x_max":732,"o":"m 713 542 q 726 492 732 532 q 689 414 719 451 l 99 400 q 88 453 83 418 q 117 522 93 488 l 385 517 l 713 542 z "},".":{"ha":415,"x_min":17,"x_max":300,"o":"m 300 114 q 212 31 263 61 q 117 0 161 0 q 47 26 74 0 q 17 96 19 53 q 74 209 28 158 q 176 267 121 260 q 254 217 215 267 q 300 114 293 168 z "},"/":{"ha":776,"x_min":-3,"x_max":842,"o":"m 414 550 l 682 1193 q 788 1193 754 1204 q 842 1143 821 1182 l 138 -122 q 38 -111 69 -128 q -3 -53 6 -94 l 414 550 z "},":":{"ha":421,"x_min":21,"x_max":386,"o":"m 386 594 q 299 512 349 542 q 205 482 249 482 q 134 508 161 482 q 103 576 107 535 q 161 690 115 639 q 263 749 207 740 q 341 699 301 749 q 386 594 381 649 m 306 114 q 218 31 268 61 q 124 0 168 0 q 53 26 79 0 q 21 96 26 53 q 81 210 35 160 q 182 267 126 260 q 260 217 221 267 q 306 114 300 168 z "},";":{"ha":419,"x_min":-62,"x_max":386,"o":"m 297 79 q 206 -101 278 -15 q 19 -253 135 -187 q -62 -189 -53 -240 l 47 -67 l 51 169 q 169 195 117 206 q 256 152 222 185 q 297 79 289 119 m 386 594 q 299 512 349 542 q 205 482 249 482 q 134 508 161 482 q 103 576 107 535 q 161 690 115 639 q 263 749 207 740 q 341 699 301 749 q 386 594 381 649 z "},"<":{"ha":839,"x_min":86,"x_max":803,"o":"m 546 601 l 289 488 l 719 256 q 651 138 728 179 l 381 300 l 99 447 q 115 544 86 497 l 760 836 q 795 781 788 822 q 782 689 803 740 l 546 601 z "},"=":{"ha":936,"x_min":63,"x_max":910,"o":"m 844 424 q 858 374 864 414 q 821 296 851 333 l 79 282 q 67 335 63 299 q 97 404 72 371 l 471 397 l 844 424 m 890 681 q 904 631 910 671 q 868 553 899 592 l 125 540 q 114 593 108 557 q 144 663 119 629 l 517 654 l 890 681 z "},">":{"ha":839,"x_min":71,"x_max":790,"o":"m 156 718 q 224 836 149 794 l 776 528 q 760 431 790 481 l 425 286 l 115 138 q 79 194 88 153 q 93 285 71 235 l 586 486 l 367 617 l 156 718 z "},"?":{"ha":1053,"x_min":235,"x_max":1063,"o":"m 533 110 q 438 23 490 56 q 340 -10 385 -10 q 266 19 294 -10 q 235 93 238 49 q 297 211 249 158 q 403 272 344 264 q 485 220 444 272 q 533 110 526 168 m 347 797 q 265 897 294 797 q 261 1101 236 997 q 778 1264 556 1264 q 986 1151 910 1264 q 1024 904 1063 1039 q 483 525 949 640 l 449 333 q 378 322 413 319 q 339 347 344 325 l 286 575 q 414 717 338 675 q 703 812 568 736 q 863 967 839 888 q 844 1061 879 1024 q 410 921 621 1050 l 413 815 q 347 797 367 797 z "},"@":{"ha":1625,"x_min":47,"x_max":1610,"o":"m 268 332 q 380 -11 268 128 q 719 -200 492 -150 q 983 -42 897 -133 q 1085 -78 1057 -47 q 1107 -169 1113 -108 q 729 -317 961 -272 q 240 -102 433 -279 q 47 329 47 75 q 131 640 47 490 q 349 897 214 790 q 657 1067 483 1003 q 997 1131 831 1131 q 1303 1056 1164 1131 q 1526 849 1442 981 q 1610 565 1610 718 q 1470 253 1610 411 q 1136 21 1331 96 q 1004 231 957 82 l 990 239 q 768 19 797 50 q 522 103 603 26 q 441 294 442 181 q 501 514 440 408 q 678 694 561 619 q 939 771 796 768 q 1061 629 1003 726 q 1088 764 1058 717 q 1265 771 1206 785 q 1349 700 1325 757 l 1221 469 q 1176 153 1200 372 q 1371 330 1299 239 q 1475 540 1443 421 q 1336 863 1454 756 q 994 1014 1218 969 q 639 892 807 993 q 369 641 471 792 q 268 332 268 490 m 924 629 q 768 493 825 582 q 711 313 711 404 q 769 183 711 221 q 899 287 814 219 q 1006 371 985 354 l 1032 508 q 924 629 989 589 z "},"A":{"ha":1015,"x_min":10,"x_max":1043,"o":"m 839 510 l 994 538 q 988 407 1043 496 l 849 397 l 883 28 q 735 1 838 -8 q 569 54 632 10 l 613 382 l 413 368 l 286 28 q 128 5 221 -7 q 10 60 35 17 l 157 344 l 64 335 q 69 467 10 390 l 221 468 l 331 679 l 424 983 q 592 1029 503 1018 q 844 1007 758 1050 l 814 775 l 839 510 m 592 856 l 450 471 l 624 472 l 611 860 l 592 856 z "},"B":{"ha":976,"x_min":88,"x_max":953,"o":"m 518 1036 q 842 965 731 1036 q 950 792 953 894 q 895 642 949 703 q 729 536 842 582 l 728 525 q 881 465 817 513 q 925 340 928 408 q 776 60 925 196 q 549 7 651 19 q 288 0 447 -6 q 151 53 211 13 q 88 154 92 93 q 244 674 203 467 l 236 899 l 172 896 q 142 944 146 915 q 157 993 138 974 q 330 1024 222 1013 q 518 1036 438 1036 m 335 128 q 594 157 461 115 q 660 335 661 244 q 633 429 660 381 q 407 465 539 478 l 335 128 m 688 746 q 642 873 697 825 q 472 904 586 921 l 424 563 q 608 593 539 560 q 665 664 647 631 q 688 746 683 697 z "},"C":{"ha":947,"x_min":68,"x_max":935,"o":"m 611 925 l 583 918 q 399 715 467 838 q 331 475 332 592 q 376 288 331 358 q 517 171 421 217 q 792 322 679 229 q 865 300 842 328 q 885 224 888 272 q 720 97 824 157 q 499 0 617 38 q 178 156 288 36 q 69 453 68 275 q 193 811 74 614 q 419 974 301 914 q 688 1054 536 1033 q 935 754 906 975 q 831 681 907 703 q 672 694 754 660 q 611 925 664 867 z "},"D":{"ha":1029,"x_min":61,"x_max":1025,"o":"m 147 978 q 547 1039 319 1039 q 899 913 774 1039 q 1024 579 1025 786 q 942 299 1022 429 q 717 72 861 169 q 242 0 485 -6 q 61 156 85 43 q 226 646 182 443 l 231 853 l 171 844 q 127 915 132 876 q 147 978 122 954 m 385 460 l 342 129 q 553 165 469 136 q 763 558 760 325 q 506 883 765 874 q 385 460 438 636 z "},"E":{"ha":914,"x_min":85,"x_max":964,"o":"m 708 892 q 504 886 578 897 l 461 768 l 424 568 q 740 607 650 599 q 736 438 799 543 q 408 456 543 456 l 346 147 q 778 231 597 185 q 831 182 819 218 q 790 36 853 111 l 276 0 q 85 157 94 44 q 182 435 150 333 q 246 685 214 538 l 243 883 q 153 911 211 897 q 163 1013 128 978 q 926 1024 560 1046 q 938 889 964 953 q 831 783 911 825 l 708 892 z "},"F":{"ha":886,"x_min":83,"x_max":964,"o":"m 504 886 l 461 769 l 421 538 q 738 578 497 549 q 764 505 765 557 q 731 407 763 453 q 404 425 588 425 q 378 31 386 271 q 225 6 331 -7 q 83 67 119 18 q 251 696 197 374 l 243 885 q 153 911 197 903 q 163 1013 129 979 q 537 1034 381 1032 q 926 1024 693 1036 q 938 889 964 953 q 831 783 911 825 l 708 892 q 504 886 578 897 z "},"G":{"ha":1004,"x_min":64,"x_max":976,"o":"m 792 308 l 782 315 q 508 0 693 139 q 172 155 279 36 q 65 449 64 274 q 101 634 67 540 q 185 792 136 728 q 401 958 269 888 q 664 1049 533 1028 q 885 939 822 1010 q 936 869 918 903 q 971 785 954 835 q 873 684 947 715 q 719 699 799 653 q 706 786 711 761 q 684 852 701 811 q 636 924 667 893 l 615 924 q 408 720 486 838 q 325 467 329 603 q 366 289 324 358 q 499 156 408 219 q 735 407 654 281 l 729 414 l 547 379 q 501 462 506 408 q 535 549 496 515 q 910 539 736 521 q 925 247 976 443 q 849 14 901 158 q 756 5 803 -6 q 690 50 710 15 q 792 308 767 207 z "},"H":{"ha":1115,"x_min":58,"x_max":1151,"o":"m 240 988 q 421 1039 344 1039 q 542 1017 497 1039 l 418 614 l 414 568 l 515 567 l 768 601 q 793 738 776 646 l 796 988 q 976 1039 900 1039 q 1097 1017 1053 1039 l 979 632 l 1093 647 q 1092 508 1151 611 l 964 499 q 944 248 957 419 q 926 31 931 76 q 763 5 868 -10 q 633 68 657 19 q 744 483 697 263 l 411 460 l 404 460 q 371 31 382 167 q 207 5 313 -10 q 78 68 101 19 q 179 438 136 242 l 86 429 q 60 496 58 463 q 94 572 61 529 l 207 571 q 221 648 210 590 q 238 738 232 706 l 240 988 z "},"I":{"ha":440,"x_min":21,"x_max":483,"o":"m 183 988 q 364 1039 288 1039 q 483 1017 440 1039 l 360 614 q 336 325 351 528 q 314 31 321 122 q 150 5 256 -10 q 21 68 44 19 q 181 738 111 344 l 183 988 z "},"J":{"ha":944,"x_min":26,"x_max":1072,"o":"m 499 876 l 219 842 q 189 1013 149 929 q 599 1033 446 1031 q 1018 1021 753 1036 q 990 847 1072 960 l 731 890 l 658 593 q 635 124 640 294 q 269 8 521 -28 q 26 268 94 94 q 147 358 81 336 q 275 346 213 379 q 305 231 288 274 q 358 140 322 189 l 386 151 q 406 236 389 165 q 426 323 422 307 q 442 396 429 339 q 458 479 454 453 q 472 554 463 506 q 497 736 485 622 l 499 876 z "},"K":{"ha":976,"x_min":36,"x_max":982,"o":"m 397 1050 q 503 1029 457 1050 l 376 614 l 374 582 l 551 697 l 782 1050 q 933 992 885 1038 q 976 869 982 946 q 490 532 800 721 q 635 328 542 404 q 879 224 728 251 q 873 95 913 165 q 732 0 833 25 q 508 201 592 74 q 406 489 425 329 l 364 465 q 329 31 363 451 q 165 5 271 -10 q 36 68 60 19 q 196 738 129 349 l 201 999 q 397 1050 303 1050 z "},"L":{"ha":800,"x_min":39,"x_max":746,"o":"m 208 988 q 369 1038 290 1029 q 508 1017 449 1046 l 374 578 l 310 150 q 686 238 483 179 q 735 186 724 222 q 736 115 746 150 q 707 56 726 79 l 226 0 q 39 154 67 51 q 204 733 142 428 l 208 988 z "},"M":{"ha":1214,"x_min":17,"x_max":1256,"o":"m 1139 1039 q 1256 997 1224 1039 l 1138 608 q 1093 31 1103 179 q 930 5 1035 -10 q 800 68 825 19 q 943 668 901 385 l 700 281 q 483 317 572 228 q 379 690 413 497 l 357 614 q 334 337 351 535 q 308 31 317 139 q 146 5 251 -10 q 17 68 40 19 q 176 735 115 363 l 189 989 q 349 1038 268 1038 q 494 994 431 1038 q 572 521 501 792 l 636 408 l 840 692 l 990 1003 q 1139 1039 1083 1039 z "},"N":{"ha":1058,"x_min":14,"x_max":1111,"o":"m 810 986 q 988 1038 911 1038 q 1111 1017 1065 1038 l 986 615 q 935 31 939 83 q 779 3 861 -7 q 642 54 697 13 q 413 813 475 419 l 356 614 q 331 322 349 518 q 306 31 313 125 q 141 5 246 -10 q 14 68 36 19 q 174 731 117 386 l 182 988 q 389 1039 286 1039 q 490 1011 438 1039 q 644 372 586 579 l 704 253 q 806 728 779 581 l 810 986 z "},"O":{"ha":974,"x_min":60,"x_max":971,"o":"m 732 517 q 687 743 718 647 q 588 926 656 839 q 391 715 469 849 q 313 461 313 582 q 447 128 315 260 q 626 300 553 199 q 732 517 700 401 m 60 440 q 135 731 60 589 q 336 963 210 874 q 600 1053 463 1053 q 760 983 675 1053 q 907 798 846 914 q 969 560 968 682 q 890 306 971 439 q 685 87 810 174 q 446 0 561 0 q 269 67 360 0 q 119 238 178 135 q 60 440 60 342 z "},"P":{"ha":940,"x_min":88,"x_max":965,"o":"m 156 1001 q 497 1050 299 1050 q 831 951 696 1050 q 964 735 965 853 q 900 541 963 618 q 713 400 838 464 q 404 332 546 349 q 381 32 389 128 q 225 3 331 -7 q 88 64 119 14 q 243 719 185 378 l 239 892 l 174 899 q 142 951 147 919 q 156 1001 138 983 m 493 911 l 425 617 q 413 440 424 586 q 635 519 567 475 q 719 719 719 600 q 657 848 718 793 q 493 911 596 903 z "},"Q":{"ha":983,"x_min":60,"x_max":1051,"o":"m 446 0 q 269 67 360 0 q 119 238 178 135 q 60 440 60 342 q 135 731 60 589 q 336 963 210 874 q 600 1053 463 1053 q 760 983 675 1053 q 907 797 846 914 q 858 258 1051 524 q 594 35 744 103 l 631 -29 l 835 -107 q 748 -242 826 -204 q 588 -249 669 -281 l 460 0 l 446 0 m 588 926 q 391 715 469 849 q 313 461 313 582 q 447 128 315 260 q 626 300 553 199 q 732 517 700 401 q 687 743 718 647 q 588 926 656 839 z "},"R":{"ha":975,"x_min":85,"x_max":951,"o":"m 154 1003 q 498 1051 300 1051 q 824 963 696 1051 q 949 760 951 875 q 886 574 947 644 q 681 431 825 504 q 544 417 619 421 q 667 288 593 331 q 882 224 742 246 q 875 94 918 158 q 739 0 832 31 q 531 167 608 60 q 435 413 454 274 l 410 411 q 378 32 396 222 q 222 3 328 -7 q 85 64 117 14 q 242 721 182 372 l 239 892 l 172 899 q 141 952 146 921 q 154 1003 136 983 m 704 740 q 651 859 704 811 q 494 913 597 907 l 425 619 q 420 551 422 579 q 417 511 418 524 q 615 554 519 521 q 704 740 704 639 z "},"S":{"ha":939,"x_min":22,"x_max":911,"o":"m 615 304 q 567 363 615 332 q 449 428 519 393 q 306 504 378 463 q 178 610 235 546 q 110 751 121 675 q 296 958 169 878 q 581 1054 422 1038 q 779 986 693 1040 q 911 850 865 932 q 664 735 875 693 q 575 931 644 857 q 435 863 503 910 q 369 781 368 817 q 417 720 369 754 q 534 649 464 686 q 677 569 604 611 q 811 469 750 526 q 892 353 872 411 q 738 114 869 207 q 404 0 607 21 q 169 90 276 24 q 22 236 61 156 q 127 361 67 322 q 282 371 188 400 q 328 240 297 296 q 415 124 358 185 q 558 192 500 142 q 615 304 615 242 z "},"T":{"ha":931,"x_min":106,"x_max":1044,"o":"m 429 871 l 175 840 q 144 1011 106 925 q 554 1033 388 1031 q 993 1022 721 1036 q 974 849 1044 958 l 669 881 l 601 617 q 565 31 571 139 q 401 5 507 -10 q 271 67 294 19 q 428 744 372 388 l 429 871 z "},"U":{"ha":953,"x_min":76,"x_max":996,"o":"m 456 0 q 196 85 297 0 q 76 290 94 171 q 176 999 146 664 q 374 1050 278 1050 q 478 1029 433 1050 q 336 426 354 629 q 363 222 317 301 q 438 166 385 183 q 572 158 492 149 q 675 379 639 260 q 738 679 711 499 l 694 999 q 892 1050 796 1050 q 996 1029 953 1050 q 908 476 950 706 q 756 124 864 247 q 456 0 647 0 z "},"V":{"ha":969,"x_min":132,"x_max":1047,"o":"m 785 679 l 725 982 q 887 1040 793 1043 q 1033 989 981 1038 q 951 668 1047 824 q 815 447 907 594 q 668 207 722 300 l 588 13 q 425 8 510 -11 q 293 82 340 26 l 132 949 q 238 1021 174 996 q 358 1044 301 1046 q 444 1018 415 1042 l 447 463 l 500 146 l 785 679 z "},"W":{"ha":1414,"x_min":132,"x_max":1493,"o":"m 1238 681 l 1174 985 q 1276 1038 1215 1026 q 1392 1035 1338 1049 q 1482 992 1446 1021 q 1406 672 1493 833 l 1151 210 l 1089 13 q 928 7 1010 -10 q 806 75 847 24 l 769 408 l 661 196 l 601 13 q 439 8 522 -11 q 306 81 356 26 l 132 950 q 240 1025 176 1000 q 357 1047 303 1050 q 442 1021 411 1044 l 454 464 l 510 147 l 732 575 l 660 890 q 786 967 713 949 q 943 951 860 986 l 933 506 l 999 144 l 1238 681 z "},"X":{"ha":1038,"x_min":33,"x_max":1074,"o":"m 582 618 l 901 1047 q 1033 1009 992 1056 q 1071 886 1074 963 q 618 524 888 761 q 957 239 789 317 q 933 92 983 163 q 764 0 883 22 q 624 190 688 75 q 531 418 561 306 l 236 0 q 78 58 122 8 q 44 175 33 107 q 497 517 289 326 q 335 695 433 617 q 132 811 236 774 q 178 970 122 903 q 339 1046 233 1038 q 488 865 424 982 q 582 618 551 747 z "},"Y":{"ha":932,"x_min":131,"x_max":1003,"o":"m 131 921 q 258 1038 182 1008 q 408 1036 335 1067 l 424 746 l 524 465 l 533 465 l 574 544 l 751 761 l 688 1007 q 878 1049 799 1056 q 1003 990 957 1042 q 914 779 994 886 q 777 622 875 729 q 639 469 679 515 q 597 31 614 325 q 442 2 544 -10 q 303 61 340 14 q 400 415 357 210 q 131 921 278 682 z "},"Z":{"ha":993,"x_min":25,"x_max":1025,"o":"m 25 110 q 222 364 25 196 q 403 514 310 438 q 714 840 636 707 l 704 853 q 424 885 550 860 q 344 726 367 818 q 104 815 151 704 q 326 1050 172 994 q 757 954 422 1026 l 793 1051 q 958 1026 901 1051 q 1025 924 1014 1001 q 701 542 958 778 q 324 211 532 386 l 328 200 q 681 185 657 185 q 722 317 708 243 q 968 231 929 360 q 901 109 946 160 q 763 0 857 58 q 274 94 632 36 l 265 90 l 278 43 q 69 4 203 -11 q 25 110 25 42 z "},"[":{"ha":872,"x_min":131,"x_max":968,"o":"m 775 1172 l 658 1167 l 589 899 l 499 413 l 426 -22 l 711 15 q 690 -86 738 -25 l 204 -146 q 131 -50 135 -104 l 299 586 l 385 1263 l 957 1271 q 929 1163 968 1214 l 775 1172 z "},"\\":{"ha":721,"x_min":92,"x_max":640,"o":"m 92 1181 q 151 1226 117 1219 q 250 1207 186 1233 l 374 514 l 640 -114 q 588 -163 621 -154 q 490 -154 556 -172 l 92 1181 z "},"]":{"ha":890,"x_min":-3,"x_max":825,"o":"m 624 325 l 599 -85 l 14 -151 q -2 -99 -3 -125 q 17 -29 -1 -72 l 313 -24 l 419 586 l 515 1171 l 249 1163 q 222 1224 225 1206 q 232 1268 218 1243 l 772 1254 q 825 1138 819 1207 l 624 325 z "},"^":{"ha":818,"x_min":76,"x_max":822,"o":"m 76 588 l 429 1150 q 658 1121 567 1174 l 822 579 q 736 539 786 547 q 590 557 660 526 l 479 1036 l 179 533 q 110 545 139 531 q 76 588 81 560 z "},"_":{"ha":936,"x_min":-24,"x_max":778,"o":"m 758 -62 q 772 -114 778 -74 q 736 -190 767 -154 l -7 -204 q -18 -151 -24 -186 q 13 -82 -12 -117 l 385 -89 l 758 -62 z "},"`":{"ha":414,"x_min":156,"x_max":483,"o":"m 381 1160 l 483 883 q 434 850 468 860 q 368 850 400 840 l 276 979 l 156 1085 q 221 1151 176 1128 q 381 1160 297 1192 z "},"a":{"ha":969,"x_min":46,"x_max":965,"o":"m 965 700 l 838 469 q 840 31 828 279 q 701 3 797 -8 q 543 68 604 14 l 603 203 l 582 224 q 375 19 415 60 q 129 103 210 26 q 47 301 49 181 q 189 617 46 469 q 546 771 332 765 q 678 611 613 725 q 703 764 674 713 q 881 769 819 783 q 965 700 943 756 m 531 629 q 375 493 432 582 q 318 313 318 404 q 376 183 318 221 q 624 381 496 276 l 644 496 q 531 629 601 585 z "},"b":{"ha":919,"x_min":63,"x_max":904,"o":"m 324 569 l 342 551 q 533 771 446 678 q 801 677 721 751 q 904 447 881 603 q 675 138 846 243 q 313 -1 519 42 q 63 172 106 32 q 210 749 149 435 l 203 1118 q 485 1149 368 1196 l 399 789 l 383 671 l 324 569 m 315 131 q 547 258 457 169 q 657 457 638 346 q 622 550 647 517 q 544 606 596 583 q 358 436 461 543 q 315 131 346 290 z "},"c":{"ha":819,"x_min":50,"x_max":783,"o":"m 535 783 q 705 709 653 763 q 783 554 757 656 q 697 470 763 494 q 532 461 631 446 q 483 653 540 560 l 444 643 q 316 373 321 522 q 417 143 311 224 q 679 269 575 185 q 750 164 775 269 q 591 60 693 107 q 381 0 489 14 q 185 67 261 17 q 79 182 108 118 q 51 324 50 246 q 156 571 51 450 q 535 783 329 742 z "},"d":{"ha":922,"x_min":43,"x_max":993,"o":"m 719 749 l 710 1118 q 993 1149 885 1199 l 900 814 q 848 380 881 633 q 804 31 815 126 q 654 2 753 -7 q 511 67 556 11 l 590 200 l 574 217 q 372 19 382 29 q 128 101 214 21 q 47 301 43 182 q 87 467 49 385 q 190 617 125 550 q 351 727 254 685 q 556 771 447 769 q 686 606 625 732 q 719 749 706 676 m 624 381 l 654 496 q 532 631 594 593 q 378 494 435 585 q 318 313 321 404 q 376 183 315 222 q 624 381 571 338 z "},"e":{"ha":828,"x_min":42,"x_max":803,"o":"m 553 786 q 752 672 701 768 q 758 440 803 575 q 311 285 536 331 q 400 144 325 199 q 678 256 556 169 q 754 153 772 261 q 583 54 700 97 q 363 0 465 11 q 121 117 200 26 q 46 329 42 207 q 147 574 54 463 q 553 786 350 743 m 476 651 l 450 640 q 346 515 383 586 q 306 375 308 443 q 539 469 410 407 q 476 651 564 594 z "},"f":{"ha":736,"x_min":13,"x_max":844,"o":"m 275 663 l 233 990 q 396 1142 297 1081 q 594 1213 494 1203 q 762 1136 708 1189 q 844 988 815 1083 q 758 903 825 929 q 606 893 690 878 q 586 1001 601 963 q 532 1076 571 1040 q 456 1031 476 1063 q 450 681 464 899 l 696 726 q 694 588 747 681 l 442 575 q 381 31 421 299 q 215 5 317 -8 q 88 65 114 18 q 246 543 183 313 l 68 511 q 68 654 13 574 l 272 650 l 275 663 z "},"g":{"ha":936,"x_min":44,"x_max":961,"o":"m 610 214 l 590 232 q 376 19 426 72 q 127 104 210 26 q 47 301 44 182 q 85 465 49 382 q 185 615 122 547 q 342 726 247 683 q 542 771 436 769 q 671 621 608 733 q 697 761 674 719 q 874 769 815 783 q 961 700 933 756 l 828 454 q 733 -250 783 218 q 576 -380 675 -339 q 332 -428 476 -421 q 51 -153 96 -315 q 169 -51 100 -75 q 301 -64 239 -26 q 333 -170 311 -125 q 401 -268 354 -215 q 458 -258 431 -269 q 496 -226 485 -246 q 553 106 525 -108 l 610 214 m 644 497 l 643 496 q 529 631 596 590 q 376 499 431 583 q 319 319 321 415 q 376 183 318 222 q 624 381 496 276 l 644 497 z "},"h":{"ha":939,"x_min":32,"x_max":892,"o":"m 892 576 l 828 410 q 839 31 814 239 q 700 2 793 -8 q 544 67 607 13 q 639 521 560 217 q 586 594 629 572 q 368 426 494 550 q 325 31 358 264 q 159 5 260 -8 q 32 65 58 18 q 207 749 153 376 l 201 1104 q 492 1149 376 1200 l 401 815 l 400 639 l 344 572 l 357 553 q 624 771 492 690 q 803 707 738 764 q 892 576 868 650 z "},"i":{"ha":444,"x_min":31,"x_max":443,"o":"m 158 468 l 149 726 q 421 739 325 807 l 353 507 q 324 31 340 396 q 167 6 263 -8 q 31 68 72 19 q 158 468 117 278 m 442 978 q 443 952 442 978 q 405 886 443 925 q 312 847 367 847 q 217 886 257 847 q 176 978 176 925 q 215 1070 175 1032 q 311 1108 256 1108 q 404 1070 367 1108 q 442 978 442 1032 z "},"j":{"ha":521,"x_min":-260,"x_max":553,"o":"m -15 -54 q 72 -268 -1 -176 l 108 -253 q 246 761 176 372 q 424 773 360 785 q 529 708 489 761 l 399 463 q 332 -301 358 146 q 200 -400 299 -369 q -35 -412 101 -431 q -260 -160 -211 -307 q -145 -49 -214 -76 q -15 -54 -76 -21 m 553 981 q 553 953 553 981 q 513 887 553 926 q 419 847 474 847 q 324 886 364 847 q 283 980 283 925 q 322 1074 282 1035 q 418 1114 363 1114 q 513 1074 474 1114 q 553 981 553 1035 z "},"k":{"ha":872,"x_min":42,"x_max":867,"o":"m 343 492 l 356 472 q 538 649 453 578 q 736 782 624 719 q 837 706 807 774 q 814 554 867 638 q 421 414 586 510 q 559 293 476 339 q 783 228 642 247 q 792 108 828 181 q 669 0 757 36 q 361 311 456 104 q 335 33 343 103 q 169 5 271 -8 q 42 71 68 18 q 229 765 147 331 l 171 1082 q 429 1150 286 1193 q 436 935 444 1053 q 392 560 428 818 l 343 492 z "},"l":{"ha":467,"x_min":38,"x_max":493,"o":"m 210 749 l 203 1104 q 493 1147 364 1201 l 400 818 q 376 488 399 792 q 340 33 354 185 q 172 6 282 -8 q 38 68 63 19 q 210 749 150 372 z "},"m":{"ha":1372,"x_min":35,"x_max":1318,"o":"m 796 31 q 624 5 701 -10 q 526 60 547 19 q 638 531 575 364 q 560 596 606 582 q 367 426 468 542 q 329 31 360 272 q 163 5 264 -8 q 35 65 63 18 q 168 486 118 289 l 122 700 q 375 760 235 803 q 385 642 392 715 l 338 578 l 354 554 q 610 771 465 683 q 735 743 682 769 q 842 663 788 717 l 772 565 l 786 556 q 1049 771 931 703 q 1226 705 1154 764 q 1318 575 1299 646 l 1257 386 q 1272 31 1247 236 q 1135 3 1226 -8 q 979 68 1043 14 q 1068 522 1003 292 q 1047 567 1058 551 q 1014 594 1036 583 q 813 442 924 549 q 796 31 775 272 z "},"n":{"ha":942,"x_min":35,"x_max":886,"o":"m 886 576 l 825 386 q 842 31 817 208 q 703 2 796 -8 q 547 67 610 13 q 635 521 565 264 q 581 594 622 572 q 365 426 488 546 q 329 31 358 261 q 163 5 264 -8 q 35 65 63 18 q 168 486 118 289 l 122 700 q 375 769 231 792 q 385 642 392 714 l 338 578 l 351 557 q 615 771 474 686 q 793 706 724 763 q 886 576 863 649 z "},"o":{"ha":839,"x_min":38,"x_max":813,"o":"m 38 339 q 74 478 38 401 q 170 624 110 554 q 320 740 231 693 q 509 786 410 786 q 709 661 608 786 q 813 425 810 536 q 745 230 813 329 q 569 65 678 131 q 350 0 460 0 q 139 106 240 0 q 38 339 38 213 m 476 669 q 340 513 393 604 q 278 331 286 422 q 371 121 281 207 q 585 390 542 224 q 476 669 574 554 z "},"p":{"ha":924,"x_min":-26,"x_max":910,"o":"m 343 556 q 526 771 457 707 q 796 671 710 757 q 910 421 882 585 q 752 170 865 271 q 469 0 639 69 q 325 44 386 14 q 269 -362 293 -247 q 106 -390 201 -401 q -26 -329 11 -378 q 92 60 38 -171 q 165 458 147 292 l 113 700 q 363 768 215 790 q 375 642 385 715 l 328 578 l 343 556 m 463 135 q 599 267 551 200 q 664 433 646 333 q 625 538 660 492 q 539 606 590 583 q 356 422 461 549 q 338 178 347 283 q 463 135 397 146 z "},"q":{"ha":950,"x_min":46,"x_max":954,"o":"m 699 -175 l 713 -186 q 809 -107 746 -162 q 882 -43 872 -51 q 933 -103 933 -40 q 649 -407 865 -199 q 499 -348 547 -387 q 451 -261 451 -308 q 608 229 540 -12 q 404 19 483 104 q 138 97 229 21 q 47 301 47 174 q 107 514 46 408 q 283 693 168 619 q 535 771 397 767 q 669 619 597 735 q 692 764 664 713 q 867 771 806 785 q 954 700 929 757 l 836 469 q 699 -175 751 38 m 525 631 q 374 494 429 583 q 319 312 319 406 q 400 183 319 218 q 633 376 467 236 l 650 488 q 525 631 589 592 z "},"r":{"ha":763,"x_min":36,"x_max":778,"o":"m 339 578 l 356 554 q 574 771 419 619 q 718 686 663 753 q 778 514 774 619 q 661 459 728 467 q 538 482 594 451 q 513 578 539 525 q 449 518 497 563 q 368 443 400 474 q 331 31 360 239 q 165 5 265 -8 q 36 65 65 18 q 171 486 113 265 l 125 700 q 248 763 179 747 q 376 769 317 779 q 386 642 393 721 l 339 578 z "},"s":{"ha":775,"x_min":28,"x_max":715,"o":"m 476 221 q 301 339 476 254 q 170 426 235 372 q 86 539 106 481 q 238 725 135 656 q 475 801 342 794 q 624 744 568 785 q 715 635 681 704 q 660 554 711 579 q 515 543 610 529 q 442 697 496 643 q 346 647 389 681 q 303 588 303 613 q 360 529 303 564 q 488 462 417 494 q 626 375 558 429 q 710 264 693 321 q 571 75 678 144 q 313 0 464 6 q 138 58 213 14 q 28 168 63 103 q 235 283 96 329 q 263 181 244 219 q 321 96 281 143 q 431 148 386 111 q 476 221 476 185 z "},"t":{"ha":747,"x_min":69,"x_max":776,"o":"m 100 619 q 69 686 69 653 q 99 763 69 719 l 294 757 l 275 997 q 444 1053 369 1049 q 558 1015 518 1057 l 486 790 l 724 835 q 724 693 776 789 l 463 682 q 435 394 454 575 q 410 151 415 213 q 619 275 518 194 q 686 251 669 274 q 697 174 703 229 q 360 0 542 38 q 136 140 181 18 q 283 651 224 392 l 100 619 z "},"u":{"ha":935,"x_min":33,"x_max":913,"o":"m 131 415 l 114 758 q 273 769 188 785 q 400 699 358 754 q 278 247 394 549 q 376 178 292 203 q 557 378 506 301 q 644 761 601 633 q 825 765 763 779 q 913 700 888 751 l 792 469 q 807 31 786 278 q 667 2 763 -8 q 508 67 572 13 l 571 210 l 554 225 q 360 0 500 153 q 33 197 74 33 l 131 415 z "},"v":{"ha":822,"x_min":51,"x_max":843,"o":"m 575 719 q 719 786 642 778 q 843 750 797 794 q 497 6 797 335 q 308 19 400 -11 q 174 117 217 49 q 175 488 214 361 l 51 633 q 310 771 124 785 q 413 168 440 582 l 429 160 q 639 550 599 350 l 575 719 z "},"w":{"ha":1260,"x_min":51,"x_max":1281,"o":"m 869 167 l 883 154 q 1082 550 1047 344 l 1014 719 q 1159 789 1082 779 q 1281 757 1236 799 q 956 4 1251 340 q 776 20 863 -12 q 656 125 690 53 q 700 350 688 235 l 686 357 q 475 6 613 188 q 292 20 378 -12 q 168 117 206 53 q 192 313 189 240 q 176 488 194 385 l 51 633 q 311 771 126 782 q 407 167 440 563 l 424 161 q 629 521 547 301 l 536 647 q 634 739 578 713 q 781 756 690 765 q 869 167 900 561 z "},"x":{"ha":850,"x_min":10,"x_max":844,"o":"m 458 465 l 671 771 q 802 732 760 778 q 842 610 844 686 q 490 379 685 536 q 743 246 582 281 q 763 153 769 201 q 710 60 757 104 q 593 0 664 17 q 407 283 438 113 l 196 0 q 51 62 92 8 q 33 182 10 115 q 376 378 224 260 q 107 538 288 494 q 140 694 89 631 q 278 771 190 758 q 458 465 432 672 z "},"y":{"ha":872,"x_min":10,"x_max":901,"o":"m 58 243 l 129 429 q 111 758 128 572 q 264 769 174 785 q 406 697 354 754 q 300 288 386 529 q 392 213 319 239 q 563 379 496 293 q 632 761 608 672 q 812 768 751 782 q 901 700 872 754 l 761 453 q 668 -282 685 -4 q 271 -419 558 -426 q 98 -303 167 -374 q 10 -151 29 -232 q 131 -52 63 -76 q 258 -62 199 -28 q 358 -268 285 -189 q 442 -240 418 -272 q 496 69 486 21 l 561 192 l 542 208 q 382 44 469 125 q 160 114 244 61 q 58 243 75 167 z "},"z":{"ha":888,"x_min":40,"x_max":889,"o":"m 308 179 l 576 153 q 619 268 592 183 q 765 267 711 292 q 829 179 818 243 q 614 0 774 51 q 264 94 522 29 l 254 90 l 269 39 q 81 0 222 -10 q 43 110 40 47 q 112 234 46 174 q 261 339 178 294 q 593 568 507 474 l 590 582 q 381 618 535 588 q 317 482 338 569 q 169 492 219 471 q 99 569 118 513 q 307 772 165 736 q 644 682 593 692 l 679 771 q 824 756 772 778 q 889 674 875 735 q 811 533 874 606 q 658 397 749 461 q 308 194 497 285 l 308 179 z "},"{":{"ha":911,"x_min":121,"x_max":910,"o":"m 633 1288 q 910 1183 774 1288 q 810 1068 910 1103 l 682 1163 l 642 1139 q 675 836 706 972 q 576 660 651 725 q 397 597 501 596 l 390 568 q 566 294 571 458 q 389 -15 561 131 l 417 -54 l 600 -19 q 635 -60 621 -32 q 651 -117 650 -89 q 368 -185 519 -176 q 216 -111 286 -167 q 121 19 146 -56 q 282 308 275 132 q 247 465 285 390 q 147 565 208 539 l 189 700 q 341 771 276 700 q 421 949 406 842 q 394 1186 436 1057 q 503 1261 439 1235 q 633 1288 568 1288 z "},"|":{"ha":471,"x_min":-21,"x_max":563,"o":"m 274 1340 q 446 1393 375 1393 q 563 1372 517 1393 l 393 660 q 358 431 388 619 q 258 -256 276 -79 q 101 -279 200 -293 q -21 -217 3 -265 q 103 274 35 -54 q 197 814 171 603 l 274 1340 z "},"}":{"ha":913,"x_min":63,"x_max":853,"o":"m 692 803 q 727 649 689 724 q 826 547 765 574 l 785 413 q 633 342 697 413 q 553 163 568 271 q 579 -75 539 54 q 339 -178 493 -171 q 63 -72 194 -164 q 163 44 63 10 l 292 -51 l 332 -26 q 300 276 267 139 q 398 453 324 388 q 575 517 472 518 l 585 546 q 408 822 401 653 q 586 1126 413 983 l 558 1167 l 374 1131 q 339 1172 353 1143 q 322 1229 325 1200 q 599 1297 451 1292 q 752 1228 679 1288 q 853 1093 825 1169 q 692 803 699 981 z "},"~":{"ha":904,"x_min":33,"x_max":900,"o":"m 265 624 q 487 586 399 618 q 667 494 575 554 l 676 494 l 772 606 q 863 596 825 613 q 897 546 900 579 q 785 431 840 472 q 635 358 731 389 q 278 483 426 372 l 267 481 l 175 371 q 80 385 126 363 q 38 443 33 407 q 265 624 131 553 z "}," ":{"ha":608,"x_min":0,"x_max":0,"o":""},"¡":{"ha":642,"x_min":25,"x_max":581,"o":"m 281 701 q 377 788 324 756 q 475 821 431 821 q 548 792 519 821 q 581 718 576 763 q 517 600 565 653 q 411 539 469 547 q 328 591 369 539 q 281 701 288 643 m 201 14 l 294 422 q 463 419 351 507 l 394 42 l 332 -479 q 160 -497 249 -512 q 25 -428 71 -482 l 201 14 z "},"¢":{"ha":828,"x_min":47,"x_max":804,"o":"m 617 892 l 572 775 q 718 703 665 753 q 804 568 771 653 q 719 476 782 503 q 568 461 656 449 q 514 619 557 557 l 438 149 q 688 269 582 185 q 758 164 783 269 q 613 67 706 111 q 414 4 519 22 l 383 -181 q 278 -129 313 -200 l 325 10 q 113 128 179 44 q 50 324 47 213 q 154 571 51 451 q 488 772 306 721 l 517 935 q 617 892 588 957 m 464 649 l 443 643 q 315 368 318 519 q 378 176 311 249 l 464 649 z "},"£":{"ha":958,"x_min":42,"x_max":943,"o":"m 347 679 l 289 896 q 429 1000 333 950 q 635 1064 525 1050 q 827 978 772 1031 q 907 838 882 926 q 818 755 888 779 q 647 746 749 731 q 642 850 653 810 q 601 933 632 890 q 514 889 553 925 q 500 544 533 738 l 775 572 q 756 464 810 547 l 482 457 q 392 182 450 315 q 650 157 531 153 l 774 258 q 806 0 943 201 q 537 20 644 6 q 325 72 429 35 q 178 0 281 13 q 71 84 100 33 q 59 185 42 135 q 129 275 76 235 l 213 238 q 294 453 264 351 l 99 447 q 113 550 72 481 l 318 533 q 347 679 335 604 z "},"¤":{"ha":1126,"x_min":44,"x_max":1153,"o":"m 532 144 q 357 215 446 144 l 226 61 q 119 92 160 65 q 93 226 44 143 l 269 317 q 221 476 221 394 q 317 708 221 585 l 132 806 q 161 939 86 890 q 268 969 201 967 l 406 803 q 688 913 536 913 q 844 839 764 913 l 969 985 q 1078 953 1038 981 q 1104 819 1153 903 l 933 733 q 996 560 993 639 q 892 324 996 442 l 1051 242 q 1026 108 1100 157 q 918 76 986 81 l 786 232 q 532 144 660 144 m 553 264 q 767 525 724 364 q 658 797 756 685 q 522 645 576 735 q 460 467 468 556 q 553 264 463 346 z "},"¥":{"ha":982,"x_min":78,"x_max":1007,"o":"m 936 453 l 640 447 q 625 328 629 369 l 915 372 q 947 315 944 358 q 917 229 950 272 l 615 218 q 601 31 608 151 q 447 2 550 -10 q 308 61 344 14 q 353 200 331 119 l 104 160 q 80 227 78 182 q 110 304 82 272 l 382 303 q 411 408 399 368 l 401 428 l 117 397 q 92 466 90 421 q 122 543 94 511 l 351 529 q 135 921 235 763 q 263 1038 186 1008 q 414 1036 340 1067 l 429 746 l 526 463 l 536 463 l 575 540 l 756 761 l 692 1007 q 1007 990 908 1100 q 918 779 1000 886 q 803 643 876 722 q 711 544 729 564 l 935 590 q 970 537 969 575 q 936 453 971 499 z "},"¦":{"ha":474,"x_min":-24,"x_max":568,"o":"m 111 440 q 260 464 186 464 q 383 426 333 464 l 289 89 q 275 -56 288 64 q 256 -256 263 -175 q 102 -280 200 -293 q -24 -224 4 -267 q 78 156 54 35 l 111 440 m 282 1369 q 444 1404 360 1404 q 568 1357 528 1404 l 461 1004 q 447 874 460 988 q 425 676 433 761 q 278 645 371 639 q 147 693 185 651 q 249 1071 226 961 l 282 1369 z "},"§":{"ha":931,"x_min":-22,"x_max":901,"o":"m 671 347 q 612 410 642 388 q 551 451 582 433 q 504 478 519 469 q 403 529 489 486 q 328 474 361 506 q 294 418 294 442 q 359 344 306 385 q 459 280 413 304 q 592 214 506 256 q 671 347 675 278 m 565 929 q 450 872 504 911 q 396 800 396 833 q 463 726 396 767 q 613 649 529 685 q 784 551 697 613 q 901 424 871 490 q 703 151 874 244 q 826 31 800 86 q 674 -206 799 -118 q 358 -314 550 -293 q 138 -247 239 -297 q -22 -140 36 -197 q 243 42 83 96 q 288 -81 261 -32 q 372 -189 314 -131 q 499 -125 449 -171 q 549 -21 549 -79 q 502 35 549 6 q 388 94 456 64 q 250 159 319 124 q 126 249 181 194 q 63 369 72 304 q 294 588 142 529 q 185 675 224 632 q 136 771 146 718 q 313 970 203 901 q 583 1054 422 1039 q 901 840 803 1026 q 658 739 864 707 q 565 929 636 865 z "},"¨":{"ha":607,"x_min":126,"x_max":660,"o":"m 161 1065 q 178 1082 161 1065 q 243 1099 196 1099 q 324 1065 290 1099 q 357 985 357 1032 q 324 906 357 939 q 242 872 290 872 q 160 906 194 872 q 126 985 126 939 q 161 1065 126 1032 m 660 986 q 660 971 660 986 q 638 933 660 956 q 585 911 617 911 q 531 933 554 911 q 507 986 507 956 q 531 1038 507 1017 q 585 1058 554 1058 q 638 1038 617 1058 q 660 986 660 1017 z "},"©":{"ha":1213,"x_min":60,"x_max":1214,"o":"m 932 664 q 859 594 914 614 q 722 586 804 575 q 682 747 729 671 l 649 739 q 540 511 543 638 q 626 318 536 385 q 846 425 754 351 q 904 336 926 425 q 771 250 857 289 q 596 200 685 211 q 384 294 450 221 q 319 474 318 368 q 407 676 321 579 q 725 856 549 821 q 866 794 822 839 q 932 664 910 749 m 1126 553 q 1015 847 1083 771 q 835 964 943 928 q 690 1001 772 986 q 324 831 469 968 q 147 506 178 694 q 272 201 163 314 q 569 58 381 89 q 1126 553 1035 103 m 60 507 q 266 883 103 732 q 697 1068 429 1033 q 996 978 892 1049 q 1085 903 1049 943 q 1147 803 1122 863 q 1214 556 1190 701 q 1025 182 1172 332 q 831 54 949 104 q 563 -8 714 4 q 194 156 321 19 q 60 507 67 293 z "},"ª":{"ha":713,"x_min":96,"x_max":764,"o":"m 764 1000 l 667 814 q 678 461 663 644 q 565 439 646 429 q 433 493 485 449 l 475 588 l 458 601 q 332 456 392 528 q 157 522 217 460 q 97 676 97 585 q 138 852 96 767 q 259 997 179 938 q 438 1057 339 1056 q 531 933 486 1021 q 551 1051 528 1014 q 698 1051 649 1063 q 764 1000 747 1040 m 443 928 q 338 821 376 889 q 300 686 300 753 q 342 588 300 619 q 422 668 369 617 q 493 738 475 719 l 510 840 q 443 928 481 896 z "},"«":{"ha":861,"x_min":81,"x_max":847,"o":"m 760 356 q 750 230 778 289 q 671 172 722 171 l 419 478 q 439 568 419 522 l 785 829 q 841 759 835 810 q 804 640 847 708 l 560 488 l 646 425 l 760 356 m 396 356 q 387 230 415 289 q 307 172 358 171 l 82 478 q 101 568 81 518 l 246 676 l 418 829 q 474 759 467 810 q 438 640 481 708 l 222 488 l 308 425 l 396 356 z "},"¬":{"ha":1390,"x_min":89,"x_max":1339,"o":"m 778 578 l 1308 604 q 1321 501 1339 585 l 1264 236 q 1208 224 1242 219 q 1144 253 1174 229 l 1199 475 l 106 461 q 94 515 89 479 q 124 585 99 550 l 778 578 z "},"­":{"ha":781,"x_min":83,"x_max":732,"o":"m 713 542 q 726 492 732 532 q 689 414 719 451 l 99 400 q 88 453 83 418 q 117 522 93 488 l 385 517 l 713 542 z "},"®":{"ha":811,"x_min":129,"x_max":819,"o":"m 511 1057 q 743 957 681 1040 q 791 869 775 914 q 819 751 807 824 q 699 522 793 613 q 431 415 606 431 q 210 512 286 431 q 129 722 133 593 q 253 947 156 857 q 511 1057 350 1036 m 435 456 q 768 750 711 482 q 742 849 754 813 q 701 922 729 885 q 507 1018 649 993 q 288 915 376 997 q 182 721 200 833 q 435 456 200 493 m 342 919 q 472 936 396 936 q 596 903 547 936 q 644 828 644 871 q 620 758 643 785 q 542 703 597 731 q 494 699 518 699 q 541 651 514 667 q 619 626 568 635 q 618 577 635 601 q 565 542 601 553 q 450 697 464 589 l 440 696 q 428 554 439 669 q 369 544 410 539 q 317 567 329 549 q 376 813 354 685 l 375 875 l 349 879 q 342 919 326 899 m 518 751 q 550 814 550 782 q 531 865 550 846 q 472 885 511 883 l 446 775 l 443 735 q 518 751 481 739 z "},"¯":{"ha":565,"x_min":89,"x_max":654,"o":"m 633 982 q 649 941 654 971 q 611 875 643 911 l 119 860 q 138 964 89 897 l 386 957 l 633 982 z "},"°":{"ha":726,"x_min":129,"x_max":850,"o":"m 471 997 q 387 903 419 958 q 353 796 354 849 q 404 672 354 739 q 536 833 513 733 q 471 997 528 914 m 494 1076 q 664 1000 578 1076 q 635 675 850 832 q 382 589 517 589 q 214 652 296 589 q 131 783 132 715 q 238 983 129 889 q 494 1076 346 1076 z "},"±":{"ha":1032,"x_min":74,"x_max":978,"o":"m 613 678 l 958 692 q 970 641 978 681 q 932 564 963 601 l 590 565 l 549 338 q 495 337 528 325 q 432 379 463 349 l 478 567 l 157 569 q 148 622 142 588 q 179 692 154 657 l 497 679 l 529 906 q 582 909 544 924 q 650 857 619 894 l 613 678 m 883 286 q 896 233 903 272 q 857 157 889 194 l 89 157 q 78 210 74 174 q 108 279 83 246 l 499 272 l 883 286 z "},"²":{"ha":499,"x_min":69,"x_max":506,"o":"m 388 890 q 337 925 375 925 q 261 876 299 925 l 278 829 q 252 808 274 819 q 219 794 231 796 q 114 925 140 860 q 201 1026 146 986 q 318 1065 257 1065 q 442 985 379 1065 q 506 827 506 904 q 401 667 506 750 l 258 553 l 267 547 l 488 597 q 494 523 506 578 q 446 428 483 468 l 233 458 l 150 443 q 69 571 79 488 l 311 792 q 388 890 368 842 z "},"³":{"ha":482,"x_min":67,"x_max":519,"o":"m 364 843 q 289 919 347 919 q 232 892 260 919 l 253 843 q 192 807 233 818 q 138 860 167 825 q 94 925 108 896 q 188 1026 131 988 q 313 1065 246 1065 q 449 1005 381 1065 q 517 885 517 944 q 439 792 519 825 l 371 763 q 476 703 439 735 q 508 628 513 672 q 391 506 504 558 q 115 442 278 454 q 79 491 92 458 q 74 554 67 524 q 243 601 183 578 q 342 658 303 624 q 236 714 304 697 l 235 754 l 364 843 z "},"´":{"ha":369,"x_min":132,"x_max":501,"o":"m 274 1165 q 501 1082 456 1190 l 229 843 q 161 857 190 842 q 133 899 132 872 l 232 1029 l 274 1165 z "},"µ":{"ha":944,"x_min":-103,"x_max":932,"o":"m 932 700 l 811 469 q 826 31 806 278 q 687 2 782 -8 q 528 67 592 13 l 590 210 l 574 225 q 378 0 506 136 q 260 24 317 4 q 125 -429 200 -186 q -15 -429 54 -461 q -103 -342 -85 -397 q 154 422 64 47 q 133 758 151 596 q 285 770 194 785 q 419 699 375 756 q 313 221 396 536 q 394 178 339 194 q 576 378 517 293 q 664 761 622 638 q 844 765 782 779 q 932 700 907 751 z "},"¶":{"ha":931,"x_min":94,"x_max":1000,"o":"m 740 1011 l 761 1136 q 885 1147 808 1154 q 1000 1106 963 1140 l 910 843 l 814 419 q 769 18 813 414 q 652 -2 728 -11 q 557 42 576 7 l 660 490 l 724 876 q 631 868 688 882 l 518 419 l 468 18 q 351 -2 426 -11 q 256 42 276 7 q 361 456 328 265 q 168 519 242 465 q 97 669 94 572 q 261 935 101 857 q 740 1011 421 1013 z "},"·":{"ha":472,"x_min":107,"x_max":390,"o":"m 390 464 q 302 381 353 411 q 208 350 251 350 q 137 376 164 350 q 107 446 110 403 q 165 559 118 508 q 267 617 211 610 q 344 567 306 617 q 390 464 383 518 z "},"¸":{"ha":538,"x_min":-96,"x_max":426,"o":"m 197 -100 q 304 -60 249 -60 q 393 -102 360 -60 q 415 -208 426 -144 q 332 -346 400 -297 q 174 -393 264 -394 q 13 -355 85 -392 q -94 -261 -60 -318 q -84 -214 -96 -233 q -54 -193 -72 -194 q 131 -282 31 -282 q 244 -218 232 -282 q 228 -157 250 -185 q 151 -192 188 -164 q 94 -176 119 -192 q 63 -136 68 -160 l 150 42 l 271 42 l 197 -100 z "},"¹":{"ha":379,"x_min":89,"x_max":444,"o":"m 393 878 l 329 585 l 318 438 q 122 464 193 419 l 204 822 l 253 907 l 228 917 l 172 850 q 127 854 153 846 q 89 878 101 863 l 192 1047 q 326 1053 238 1063 q 444 1014 414 1044 l 393 878 z "},"º":{"ha":746,"x_min":107,"x_max":867,"o":"m 489 1054 q 668 957 578 1054 q 639 542 867 743 q 375 433 515 433 q 197 513 283 433 q 108 679 111 593 q 220 934 107 814 q 489 1054 333 1054 m 476 963 q 365 838 408 910 q 319 693 322 765 q 388 529 321 608 q 564 742 529 608 q 476 963 551 847 z "},"»":{"ha":863,"x_min":58,"x_max":824,"o":"m 146 646 q 156 772 128 713 q 235 829 185 831 l 485 524 q 467 433 486 481 l 279 294 l 121 172 q 65 242 71 192 q 101 361 58 292 l 344 514 l 258 575 l 146 646 m 510 646 q 519 772 492 713 q 599 829 547 831 l 822 524 q 804 433 824 481 l 660 326 l 489 172 q 432 242 439 192 q 469 361 425 292 l 682 514 l 597 575 l 510 646 z "},"¼":{"ha":1203,"x_min":124,"x_max":1122,"o":"m 842 589 q 936 594 874 594 q 1117 526 1065 594 l 1067 410 l 1028 224 l 1115 228 q 1117 171 1122 208 q 1097 119 1111 133 l 1010 122 l 999 -18 q 907 -24 965 -31 q 824 8 849 -17 l 851 128 l 828 129 l 601 118 q 563 193 558 149 l 842 589 m 810 215 l 874 218 l 888 279 l 949 486 l 939 489 l 867 386 l 760 219 l 810 215 m 540 550 l 808 1193 q 914 1193 881 1204 q 968 1143 947 1182 l 264 -122 q 164 -111 196 -128 q 124 -53 132 -94 l 540 550 m 274 917 l 218 850 q 173 854 199 846 q 135 878 147 863 l 238 1047 q 372 1053 283 1063 q 490 1014 460 1044 l 439 878 l 375 585 l 364 438 q 168 464 239 419 l 250 822 l 299 907 l 274 917 z "},"½":{"ha":1179,"x_min":124,"x_max":1099,"o":"m 540 550 l 808 1193 q 914 1193 881 1204 q 968 1143 947 1182 l 264 -122 q 164 -111 196 -128 q 124 -53 132 -94 l 540 550 m 440 878 l 376 585 l 365 438 q 169 464 240 419 l 251 822 l 300 907 l 275 917 l 219 850 q 174 854 200 846 q 136 878 149 863 l 239 1047 q 373 1053 285 1063 q 492 1014 461 1044 l 440 878 m 979 418 q 929 453 967 453 q 853 404 892 453 l 869 357 q 844 335 865 346 q 811 322 822 324 q 706 453 731 389 q 794 554 738 515 q 910 593 850 593 q 1034 512 971 593 q 1097 353 1097 431 q 993 193 1097 276 l 850 81 l 858 74 l 1079 124 q 1087 50 1099 106 q 1038 -46 1075 -6 l 826 -15 l 742 -31 q 661 99 671 14 l 904 318 q 979 418 960 368 z "},"¾":{"ha":1278,"x_min":110,"x_max":1214,"o":"m 932 589 q 1028 594 965 594 q 1208 526 1157 594 l 1157 410 l 1119 224 l 1207 228 q 1208 171 1214 208 q 1188 119 1201 133 l 1101 122 l 1090 -18 q 999 -24 1057 -31 q 914 8 942 -17 l 942 128 l 919 129 l 693 118 q 654 193 650 150 l 932 589 m 901 215 l 964 218 l 978 279 l 1040 486 l 1031 489 l 958 386 l 851 219 l 901 215 m 631 550 l 899 1193 q 1004 1193 971 1204 q 1058 1143 1038 1182 l 354 -122 q 254 -111 286 -128 q 214 -53 222 -94 l 631 550 m 407 843 q 332 919 390 919 q 275 892 303 919 l 296 843 q 235 807 276 818 q 181 860 210 825 q 138 925 151 896 q 231 1026 174 988 q 356 1065 289 1065 q 492 1005 424 1065 q 560 885 560 944 q 482 792 563 825 l 414 763 q 519 703 482 735 q 551 628 556 672 q 434 506 547 558 q 158 442 321 454 q 122 491 135 458 q 117 554 110 524 q 286 601 226 578 q 385 658 346 624 q 279 714 347 697 l 278 754 l 407 843 z "},"¿":{"ha":940,"x_min":-206,"x_max":622,"o":"m 324 663 q 419 749 367 717 q 517 782 472 782 q 591 753 563 782 q 622 679 619 724 q 560 561 608 614 q 454 500 513 508 q 372 552 413 500 q 324 663 331 604 m 510 -25 q 592 -125 563 -25 q 596 -329 621 -225 q 79 -492 301 -492 q -129 -379 -53 -492 q -167 -132 -206 -267 q 374 247 -92 132 l 408 439 q 478 450 444 453 q 518 425 513 447 l 571 197 q 443 56 519 97 q 153 -40 289 36 q -6 -194 18 -115 q 13 -289 -22 -251 q 447 -149 236 -278 l 444 -43 q 510 -25 489 -25 z "},"À":{"ha":1015,"x_min":10,"x_max":1043,"o":"m 839 510 l 994 538 q 988 407 1043 496 l 849 397 l 883 28 q 735 1 838 -8 q 569 54 632 10 l 613 382 l 413 368 l 286 28 q 128 5 221 -7 q 10 60 35 17 l 157 344 l 64 335 q 69 467 10 390 l 221 468 l 331 679 l 424 983 q 592 1029 503 1018 q 844 1007 758 1050 l 814 775 l 839 510 m 592 856 l 450 471 l 624 472 l 611 860 l 592 856 m 661 1119 l 569 1249 l 449 1354 q 514 1421 469 1397 q 674 1429 590 1461 l 776 1153 q 727 1119 761 1129 q 661 1119 693 1110 z "},"Á":{"ha":1015,"x_min":10,"x_max":1043,"o":"m 839 510 l 994 538 q 988 407 1043 496 l 849 397 l 883 28 q 735 1 838 -8 q 569 54 632 10 l 613 382 l 413 368 l 286 28 q 128 5 221 -7 q 10 60 35 17 l 157 344 l 64 335 q 69 467 10 390 l 221 468 l 331 679 l 424 983 q 592 1029 503 1018 q 844 1007 758 1050 l 814 775 l 839 510 m 592 856 l 450 471 l 624 472 l 611 860 l 592 856 m 981 1351 l 708 1113 q 640 1126 669 1111 q 613 1168 611 1142 l 711 1299 l 753 1435 q 981 1351 935 1460 z "},"Â":{"ha":1015,"x_min":10,"x_max":1043,"o":"m 839 510 l 994 538 q 988 407 1043 496 l 849 397 l 883 28 q 735 1 838 -8 q 569 54 632 10 l 613 382 l 413 368 l 286 28 q 128 5 221 -7 q 10 60 35 17 l 157 344 l 64 335 q 69 467 10 390 l 221 468 l 331 679 l 424 983 q 592 1029 503 1018 q 844 1007 758 1050 l 814 775 l 839 510 m 592 856 l 450 471 l 624 472 l 611 860 l 592 856 m 685 1306 l 469 1117 q 400 1130 429 1115 q 368 1172 371 1144 l 636 1419 q 864 1390 774 1444 l 1000 1158 q 914 1118 963 1126 q 767 1136 839 1106 l 685 1306 z "},"Ã":{"ha":1015,"x_min":10,"x_max":1058,"o":"m 861 1233 l 954 1356 q 1027 1345 996 1363 q 1054 1296 1058 1328 q 835 1113 971 1164 q 582 1235 678 1139 l 572 1232 l 479 1117 q 403 1131 440 1108 q 368 1189 365 1153 q 466 1290 419 1251 q 588 1368 513 1329 q 854 1233 757 1331 l 861 1233 m 839 510 l 994 538 q 988 407 1043 496 l 849 397 l 883 28 q 735 1 838 -8 q 569 54 632 10 l 613 382 l 413 368 l 286 28 q 128 5 221 -7 q 10 60 35 17 l 157 344 l 64 335 q 69 467 10 390 l 221 468 l 331 679 l 424 983 q 592 1029 503 1018 q 844 1007 758 1050 l 814 775 l 839 510 m 592 856 l 450 471 l 624 472 l 611 860 l 592 856 z "},"Ä":{"ha":1015,"x_min":10,"x_max":1043,"o":"m 839 510 l 994 538 q 988 407 1043 496 l 849 397 l 883 28 q 735 1 838 -8 q 569 54 632 10 l 613 382 l 413 368 l 286 28 q 128 5 221 -7 q 10 60 35 17 l 157 344 l 64 335 q 69 467 10 390 l 221 468 l 331 679 l 424 983 q 592 1029 503 1018 q 844 1007 758 1050 l 814 775 l 839 510 m 592 856 l 450 471 l 624 472 l 611 860 l 592 856 m 619 1255 q 619 1232 619 1255 q 586 1175 619 1208 q 505 1142 553 1142 q 423 1175 457 1142 q 389 1255 389 1208 q 424 1335 389 1301 q 506 1368 458 1368 q 586 1335 553 1368 q 619 1255 619 1301 m 922 1256 q 922 1240 922 1256 q 901 1203 922 1225 q 848 1181 879 1181 q 793 1203 817 1181 q 769 1256 769 1225 q 793 1307 769 1286 q 848 1328 817 1328 q 901 1307 879 1328 q 922 1256 922 1286 z "},"Å":{"ha":1015,"x_min":10,"x_max":1043,"o":"m 839 510 l 994 538 q 988 407 1043 496 l 849 397 l 883 28 q 735 1 838 -8 q 569 54 632 10 l 613 382 l 413 368 l 286 28 q 128 5 221 -7 q 10 60 35 17 l 157 344 l 64 335 q 69 467 10 390 l 221 468 l 331 679 l 424 983 q 592 1029 503 1018 q 844 1007 758 1050 l 814 775 l 839 510 m 592 856 l 450 471 l 624 472 l 611 860 l 592 856 m 938 1278 q 925 1237 938 1278 q 833 1151 911 1196 q 657 1107 754 1107 q 507 1151 560 1107 q 480 1276 454 1194 q 582 1400 506 1357 q 757 1443 658 1443 q 910 1402 856 1443 q 938 1278 965 1361 m 683 1167 q 706 1174 694 1167 q 749 1268 735 1210 q 755 1353 763 1326 q 726 1381 747 1381 q 701 1374 713 1381 q 659 1277 672 1333 q 653 1194 646 1221 q 683 1167 661 1167 z "},"Æ":{"ha":1264,"x_min":-8,"x_max":1293,"o":"m 599 868 l 460 514 l 626 528 l 618 872 l 599 868 m 972 1038 q 1253 1029 1103 1038 q 1269 915 1293 975 q 1171 804 1246 856 l 1067 889 q 850 883 990 904 l 810 788 l 811 556 q 1136 594 999 582 q 1168 528 1171 576 q 1131 446 1165 481 q 801 439 956 457 l 757 254 l 757 151 q 1138 222 901 163 q 1181 169 1172 207 q 1160 39 1194 106 q 947 12 1079 24 q 733 0 814 0 q 536 81 599 0 l 617 428 l 419 413 l 268 28 q 108 5 201 -7 q -8 60 14 17 l 182 400 l 72 390 q 47 451 44 421 q 82 522 49 481 l 247 522 l 333 693 l 426 981 q 972 1038 603 1038 z "},"Ç":{"ha":947,"x_min":68,"x_max":935,"o":"m 500 -100 q 607 -60 551 -60 q 696 -102 663 -60 q 718 -208 729 -144 q 635 -346 703 -297 q 477 -393 567 -394 q 315 -355 388 -392 q 208 -261 243 -318 q 219 -214 207 -233 q 249 -193 231 -194 q 434 -282 333 -282 q 547 -218 535 -282 q 531 -157 553 -185 q 454 -192 490 -164 q 397 -176 422 -192 q 365 -136 371 -160 l 439 13 q 162 173 256 57 q 69 453 68 289 q 193 811 74 614 q 419 974 301 914 q 688 1054 536 1033 q 935 754 906 975 q 831 681 907 703 q 672 694 754 660 q 611 925 664 867 l 583 918 q 399 715 467 838 q 331 475 332 592 q 376 288 331 358 q 517 171 421 217 q 792 322 679 229 q 865 300 842 328 q 885 224 888 272 q 564 24 776 106 l 500 -100 z "},"È":{"ha":914,"x_min":85,"x_max":964,"o":"m 614 1429 l 717 1153 q 667 1119 701 1129 q 601 1119 633 1110 l 510 1249 l 389 1354 q 454 1421 410 1397 q 614 1429 531 1461 m 708 892 q 504 886 578 897 l 461 768 l 424 568 q 740 607 650 599 q 736 438 799 543 q 408 456 543 456 l 346 147 q 778 231 597 185 q 831 182 819 218 q 790 36 853 111 l 276 0 q 85 157 94 44 q 182 435 150 333 q 246 685 214 538 l 243 883 q 153 911 211 897 q 163 1013 128 978 q 926 1024 560 1046 q 938 889 964 953 q 831 783 911 825 l 708 892 z "},"É":{"ha":914,"x_min":85,"x_max":964,"o":"m 708 892 q 504 886 578 897 l 461 768 l 424 568 q 740 607 650 599 q 736 438 799 543 q 408 456 543 456 l 346 147 q 778 231 597 185 q 831 182 819 218 q 790 36 853 111 l 276 0 q 85 157 94 44 q 182 435 150 333 q 246 685 214 538 l 243 883 q 153 911 211 897 q 163 1013 128 978 q 926 1024 560 1046 q 938 889 964 953 q 831 783 911 825 l 708 892 m 692 1435 q 919 1351 874 1460 l 647 1113 q 579 1126 608 1111 q 551 1168 550 1142 l 650 1299 l 692 1435 z "},"Ê":{"ha":914,"x_min":85,"x_max":964,"o":"m 708 892 q 504 886 578 897 l 461 768 l 424 568 q 740 607 650 599 q 736 438 799 543 q 408 456 543 456 l 346 147 q 778 231 597 185 q 831 182 819 218 q 790 36 853 111 l 276 0 q 85 157 94 44 q 182 435 150 333 q 246 685 214 538 l 243 883 q 153 911 211 897 q 163 1013 128 978 q 926 1024 560 1046 q 938 889 964 953 q 831 783 911 825 l 708 892 m 307 1172 l 575 1419 q 803 1390 713 1444 l 939 1158 q 853 1118 901 1126 q 706 1136 778 1106 l 624 1306 l 408 1117 q 339 1130 368 1115 q 307 1172 310 1144 z "},"Ë":{"ha":914,"x_min":85,"x_max":964,"o":"m 363 1335 q 380 1351 363 1335 q 444 1368 397 1368 q 525 1335 492 1368 q 558 1255 558 1301 q 525 1175 558 1208 q 444 1142 492 1142 q 362 1175 396 1142 q 328 1255 328 1208 q 363 1335 328 1301 m 861 1256 q 861 1240 861 1256 q 840 1203 861 1225 q 787 1181 818 1181 q 732 1203 756 1181 q 708 1256 708 1225 q 732 1307 708 1286 q 787 1328 756 1328 q 840 1307 818 1328 q 861 1256 861 1286 m 831 783 l 708 892 q 504 886 578 897 l 461 768 l 424 568 q 740 607 650 599 q 736 438 799 543 q 408 456 543 456 l 346 147 q 778 231 597 185 q 831 182 819 218 q 790 36 853 111 l 276 0 q 85 157 94 44 q 182 435 150 333 q 246 685 214 538 l 243 883 q 153 911 211 897 q 163 1013 128 978 q 926 1024 560 1046 q 938 889 964 953 q 831 783 911 825 z "},"Ì":{"ha":440,"x_min":21,"x_max":483,"o":"m 368 1429 l 471 1153 q 422 1119 456 1129 q 356 1119 388 1110 l 264 1249 l 143 1354 q 208 1421 164 1397 q 368 1429 285 1461 m 183 988 q 364 1039 288 1039 q 483 1017 440 1039 l 360 614 q 336 325 351 528 q 314 31 321 122 q 150 5 256 -10 q 21 68 44 19 q 181 738 111 344 l 183 988 z "},"Í":{"ha":440,"x_min":21,"x_max":675,"o":"m 447 1435 q 675 1351 629 1460 l 403 1113 q 335 1126 364 1111 q 307 1168 306 1142 l 406 1299 l 447 1435 m 183 988 q 364 1039 288 1039 q 483 1017 440 1039 l 360 614 q 336 325 351 528 q 314 31 321 122 q 150 5 256 -10 q 21 68 44 19 q 181 738 111 344 l 183 988 z "},"Î":{"ha":440,"x_min":21,"x_max":694,"o":"m 63 1172 l 331 1419 q 558 1390 468 1444 l 694 1158 q 608 1118 657 1126 q 461 1136 533 1106 l 379 1306 l 164 1117 q 94 1130 124 1115 q 63 1172 65 1144 m 183 988 q 364 1039 288 1039 q 483 1017 440 1039 l 360 614 q 336 325 351 528 q 314 31 321 122 q 150 5 256 -10 q 21 68 44 19 q 181 738 111 344 l 183 988 z "},"Ï":{"ha":440,"x_min":21,"x_max":615,"o":"m 183 988 q 364 1039 288 1039 q 483 1017 440 1039 l 360 614 q 336 325 351 528 q 314 31 321 122 q 150 5 256 -10 q 21 68 44 19 q 181 738 111 344 l 183 988 m 117 1335 q 134 1351 117 1335 q 199 1368 151 1368 q 279 1335 246 1368 q 313 1255 313 1301 q 279 1175 313 1208 q 198 1142 246 1142 q 116 1175 150 1142 q 82 1255 82 1208 q 117 1335 82 1301 m 615 1256 q 615 1240 615 1256 q 594 1203 615 1225 q 541 1181 572 1181 q 486 1203 510 1181 q 463 1256 463 1225 q 486 1307 463 1286 q 541 1328 510 1328 q 594 1307 572 1328 q 615 1256 615 1286 z "},"Ð":{"ha":1061,"x_min":40,"x_max":1056,"o":"m 178 978 q 577 1039 350 1039 q 930 913 804 1039 q 1054 579 1056 786 q 972 299 1053 429 q 747 72 892 169 q 272 0 515 -6 q 92 156 115 43 q 204 450 174 353 l 93 429 q 43 512 46 468 q 74 583 40 556 l 238 565 q 257 646 250 608 l 261 853 l 201 844 q 158 915 163 876 q 178 978 153 954 m 415 460 l 372 129 q 583 165 500 136 q 793 558 790 325 q 536 883 796 874 q 456 596 481 683 l 615 626 q 666 567 658 608 q 640 481 674 526 l 424 488 l 415 460 z "},"Ñ":{"ha":1058,"x_min":14,"x_max":1111,"o":"m 810 986 q 988 1038 911 1038 q 1111 1017 1065 1038 l 986 615 q 935 31 939 83 q 779 3 861 -7 q 642 54 697 13 q 413 813 475 419 l 356 614 q 331 322 349 518 q 306 31 313 125 q 141 5 246 -10 q 14 68 36 19 q 174 731 117 386 l 182 988 q 389 1039 286 1039 q 490 1011 438 1039 q 644 372 586 579 l 704 253 q 806 728 779 581 l 810 986 m 556 1232 l 463 1117 q 386 1131 424 1108 q 351 1189 349 1153 q 449 1290 403 1251 q 571 1368 496 1329 q 838 1233 740 1331 l 844 1233 l 938 1356 q 1010 1345 979 1363 q 1038 1296 1042 1328 q 818 1113 954 1164 q 565 1235 661 1139 l 556 1232 z "},"Ò":{"ha":974,"x_min":60,"x_max":971,"o":"m 628 1429 l 731 1153 q 681 1119 715 1129 q 615 1119 647 1110 l 524 1249 l 403 1354 q 468 1421 424 1397 q 628 1429 544 1461 m 732 517 q 687 743 718 647 q 588 926 656 839 q 391 715 469 849 q 313 461 313 582 q 447 128 315 260 q 626 300 553 199 q 732 517 700 401 m 60 440 q 135 731 60 589 q 336 963 210 874 q 600 1053 463 1053 q 760 983 675 1053 q 907 798 846 914 q 969 560 968 682 q 890 306 971 439 q 685 87 810 174 q 446 0 561 0 q 269 67 360 0 q 119 238 178 135 q 60 440 60 342 z "},"Ó":{"ha":974,"x_min":60,"x_max":971,"o":"m 732 517 q 687 743 718 647 q 588 926 656 839 q 391 715 469 849 q 313 461 313 582 q 447 128 315 260 q 626 300 553 199 q 732 517 700 401 m 60 440 q 135 731 60 589 q 336 963 210 874 q 600 1053 463 1053 q 760 983 675 1053 q 907 798 846 914 q 969 560 968 682 q 890 306 971 439 q 685 87 810 174 q 446 0 561 0 q 269 67 360 0 q 119 238 178 135 q 60 440 60 342 m 707 1435 q 935 1351 889 1460 l 663 1113 q 594 1126 624 1111 q 567 1168 565 1142 l 665 1299 l 707 1435 z "},"Ô":{"ha":974,"x_min":60,"x_max":971,"o":"m 732 517 q 687 743 718 647 q 588 926 656 839 q 391 715 469 849 q 313 461 313 582 q 447 128 315 260 q 626 300 553 199 q 732 517 700 401 m 60 440 q 135 731 60 589 q 336 963 210 874 q 600 1053 463 1053 q 760 983 675 1053 q 907 798 846 914 q 969 560 968 682 q 890 306 971 439 q 685 87 810 174 q 446 0 561 0 q 269 67 360 0 q 119 238 178 135 q 60 440 60 342 m 322 1172 l 590 1419 q 818 1390 728 1444 l 954 1158 q 867 1118 917 1126 q 721 1136 793 1106 l 639 1306 l 424 1117 q 354 1130 383 1115 q 322 1172 325 1144 z "},"Õ":{"ha":974,"x_min":60,"x_max":1013,"o":"m 542 1368 q 808 1233 711 1331 l 815 1233 l 908 1356 q 981 1345 950 1363 q 1008 1296 1013 1328 q 789 1113 925 1164 q 536 1235 632 1139 l 526 1232 l 433 1117 q 357 1131 394 1108 q 322 1189 319 1153 q 420 1290 374 1251 q 542 1368 467 1329 m 732 517 q 687 743 718 647 q 588 926 656 839 q 391 715 469 849 q 313 461 313 582 q 447 128 315 260 q 626 300 553 199 q 732 517 700 401 m 60 440 q 135 731 60 589 q 336 963 210 874 q 600 1053 463 1053 q 760 983 675 1053 q 907 798 846 914 q 969 560 968 682 q 890 306 971 439 q 685 87 810 174 q 446 0 561 0 q 269 67 360 0 q 119 238 178 135 q 60 440 60 342 z "},"Ö":{"ha":974,"x_min":60,"x_max":971,"o":"m 378 1335 q 395 1351 378 1335 q 460 1368 413 1368 q 540 1335 507 1368 q 574 1255 574 1301 q 540 1175 574 1208 q 459 1142 507 1142 q 377 1175 411 1142 q 343 1255 343 1208 q 378 1335 343 1301 m 876 1256 q 876 1240 876 1256 q 855 1203 876 1225 q 802 1181 833 1181 q 747 1203 771 1181 q 724 1256 724 1225 q 747 1307 724 1286 q 802 1328 771 1328 q 855 1307 833 1328 q 876 1256 876 1286 m 60 440 q 135 731 60 589 q 336 963 210 874 q 600 1053 463 1053 q 760 983 675 1053 q 907 798 846 914 q 969 560 968 682 q 890 306 971 439 q 685 87 810 174 q 446 0 561 0 q 269 67 360 0 q 119 238 178 135 q 60 440 60 342 m 732 517 q 687 743 718 647 q 588 926 656 839 q 391 715 469 849 q 313 461 313 582 q 447 128 315 260 q 626 300 553 199 q 732 517 700 401 z "},"×":{"ha":879,"x_min":64,"x_max":860,"o":"m 463 515 l 763 865 q 840 846 819 863 q 858 781 860 829 l 511 460 l 763 206 q 653 133 736 113 l 446 400 l 151 126 q 81 165 99 142 q 69 225 64 189 l 396 464 l 149 783 q 254 863 161 867 l 463 515 z "},"Ø":{"ha":1056,"x_min":-1,"x_max":1119,"o":"m 918 306 q 878 240 918 306 q 713 87 838 174 q 469 0 589 0 q 226 132 349 0 l 147 0 q 36 53 71 22 q -1 139 1 83 l 142 249 q 88 440 88 350 q 163 731 88 589 q 365 963 239 874 q 628 1053 490 1053 q 751 1010 685 1053 q 874 894 817 967 l 956 1036 q 1119 913 1110 1024 l 947 774 q 997 555 996 671 q 918 306 999 439 m 340 461 q 344 404 340 433 l 728 700 q 615 926 694 825 q 419 715 497 849 q 340 461 340 582 m 747 613 l 367 306 q 475 128 400 203 q 654 300 581 199 q 760 517 728 401 q 747 613 749 603 z "},"Ù":{"ha":953,"x_min":76,"x_max":996,"o":"m 607 1429 l 710 1153 q 660 1119 694 1129 q 594 1119 626 1110 l 503 1249 l 382 1354 q 447 1421 403 1397 q 607 1429 524 1461 m 456 0 q 196 85 297 0 q 76 290 94 171 q 176 999 146 664 q 374 1050 278 1050 q 478 1029 433 1050 q 336 426 354 629 q 363 222 317 301 q 438 166 385 183 q 572 158 492 149 q 675 379 639 260 q 738 679 711 499 l 694 999 q 892 1050 796 1050 q 996 1029 953 1050 q 908 476 950 706 q 756 124 864 247 q 456 0 647 0 z "},"Ú":{"ha":953,"x_min":76,"x_max":996,"o":"m 456 0 q 196 85 297 0 q 76 290 94 171 q 176 999 146 664 q 374 1050 278 1050 q 478 1029 433 1050 q 336 426 354 629 q 363 222 317 301 q 438 166 385 183 q 572 158 492 149 q 675 379 639 260 q 738 679 711 499 l 694 999 q 892 1050 796 1050 q 996 1029 953 1050 q 908 476 950 706 q 756 124 864 247 q 456 0 647 0 m 686 1435 q 914 1351 868 1460 l 642 1113 q 574 1126 603 1111 q 546 1168 544 1142 l 644 1299 l 686 1435 z "},"Û":{"ha":953,"x_min":76,"x_max":996,"o":"m 456 0 q 196 85 297 0 q 76 290 94 171 q 176 999 146 664 q 374 1050 278 1050 q 478 1029 433 1050 q 336 426 354 629 q 363 222 317 301 q 438 166 385 183 q 572 158 492 149 q 675 379 639 260 q 738 679 711 499 l 694 999 q 892 1050 796 1050 q 996 1029 953 1050 q 908 476 950 706 q 756 124 864 247 q 456 0 647 0 m 301 1172 l 569 1419 q 797 1390 707 1444 l 933 1158 q 847 1118 896 1126 q 700 1136 772 1106 l 618 1306 l 403 1117 q 333 1130 363 1115 q 301 1172 304 1144 z "},"Ü":{"ha":953,"x_min":76,"x_max":996,"o":"m 356 1335 q 373 1351 356 1335 q 438 1368 390 1368 q 518 1335 485 1368 q 551 1255 551 1301 q 518 1175 551 1208 q 437 1142 485 1142 q 355 1175 389 1142 q 321 1255 321 1208 q 356 1335 321 1301 m 854 1256 q 854 1240 854 1256 q 833 1203 854 1225 q 780 1181 811 1181 q 725 1203 749 1181 q 701 1256 701 1225 q 725 1307 701 1286 q 780 1328 749 1328 q 833 1307 811 1328 q 854 1256 854 1286 m 892 1050 q 996 1029 953 1050 q 908 476 950 706 q 756 124 864 247 q 456 0 647 0 q 196 85 297 0 q 76 290 94 171 q 176 999 146 664 q 374 1050 278 1050 q 478 1029 433 1050 q 336 426 354 629 q 363 222 317 301 q 438 166 385 183 q 572 158 492 149 q 675 379 639 260 q 738 679 711 499 l 694 999 q 892 1050 796 1050 z "},"Ý":{"ha":932,"x_min":131,"x_max":1003,"o":"m 674 1433 q 901 1350 856 1458 l 629 1111 q 561 1125 590 1110 q 533 1167 532 1140 l 632 1297 l 674 1433 m 131 921 q 258 1038 182 1008 q 408 1036 335 1067 l 424 746 l 524 465 l 533 465 l 574 544 l 751 761 l 688 1007 q 878 1049 799 1056 q 1003 990 957 1042 q 914 779 994 886 q 777 622 875 729 q 639 469 679 515 q 597 31 614 325 q 442 2 544 -10 q 303 61 340 14 q 400 415 357 210 q 131 921 278 682 z "},"Þ":{"ha":918,"x_min":47,"x_max":931,"o":"m 506 1147 l 417 832 q 575 885 508 874 q 831 788 731 864 q 929 589 931 711 q 874 431 931 500 q 690 290 817 363 q 371 286 519 257 q 350 35 358 131 q 184 5 296 -8 q 47 65 72 18 q 222 749 144 324 l 215 1104 q 506 1147 376 1201 m 610 411 q 685 578 689 490 q 564 753 683 717 q 404 721 479 754 q 378 381 400 650 q 610 411 524 351 z "},"ß":{"ha":988,"x_min":17,"x_max":957,"o":"m 713 635 l 711 626 q 895 517 833 593 q 954 351 957 440 q 847 127 951 221 q 576 0 743 33 q 443 20 492 4 q 350 75 394 36 q 388 198 347 149 q 510 265 429 247 l 589 157 q 696 234 654 181 q 739 350 738 288 q 710 460 740 413 q 625 524 681 507 l 499 472 q 441 614 432 539 q 513 728 450 689 l 608 699 q 676 765 651 722 q 700 857 700 808 q 641 974 701 928 q 457 1010 581 1019 l 374 844 q 290 25 314 214 q 131 3 224 -11 q 17 65 39 18 q 181 876 161 515 q 272 1045 219 986 q 422 1149 324 1104 q 772 1088 643 1171 q 900 885 901 1006 q 850 738 899 806 q 713 635 801 671 z "},"à":{"ha":969,"x_min":46,"x_max":965,"o":"m 965 700 l 838 469 q 840 31 828 279 q 701 3 797 -8 q 543 68 604 14 l 603 203 l 582 224 q 375 19 415 60 q 129 103 210 26 q 47 301 49 181 q 189 617 46 469 q 546 771 332 765 q 678 611 613 725 q 703 764 674 713 q 881 769 819 783 q 965 700 943 756 m 531 629 q 375 493 432 582 q 318 313 318 404 q 376 183 318 221 q 624 381 496 276 l 644 496 q 531 629 601 585 m 619 850 l 528 979 l 407 1085 q 472 1151 428 1128 q 632 1160 549 1192 l 735 883 q 685 850 719 860 q 619 850 651 840 z "},"á":{"ha":969,"x_min":46,"x_max":965,"o":"m 965 700 l 838 469 q 840 31 828 279 q 701 3 797 -8 q 543 68 604 14 l 603 203 l 582 224 q 375 19 415 60 q 129 103 210 26 q 47 301 49 181 q 189 617 46 469 q 546 771 332 765 q 678 611 613 725 q 703 764 674 713 q 881 769 819 783 q 965 700 943 756 m 531 629 q 375 493 432 582 q 318 313 318 404 q 376 183 318 221 q 624 381 496 276 l 644 496 q 531 629 601 585 m 939 1082 l 667 843 q 599 857 628 842 q 571 899 569 872 l 669 1029 l 711 1165 q 939 1082 893 1190 z "},"â":{"ha":969,"x_min":46,"x_max":965,"o":"m 965 700 l 838 469 q 840 31 828 279 q 701 3 797 -8 q 543 68 604 14 l 603 203 l 582 224 q 375 19 415 60 q 129 103 210 26 q 47 301 49 181 q 189 617 46 469 q 546 771 332 765 q 678 611 613 725 q 703 764 674 713 q 881 769 819 783 q 965 700 943 756 m 531 629 q 375 493 432 582 q 318 313 318 404 q 376 183 318 221 q 624 381 496 276 l 644 496 q 531 629 601 585 m 643 1036 l 428 847 q 358 860 388 846 q 326 903 329 875 l 594 1150 q 822 1121 732 1175 l 958 889 q 872 849 921 857 q 725 867 797 836 l 643 1036 z "},"ã":{"ha":969,"x_min":46,"x_max":1017,"o":"m 819 964 l 913 1086 q 985 1076 954 1093 q 1013 1026 1017 1058 q 793 843 929 894 q 540 965 636 869 l 531 963 l 438 847 q 361 861 399 839 q 326 919 324 883 q 424 1021 378 982 q 546 1099 471 1060 q 813 964 715 1061 l 819 964 m 965 700 l 838 469 q 840 31 828 279 q 701 3 797 -8 q 543 68 604 14 l 603 203 l 582 224 q 375 19 415 60 q 129 103 210 26 q 47 301 49 181 q 189 617 46 469 q 546 771 332 765 q 678 611 613 725 q 703 764 674 713 q 881 769 819 783 q 965 700 943 756 m 531 629 q 375 493 432 582 q 318 313 318 404 q 376 183 318 221 q 624 381 496 276 l 644 496 q 531 629 601 585 z "},"ä":{"ha":969,"x_min":46,"x_max":965,"o":"m 965 700 l 838 469 q 840 31 828 279 q 701 3 797 -8 q 543 68 604 14 l 603 203 l 582 224 q 375 19 415 60 q 129 103 210 26 q 47 301 49 181 q 189 617 46 469 q 546 771 332 765 q 678 611 613 725 q 703 764 674 713 q 881 769 819 783 q 965 700 943 756 m 531 629 q 375 493 432 582 q 318 313 318 404 q 376 183 318 221 q 624 381 496 276 l 644 496 q 531 629 601 585 m 576 985 q 576 962 576 985 q 543 906 576 939 q 462 872 510 872 q 380 906 414 872 q 346 985 346 939 q 381 1065 346 1032 q 463 1099 415 1099 q 543 1065 510 1099 q 576 985 576 1032 m 879 986 q 879 971 879 986 q 858 933 879 956 q 805 911 836 911 q 750 933 774 911 q 726 986 726 956 q 750 1038 726 1017 q 805 1058 774 1058 q 858 1038 836 1058 q 879 986 879 1017 z "},"å":{"ha":969,"x_min":46,"x_max":965,"o":"m 965 700 l 838 469 q 840 31 828 279 q 701 3 797 -8 q 543 68 604 14 l 603 203 l 582 224 q 375 19 415 60 q 129 103 210 26 q 47 301 49 181 q 189 617 46 469 q 546 771 332 765 q 678 611 613 725 q 703 764 674 713 q 881 769 819 783 q 965 700 943 756 m 531 629 q 375 493 432 582 q 318 313 318 404 q 376 183 318 221 q 624 381 496 276 l 644 496 q 531 629 601 585 m 897 1009 q 883 968 897 1009 q 791 882 869 926 q 615 838 713 838 q 465 881 518 838 q 438 1006 413 925 q 540 1131 464 1088 q 715 1174 617 1174 q 869 1133 814 1174 q 897 1009 924 1092 m 642 897 q 664 904 653 897 q 707 999 693 940 q 713 1084 721 1057 q 685 1111 706 1111 q 660 1104 671 1111 q 617 1008 631 1064 q 612 924 604 951 q 642 897 619 897 z "},"æ":{"ha":1411,"x_min":56,"x_max":1367,"o":"m 540 629 q 385 493 442 582 q 328 313 328 404 q 386 183 328 221 q 615 368 400 194 q 653 500 622 429 q 540 629 610 586 m 1042 651 l 1015 640 q 910 516 949 586 q 868 376 871 446 q 1103 469 1003 418 q 1042 651 1126 592 m 972 144 q 1244 258 1139 179 q 1321 156 1339 261 q 1154 57 1269 103 q 947 0 1039 11 q 744 176 796 61 l 724 11 q 610 6 671 -11 q 535 63 549 22 l 588 206 l 574 219 q 470 112 536 183 q 385 19 404 40 q 139 103 219 26 q 57 301 58 181 q 199 617 56 469 q 556 771 342 765 q 674 615 608 736 q 700 764 672 713 q 803 777 750 781 q 868 747 856 774 l 814 597 q 945 722 875 675 q 1122 786 1015 768 q 1317 671 1267 768 q 1322 440 1367 574 q 874 286 1103 331 q 972 144 889 193 z "},"ç":{"ha":819,"x_min":49,"x_max":783,"o":"m 432 -100 q 539 -60 483 -60 q 628 -102 594 -60 q 650 -208 661 -144 q 567 -346 635 -297 q 409 -393 499 -394 q 247 -355 319 -392 q 140 -261 175 -318 q 151 -214 139 -233 q 181 -193 163 -194 q 366 -282 265 -282 q 479 -218 467 -282 q 463 -157 485 -185 q 386 -192 422 -164 q 328 -176 354 -192 q 297 -136 303 -160 l 365 3 q 124 117 199 31 q 51 324 49 204 q 156 571 51 450 q 535 783 329 742 q 705 709 653 763 q 783 554 757 656 q 697 470 763 494 q 532 461 631 446 q 483 653 540 560 l 444 643 q 316 373 321 522 q 417 143 311 224 q 679 269 575 185 q 750 164 775 269 q 497 25 661 75 l 432 -100 z "},"è":{"ha":828,"x_min":42,"x_max":803,"o":"m 553 786 q 752 672 701 768 q 758 440 803 575 q 311 285 536 331 q 400 144 325 199 q 678 256 556 169 q 754 153 772 261 q 583 54 700 97 q 363 0 465 11 q 121 117 200 26 q 46 329 42 207 q 147 574 54 463 q 553 786 350 743 m 476 651 l 450 640 q 346 515 383 586 q 306 375 308 443 q 539 469 410 407 q 476 651 564 594 m 522 850 l 431 979 l 310 1085 q 375 1151 331 1128 q 535 1160 451 1192 l 638 883 q 588 850 622 860 q 522 850 554 840 z "},"é":{"ha":828,"x_min":42,"x_max":840,"o":"m 553 786 q 752 672 701 768 q 758 440 803 575 q 311 285 536 331 q 400 144 325 199 q 678 256 556 169 q 754 153 772 261 q 583 54 700 97 q 363 0 465 11 q 121 117 200 26 q 46 329 42 207 q 147 574 54 463 q 553 786 350 743 m 476 651 l 450 640 q 346 515 383 586 q 306 375 308 443 q 539 469 410 407 q 476 651 564 594 m 840 1082 l 568 843 q 500 857 529 842 q 472 899 471 872 l 571 1029 l 613 1165 q 840 1082 794 1190 z "},"ê":{"ha":828,"x_min":42,"x_max":860,"o":"m 553 786 q 752 672 701 768 q 758 440 803 575 q 311 285 536 331 q 400 144 325 199 q 678 256 556 169 q 754 153 772 261 q 583 54 700 97 q 363 0 465 11 q 121 117 200 26 q 46 329 42 207 q 147 574 54 463 q 553 786 350 743 m 476 651 l 450 640 q 346 515 383 586 q 306 375 308 443 q 539 469 410 407 q 476 651 564 594 m 544 1036 l 329 847 q 260 860 289 846 q 228 903 231 875 l 496 1150 q 724 1121 633 1175 l 860 889 q 772 849 822 857 q 626 867 699 836 l 544 1036 z "},"ë":{"ha":828,"x_min":42,"x_max":803,"o":"m 553 786 q 752 672 701 768 q 758 440 803 575 q 311 285 536 331 q 400 144 325 199 q 678 256 556 169 q 754 153 772 261 q 583 54 700 97 q 363 0 465 11 q 121 117 200 26 q 46 329 42 207 q 147 574 54 463 q 553 786 350 743 m 476 651 l 450 640 q 346 515 383 586 q 306 375 308 443 q 539 469 410 407 q 476 651 564 594 m 479 985 q 479 962 479 985 q 446 906 479 939 q 365 872 413 872 q 283 906 317 872 q 249 985 249 939 q 283 1065 249 1032 q 365 1099 318 1099 q 446 1065 413 1099 q 479 985 479 1032 m 782 986 q 782 971 782 986 q 760 933 782 956 q 708 911 739 911 q 653 933 676 911 q 629 986 629 956 q 653 1038 629 1017 q 708 1058 676 1058 q 760 1038 739 1058 q 782 986 782 1017 z "},"ì":{"ha":440,"x_min":26,"x_max":429,"o":"m 326 1160 l 429 883 q 380 850 414 860 q 314 850 346 840 l 222 979 l 101 1085 q 167 1151 122 1128 q 326 1160 243 1192 m 153 468 l 143 726 q 415 739 319 807 l 347 507 q 318 31 335 376 q 163 6 258 -8 q 26 68 68 19 q 153 468 113 282 z "},"í":{"ha":440,"x_min":26,"x_max":633,"o":"m 153 468 l 143 726 q 415 739 319 807 l 347 507 q 318 31 335 376 q 163 6 258 -8 q 26 68 68 19 q 153 468 113 282 m 406 1165 q 633 1082 588 1190 l 361 843 q 293 857 322 842 q 265 899 264 872 l 364 1029 l 406 1165 z "},"î":{"ha":440,"x_min":19,"x_max":651,"o":"m 153 468 l 143 726 q 415 739 319 807 l 347 507 q 318 31 335 376 q 163 6 258 -8 q 26 68 68 19 q 153 468 113 282 m 19 903 l 288 1150 q 515 1121 425 1175 l 651 889 q 564 849 614 857 q 418 867 490 836 l 336 1036 l 121 847 q 51 860 81 846 q 19 903 22 875 z "},"ï":{"ha":440,"x_min":26,"x_max":574,"o":"m 75 1065 q 92 1082 75 1065 q 157 1099 110 1099 q 238 1065 204 1099 q 271 985 271 1032 q 238 906 271 939 q 156 872 204 872 q 74 906 108 872 q 40 985 40 939 q 75 1065 40 1032 m 574 986 q 574 971 574 986 q 552 933 574 956 q 499 911 531 911 q 444 933 468 911 q 421 986 421 956 q 444 1038 421 1017 q 499 1058 468 1058 q 552 1038 531 1058 q 574 986 574 1017 m 153 468 l 143 726 q 415 739 319 807 l 347 507 q 318 31 335 376 q 163 6 258 -8 q 26 68 68 19 q 153 468 113 282 z "},"ð":{"ha":849,"x_min":50,"x_max":919,"o":"m 674 1040 l 842 1117 q 906 1072 892 1101 q 903 996 919 1043 l 725 958 q 817 611 818 789 q 715 235 814 396 q 404 0 615 75 q 147 116 243 15 q 53 355 50 217 q 185 617 56 493 q 493 758 314 742 q 614 617 557 715 q 571 897 618 763 l 399 826 q 334 888 344 858 q 343 960 324 917 l 526 985 l 414 1097 q 450 1163 419 1143 q 539 1186 481 1182 q 674 1040 614 1124 m 297 347 q 397 126 297 204 q 599 485 556 275 q 475 622 542 578 q 343 502 389 575 q 297 347 297 429 z "},"ñ":{"ha":942,"x_min":35,"x_max":915,"o":"m 718 964 l 811 1086 q 884 1076 853 1093 q 911 1026 915 1058 q 692 843 828 894 q 439 965 535 869 l 429 963 l 336 847 q 260 861 297 839 q 225 919 222 883 q 323 1021 276 982 q 444 1099 369 1060 q 711 964 614 1061 l 718 964 m 886 576 l 825 386 q 842 31 817 208 q 703 2 796 -8 q 547 67 610 13 q 635 521 565 264 q 581 594 622 572 q 365 426 488 546 q 329 31 358 261 q 163 5 264 -8 q 35 65 63 18 q 168 486 118 289 l 122 700 q 375 769 231 792 q 385 642 392 714 l 338 578 l 351 557 q 615 771 474 686 q 793 706 724 763 q 886 576 863 649 z "},"ò":{"ha":839,"x_min":38,"x_max":813,"o":"m 38 339 q 74 478 38 401 q 170 624 110 554 q 320 740 231 693 q 509 786 410 786 q 709 661 608 786 q 813 425 810 536 q 745 230 813 329 q 569 65 678 131 q 350 0 460 0 q 139 106 240 0 q 38 339 38 213 m 476 669 q 340 513 393 604 q 278 331 286 422 q 371 121 281 207 q 585 390 542 224 q 476 669 574 554 m 511 1160 l 614 883 q 565 850 599 860 q 499 850 531 840 l 407 979 l 286 1085 q 351 1151 307 1128 q 511 1160 428 1192 z "},"ó":{"ha":839,"x_min":38,"x_max":817,"o":"m 547 1029 l 589 1165 q 817 1082 771 1190 l 544 843 q 476 857 506 842 q 449 899 447 872 l 547 1029 m 38 339 q 74 478 38 401 q 170 624 110 554 q 320 740 231 693 q 509 786 410 786 q 709 661 608 786 q 813 425 810 536 q 745 230 813 329 q 569 65 678 131 q 350 0 460 0 q 139 106 240 0 q 38 339 38 213 m 476 669 q 340 513 393 604 q 278 331 286 422 q 371 121 281 207 q 585 390 542 224 q 476 669 574 554 z "},"ô":{"ha":839,"x_min":38,"x_max":836,"o":"m 204 903 l 472 1150 q 700 1121 610 1175 l 836 889 q 750 849 799 857 q 603 867 675 836 l 521 1036 l 306 847 q 236 860 265 846 q 204 903 207 875 m 38 339 q 74 478 38 401 q 170 624 110 554 q 320 740 231 693 q 509 786 410 786 q 709 661 608 786 q 813 425 810 536 q 745 230 813 329 q 569 65 678 131 q 350 0 460 0 q 139 106 240 0 q 38 339 38 213 m 476 669 q 340 513 393 604 q 278 331 286 422 q 371 121 281 207 q 585 390 542 224 q 476 669 574 554 z "},"õ":{"ha":839,"x_min":38,"x_max":896,"o":"m 38 339 q 74 478 38 401 q 170 624 110 554 q 320 740 231 693 q 509 786 410 786 q 709 661 608 786 q 813 425 810 536 q 745 230 813 329 q 569 65 678 131 q 350 0 460 0 q 139 106 240 0 q 38 339 38 213 m 476 669 q 340 513 393 604 q 278 331 286 422 q 371 121 281 207 q 585 390 542 224 q 476 669 574 554 m 410 963 l 317 847 q 240 861 278 839 q 206 919 203 883 q 303 1021 257 982 q 425 1099 350 1060 q 692 964 594 1061 l 699 964 l 792 1086 q 865 1076 833 1093 q 892 1026 896 1058 q 672 843 808 894 q 419 965 515 869 l 410 963 z "},"ö":{"ha":839,"x_min":38,"x_max":813,"o":"m 260 1065 q 277 1082 260 1065 q 342 1099 294 1099 q 422 1065 389 1099 q 456 985 456 1032 q 422 906 456 939 q 341 872 389 872 q 259 906 293 872 q 225 985 225 939 q 260 1065 225 1032 m 758 986 q 758 971 758 986 q 737 933 758 956 q 684 911 715 911 q 629 933 653 911 q 606 986 606 956 q 629 1038 606 1017 q 684 1058 653 1058 q 737 1038 715 1058 q 758 986 758 1017 m 38 339 q 74 478 38 401 q 170 624 110 554 q 320 740 231 693 q 509 786 410 786 q 709 661 608 786 q 813 425 810 536 q 745 230 813 329 q 569 65 678 131 q 350 0 460 0 q 139 106 240 0 q 38 339 38 213 m 476 669 q 340 513 393 604 q 278 331 286 422 q 371 121 281 207 q 585 390 542 224 q 476 669 574 554 z "},"÷":{"ha":1103,"x_min":81,"x_max":1068,"o":"m 722 749 q 656 684 694 708 q 583 660 617 660 q 527 681 549 660 q 504 735 506 701 q 547 822 513 783 q 626 867 582 861 q 688 828 657 867 q 722 749 719 790 m 485 128 q 435 149 456 128 q 411 203 414 169 q 455 290 419 250 q 533 335 490 329 q 594 297 564 335 q 629 215 625 258 q 485 128 563 128 m 1049 576 q 1063 525 1068 565 q 1026 447 1057 485 l 96 433 q 85 487 81 451 q 113 557 89 522 l 585 549 l 1049 576 z "},"ø":{"ha":943,"x_min":-6,"x_max":982,"o":"m 808 230 q 774 180 808 230 q 631 65 740 131 q 412 0 522 0 q 203 106 301 0 l 104 0 q 24 33 49 7 q -6 110 0 60 l 136 201 q 101 335 101 268 q 138 478 101 401 q 233 624 174 554 q 383 740 293 693 q 569 786 472 786 q 768 665 667 786 l 886 813 q 956 773 929 803 q 976 706 982 743 l 821 592 q 876 425 874 500 q 808 230 876 329 m 342 335 l 625 518 q 539 669 599 600 q 403 515 457 604 q 342 335 350 425 m 639 458 l 354 249 q 433 121 378 175 q 647 390 604 222 q 639 458 646 425 z "},"ù":{"ha":935,"x_min":33,"x_max":913,"o":"m 131 415 l 114 758 q 273 769 188 785 q 400 699 358 754 q 278 247 394 549 q 376 178 292 203 q 557 378 506 301 q 644 761 601 633 q 825 765 763 779 q 913 700 888 751 l 792 469 q 807 31 786 278 q 667 2 763 -8 q 508 67 572 13 l 571 210 l 554 225 q 360 0 500 153 q 33 197 74 33 l 131 415 m 521 850 l 429 979 l 308 1085 q 374 1151 329 1128 q 533 1160 450 1192 l 636 883 q 587 850 621 860 q 521 850 553 840 z "},"ú":{"ha":935,"x_min":33,"x_max":913,"o":"m 131 415 l 114 758 q 273 769 188 785 q 400 699 358 754 q 278 247 394 549 q 376 178 292 203 q 557 378 506 301 q 644 761 601 633 q 825 765 763 779 q 913 700 888 751 l 792 469 q 807 31 786 278 q 667 2 763 -8 q 508 67 572 13 l 571 210 l 554 225 q 360 0 500 153 q 33 197 74 33 l 131 415 m 840 1082 l 568 843 q 500 857 529 842 q 472 899 471 872 l 571 1029 l 613 1165 q 840 1082 794 1190 z "},"û":{"ha":935,"x_min":33,"x_max":913,"o":"m 131 415 l 114 758 q 273 769 188 785 q 400 699 358 754 q 278 247 394 549 q 376 178 292 203 q 557 378 506 301 q 644 761 601 633 q 825 765 763 779 q 913 700 888 751 l 792 469 q 807 31 786 278 q 667 2 763 -8 q 508 67 572 13 l 571 210 l 554 225 q 360 0 500 153 q 33 197 74 33 l 131 415 m 544 1036 l 329 847 q 260 860 289 846 q 228 903 231 875 l 496 1150 q 724 1121 633 1175 l 860 889 q 772 849 822 857 q 626 867 699 836 l 544 1036 z "},"ü":{"ha":935,"x_min":33,"x_max":913,"o":"m 131 415 l 114 758 q 273 769 188 785 q 400 699 358 754 q 278 247 394 549 q 376 178 292 203 q 557 378 506 301 q 644 761 601 633 q 825 765 763 779 q 913 700 888 751 l 792 469 q 807 31 786 278 q 667 2 763 -8 q 508 67 572 13 l 571 210 l 554 225 q 360 0 500 153 q 33 197 74 33 l 131 415 m 478 985 q 478 962 478 985 q 444 906 478 939 q 363 872 411 872 q 281 906 315 872 q 247 985 247 939 q 282 1065 247 1032 q 364 1099 317 1099 q 444 1065 411 1099 q 478 985 478 1032 m 781 986 q 781 971 781 986 q 759 933 781 956 q 706 911 738 911 q 651 933 675 911 q 628 986 628 956 q 651 1038 628 1017 q 706 1058 675 1058 q 759 1038 738 1058 q 781 986 781 1017 z "},"ý":{"ha":872,"x_min":10,"x_max":901,"o":"m 58 243 l 129 429 q 111 758 128 572 q 264 769 174 785 q 406 697 354 754 q 300 288 386 529 q 392 213 319 239 q 563 379 496 293 q 632 761 608 672 q 812 768 751 782 q 901 700 872 754 l 761 453 q 668 -282 685 -4 q 271 -419 558 -426 q 98 -303 167 -374 q 10 -151 29 -232 q 131 -52 63 -76 q 258 -62 199 -28 q 358 -268 285 -189 q 442 -240 418 -272 q 496 69 486 21 l 561 192 l 542 208 q 382 44 469 125 q 160 114 244 61 q 58 243 75 167 m 833 1082 l 561 843 q 493 857 522 842 q 465 899 464 872 l 564 1029 l 606 1165 q 833 1082 788 1190 z "},"þ":{"ha":931,"x_min":-33,"x_max":919,"o":"m 339 574 l 360 554 q 397 603 381 586 q 427 640 413 621 q 449 668 442 658 q 471 694 457 678 q 495 721 485 710 q 544 771 506 732 q 814 683 733 757 q 919 447 894 608 q 826 261 890 343 q 675 128 761 179 q 314 1 513 29 q 267 -362 278 -292 q 105 -390 190 -400 q -33 -329 19 -381 q 203 749 139 128 l 200 1103 q 492 1149 371 1203 l 400 814 l 393 672 l 339 574 m 329 126 q 569 254 482 167 q 672 461 656 342 q 636 551 663 519 q 557 606 610 583 q 363 410 471 543 q 329 126 356 336 z "},"ÿ":{"ha":872,"x_min":10,"x_max":901,"o":"m 58 243 l 129 429 q 111 758 128 572 q 264 769 174 785 q 406 697 354 754 q 300 288 386 529 q 392 213 319 239 q 563 379 496 293 q 632 761 608 672 q 812 768 751 782 q 901 700 872 754 l 761 453 q 668 -282 685 -4 q 271 -419 558 -426 q 98 -303 167 -374 q 10 -151 29 -232 q 131 -52 63 -76 q 258 -62 199 -28 q 358 -268 285 -189 q 442 -240 418 -272 q 496 69 486 21 l 561 192 l 542 208 q 382 44 469 125 q 160 114 244 61 q 58 243 75 167 m 472 985 q 472 962 472 985 q 439 906 472 939 q 358 872 406 872 q 276 906 310 872 q 242 985 242 939 q 276 1065 242 1032 q 358 1099 311 1099 q 439 1065 406 1099 q 472 985 472 1032 m 775 986 q 775 971 775 986 q 753 933 775 956 q 701 911 732 911 q 646 933 669 911 q 622 986 622 956 q 646 1038 622 1017 q 701 1058 669 1058 q 753 1038 732 1058 q 775 986 775 1017 z "},"Ā":{"ha":1015,"x_min":10,"x_max":1043,"o":"m 839 510 l 994 538 q 988 407 1043 496 l 849 397 l 883 28 q 735 1 838 -8 q 569 54 632 10 l 613 382 l 413 368 l 286 28 q 128 5 221 -7 q 10 60 35 17 l 157 344 l 64 335 q 69 467 10 390 l 221 468 l 331 679 l 424 983 q 592 1029 503 1018 q 844 1007 758 1050 l 814 775 l 839 510 m 592 856 l 450 471 l 624 472 l 611 860 l 592 856 m 906 1144 l 414 1129 q 432 1233 383 1167 l 681 1226 l 928 1251 q 943 1210 949 1240 q 906 1144 938 1181 z "},"ā":{"ha":969,"x_min":46,"x_max":965,"o":"m 965 700 l 838 469 q 840 31 828 279 q 701 3 797 -8 q 543 68 604 14 l 603 203 l 582 224 q 375 19 415 60 q 129 103 210 26 q 47 301 49 181 q 189 617 46 469 q 546 771 332 765 q 678 611 613 725 q 703 764 674 713 q 881 769 819 783 q 965 700 943 756 m 531 629 q 375 493 432 582 q 318 313 318 404 q 376 183 318 221 q 624 381 496 276 l 644 496 q 531 629 601 585 m 864 875 l 372 860 q 390 964 342 897 l 639 957 l 886 982 q 901 941 907 971 q 864 875 896 911 z "},"Ă":{"ha":1015,"x_min":10,"x_max":1043,"o":"m 839 510 l 994 538 q 988 407 1043 496 l 849 397 l 883 28 q 735 1 838 -8 q 569 54 632 10 l 613 382 l 413 368 l 286 28 q 128 5 221 -7 q 10 60 35 17 l 157 344 l 64 335 q 69 467 10 390 l 221 468 l 331 679 l 424 983 q 592 1029 503 1018 q 844 1007 758 1050 l 814 775 l 839 510 m 592 856 l 450 471 l 624 472 l 611 860 l 592 856 m 932 1306 q 844 1179 911 1232 q 689 1126 776 1126 q 529 1183 601 1126 q 440 1339 457 1239 q 472 1362 451 1353 q 513 1368 493 1371 q 631 1243 547 1267 q 764 1368 750 1264 q 876 1361 832 1379 q 932 1306 919 1343 z "},"ă":{"ha":969,"x_min":46,"x_max":965,"o":"m 965 700 l 838 469 q 840 31 828 279 q 701 3 797 -8 q 543 68 604 14 l 603 203 l 582 224 q 375 19 415 60 q 129 103 210 26 q 47 301 49 181 q 189 617 46 469 q 546 771 332 765 q 678 611 613 725 q 703 764 674 713 q 881 769 819 783 q 965 700 943 756 m 531 629 q 375 493 432 582 q 318 313 318 404 q 376 183 318 221 q 624 381 496 276 l 644 496 q 531 629 601 585 m 890 1036 q 802 910 869 963 q 647 857 735 857 q 488 913 560 857 q 399 1069 415 969 q 431 1092 410 1083 q 471 1099 451 1101 q 589 974 506 997 q 722 1099 708 994 q 834 1092 790 1110 q 890 1036 878 1074 z "},"Ą":{"ha":1015,"x_min":10,"x_max":1043,"o":"m 675 -164 q 785 -212 708 -212 q 942 -157 863 -212 q 981 -174 967 -156 q 996 -228 996 -193 q 707 -343 888 -343 q 544 -297 618 -343 q 471 -193 471 -251 q 633 22 471 -78 q 569 54 597 35 l 613 382 l 413 368 l 286 28 q 128 5 221 -7 q 10 60 35 17 l 157 344 l 64 335 q 69 467 10 390 l 221 468 l 331 679 l 424 983 q 592 1029 503 1018 q 844 1007 758 1050 l 814 775 l 839 510 l 994 538 q 988 407 1043 496 l 849 397 l 883 28 q 861 15 872 19 l 861 14 q 747 -53 799 -7 q 675 -164 696 -99 m 592 856 l 450 471 l 624 472 l 611 860 l 592 856 z "},"ą":{"ha":967,"x_min":46,"x_max":965,"o":"m 653 -343 q 487 -297 547 -343 q 426 -187 426 -250 q 469 -65 426 -124 q 586 38 511 -6 q 543 68 564 50 l 603 203 l 582 224 q 375 19 415 60 q 129 103 210 26 q 47 301 49 181 q 189 617 46 469 q 546 771 332 765 q 678 611 613 725 q 703 764 674 713 q 881 769 819 783 q 965 700 943 756 l 838 469 q 840 31 828 279 q 783 6 819 13 l 783 3 q 647 -75 703 -21 q 582 -196 590 -129 q 833 -158 711 -249 q 885 -174 871 -157 q 903 -228 900 -190 q 653 -343 806 -343 m 531 629 q 375 493 432 582 q 318 313 318 404 q 376 183 318 221 q 624 381 496 276 l 644 496 q 531 629 601 585 z "},"Ć":{"ha":947,"x_min":68,"x_max":935,"o":"m 611 925 l 583 918 q 399 715 467 838 q 331 475 332 592 q 376 288 331 358 q 517 171 421 217 q 792 322 679 229 q 865 300 842 328 q 885 224 888 272 q 720 97 824 157 q 499 0 617 38 q 178 156 288 36 q 69 453 68 275 q 193 811 74 614 q 419 974 301 914 q 688 1054 536 1033 q 935 754 906 975 q 831 681 907 703 q 672 694 754 660 q 611 925 664 867 m 694 1435 q 922 1351 876 1460 l 650 1113 q 582 1126 611 1111 q 554 1168 553 1142 l 653 1299 l 694 1435 z "},"ć":{"ha":819,"x_min":50,"x_max":829,"o":"m 535 783 q 705 709 653 763 q 783 554 757 656 q 697 470 763 494 q 532 461 631 446 q 483 653 540 560 l 444 643 q 316 373 321 522 q 417 143 311 224 q 679 269 575 185 q 750 164 775 269 q 591 60 693 107 q 381 0 489 14 q 185 67 261 17 q 79 182 108 118 q 51 324 50 246 q 156 571 51 450 q 535 783 329 742 m 601 1165 q 829 1082 783 1190 l 557 843 q 489 857 518 842 q 461 899 460 872 l 560 1029 l 601 1165 z "},"Č":{"ha":947,"x_min":68,"x_max":975,"o":"m 611 925 l 583 918 q 399 715 467 838 q 331 475 332 592 q 376 288 331 358 q 517 171 421 217 q 792 322 679 229 q 865 300 842 328 q 885 224 888 272 q 720 97 824 157 q 499 0 617 38 q 178 156 288 36 q 69 453 68 275 q 193 811 74 614 q 419 974 301 914 q 688 1054 536 1033 q 935 754 906 975 q 831 681 907 703 q 672 694 754 660 q 611 925 664 867 m 749 1144 q 514 1136 606 1086 l 360 1371 q 406 1410 374 1397 q 474 1413 439 1422 l 604 1211 l 778 1410 q 908 1415 856 1431 q 975 1365 960 1400 l 749 1144 z "},"č":{"ha":819,"x_min":50,"x_max":882,"o":"m 535 783 q 705 709 653 763 q 783 554 757 656 q 697 470 763 494 q 532 461 631 446 q 483 653 540 560 l 444 643 q 316 373 321 522 q 417 143 311 224 q 679 269 575 185 q 750 164 775 269 q 591 60 693 107 q 381 0 489 14 q 185 67 261 17 q 79 182 108 118 q 51 324 50 246 q 156 571 51 450 q 535 783 329 742 m 656 875 q 421 867 513 817 l 267 1101 q 313 1140 281 1128 q 381 1143 346 1153 l 511 942 l 685 1140 q 815 1146 763 1161 q 882 1096 867 1131 l 656 875 z "},"Ď":{"ha":1029,"x_min":61,"x_max":1025,"o":"m 147 978 q 547 1039 319 1039 q 899 913 774 1039 q 1024 579 1025 786 q 942 299 1022 429 q 717 72 861 169 q 242 0 485 -6 q 61 156 85 43 q 226 646 182 443 l 231 853 l 171 844 q 127 915 132 876 q 147 978 122 954 m 385 460 l 342 129 q 553 165 469 136 q 763 558 760 325 q 506 883 765 874 q 385 460 438 636 m 921 1365 l 694 1144 q 460 1136 551 1086 l 306 1371 q 352 1410 319 1397 q 419 1413 385 1422 l 550 1211 l 724 1410 q 853 1415 801 1431 q 921 1365 906 1400 z "},"ď":{"ha":1039,"x_min":43,"x_max":1307,"o":"m 1100 1060 l 1074 1271 q 1176 1309 1124 1310 q 1261 1283 1228 1308 q 1307 1222 1294 1257 q 1099 888 1293 1038 q 1015 935 1033 889 l 1100 1060 m 719 749 l 710 1118 q 993 1149 885 1199 l 900 814 q 848 380 881 633 q 804 31 815 126 q 654 2 753 -7 q 511 67 556 11 l 590 200 l 574 217 q 372 19 382 29 q 128 101 214 21 q 47 301 43 182 q 87 467 49 385 q 190 617 125 550 q 351 727 254 685 q 556 771 447 769 q 686 606 625 732 q 719 749 706 676 m 624 381 l 654 496 q 532 631 594 593 q 378 494 435 585 q 318 313 321 404 q 376 183 315 222 q 624 381 571 338 z "},"Đ":{"ha":1061,"x_min":40,"x_max":1056,"o":"m 178 978 q 577 1039 350 1039 q 930 913 804 1039 q 1054 579 1056 786 q 972 299 1053 429 q 747 72 892 169 q 272 0 515 -6 q 92 156 115 43 q 204 450 174 353 l 93 429 q 43 512 46 468 q 74 583 40 556 l 238 565 q 257 646 250 608 l 261 853 l 201 844 q 158 915 163 876 q 178 978 153 954 m 415 460 l 372 129 q 583 165 500 136 q 793 558 790 325 q 536 883 796 874 q 456 596 481 683 l 615 626 q 666 567 658 608 q 640 481 674 526 l 424 488 l 415 460 z "},"đ":{"ha":922,"x_min":43,"x_max":1111,"o":"m 943 967 l 1090 982 q 1106 941 1111 971 q 1068 875 1100 911 l 915 871 l 900 814 q 848 380 881 633 q 804 31 815 126 q 654 2 753 -7 q 511 67 556 11 l 590 200 l 574 217 q 372 19 382 29 q 128 101 214 21 q 47 301 43 182 q 87 467 49 385 q 190 617 125 550 q 351 727 254 685 q 556 771 447 769 q 686 606 625 732 q 719 749 706 676 l 717 864 l 576 860 q 594 964 546 897 l 714 961 l 710 1118 q 993 1149 885 1199 l 943 967 m 624 381 l 654 496 q 532 631 594 593 q 378 494 435 585 q 318 313 321 404 q 376 183 315 222 q 624 381 571 338 z "},"Ē":{"ha":914,"x_min":85,"x_max":964,"o":"m 867 1251 q 882 1210 888 1240 q 844 1144 876 1181 l 353 1129 q 371 1233 322 1167 l 619 1226 l 867 1251 m 708 892 q 504 886 578 897 l 461 768 l 424 568 q 740 607 650 599 q 736 438 799 543 q 408 456 543 456 l 346 147 q 778 231 597 185 q 831 182 819 218 q 790 36 853 111 l 276 0 q 85 157 94 44 q 182 435 150 333 q 246 685 214 538 l 243 883 q 153 911 211 897 q 163 1013 128 978 q 926 1024 560 1046 q 938 889 964 953 q 831 783 911 825 l 708 892 z "},"ē":{"ha":828,"x_min":42,"x_max":808,"o":"m 553 786 q 752 672 701 768 q 758 440 803 575 q 311 285 536 331 q 400 144 325 199 q 678 256 556 169 q 754 153 772 261 q 583 54 700 97 q 363 0 465 11 q 121 117 200 26 q 46 329 42 207 q 147 574 54 463 q 553 786 350 743 m 476 651 l 450 640 q 346 515 383 586 q 306 375 308 443 q 539 469 410 407 q 476 651 564 594 m 765 875 l 274 860 q 292 964 243 897 l 540 957 l 788 982 q 803 941 808 971 q 765 875 797 911 z "},"Ė":{"ha":914,"x_min":85,"x_max":964,"o":"m 722 1265 q 722 1241 722 1265 q 689 1185 722 1218 q 608 1151 656 1151 q 526 1185 560 1151 q 492 1265 492 1218 q 526 1344 492 1311 q 608 1378 560 1378 q 689 1344 656 1378 q 722 1265 722 1311 m 708 892 q 504 886 578 897 l 461 768 l 424 568 q 740 607 650 599 q 736 438 799 543 q 408 456 543 456 l 346 147 q 778 231 597 185 q 831 182 819 218 q 790 36 853 111 l 276 0 q 85 157 94 44 q 182 435 150 333 q 246 685 214 538 l 243 883 q 153 911 211 897 q 163 1013 128 978 q 926 1024 560 1046 q 938 889 964 953 q 831 783 911 825 l 708 892 z "},"ė":{"ha":828,"x_min":42,"x_max":803,"o":"m 553 786 q 752 672 701 768 q 758 440 803 575 q 311 285 536 331 q 400 144 325 199 q 678 256 556 169 q 754 153 772 261 q 583 54 700 97 q 363 0 465 11 q 121 117 200 26 q 46 329 42 207 q 147 574 54 463 q 553 786 350 743 m 476 651 l 450 640 q 346 515 383 586 q 306 375 308 443 q 539 469 410 407 q 476 651 564 594 m 643 995 q 643 972 643 995 q 610 915 643 949 q 528 882 576 882 q 447 915 481 882 q 413 995 413 949 q 447 1075 413 1042 q 528 1108 481 1108 q 610 1075 576 1108 q 643 995 643 1042 z "},"Ę":{"ha":911,"x_min":85,"x_max":964,"o":"m 568 -186 q 689 -225 610 -225 q 846 -162 768 -225 q 903 -228 906 -160 q 642 -343 799 -343 q 471 -294 539 -343 q 403 -175 403 -246 q 440 -75 403 -126 q 538 18 476 -24 l 276 0 q 85 157 94 44 q 182 435 150 333 q 246 685 214 538 l 243 883 q 153 911 211 897 q 163 1013 128 978 q 926 1024 560 1046 q 938 889 964 953 q 831 783 911 825 l 708 892 q 504 886 578 897 l 461 768 l 424 568 q 740 607 650 599 q 736 438 799 543 q 408 456 543 456 l 346 147 q 778 231 597 185 q 831 182 819 218 q 790 36 853 111 q 647 -53 711 6 q 568 -186 583 -112 z "},"ę":{"ha":842,"x_min":42,"x_max":803,"o":"m 447 -215 q 638 -144 554 -215 q 708 -208 708 -139 q 597 -305 674 -267 q 418 -343 521 -343 q 249 -293 315 -343 q 183 -169 183 -243 q 290 17 183 -72 q 103 138 164 54 q 46 329 42 222 q 147 574 54 463 q 553 786 350 743 q 752 672 701 768 q 758 440 803 575 q 311 285 536 331 q 400 144 325 199 q 678 256 556 169 q 754 153 772 261 q 583 54 701 99 l 583 51 q 433 -35 508 32 q 335 -179 357 -103 q 447 -215 369 -215 m 476 651 l 450 640 q 346 515 383 586 q 306 375 308 443 q 539 469 410 407 q 476 651 564 594 z "},"Ě":{"ha":914,"x_min":85,"x_max":974,"o":"m 708 892 q 504 886 578 897 l 461 768 l 424 568 q 740 607 650 599 q 736 438 799 543 q 408 456 543 456 l 346 147 q 778 231 597 185 q 831 182 819 218 q 790 36 853 111 l 276 0 q 85 157 94 44 q 182 435 150 333 q 246 685 214 538 l 243 883 q 153 911 211 897 q 163 1013 128 978 q 926 1024 560 1046 q 938 889 964 953 q 831 783 911 825 l 708 892 m 747 1144 q 513 1136 604 1086 l 358 1371 q 405 1410 372 1397 q 472 1413 438 1422 l 603 1211 l 776 1410 q 906 1415 854 1431 q 974 1365 958 1400 l 747 1144 z "},"ě":{"ha":828,"x_min":42,"x_max":894,"o":"m 553 786 q 752 672 701 768 q 758 440 803 575 q 311 285 536 331 q 400 144 325 199 q 678 256 556 169 q 754 153 772 261 q 583 54 700 97 q 363 0 465 11 q 121 117 200 26 q 46 329 42 207 q 147 574 54 463 q 553 786 350 743 m 476 651 l 450 640 q 346 515 383 586 q 306 375 308 443 q 539 469 410 407 q 476 651 564 594 m 894 1096 l 668 875 q 433 867 525 817 l 279 1101 q 326 1140 293 1128 q 393 1143 358 1153 l 524 942 l 697 1140 q 827 1146 775 1161 q 894 1096 879 1131 z "},"Ğ":{"ha":1004,"x_min":64,"x_max":976,"o":"m 935 1306 q 847 1179 914 1232 q 692 1126 779 1126 q 532 1183 604 1126 q 443 1339 460 1239 q 475 1362 454 1353 q 515 1368 496 1371 q 633 1243 550 1267 q 767 1368 753 1264 q 878 1361 835 1379 q 935 1306 922 1343 m 792 308 l 782 315 q 508 0 693 139 q 172 155 279 36 q 65 449 64 274 q 101 634 67 540 q 185 792 136 728 q 401 958 269 888 q 664 1049 533 1028 q 885 939 822 1010 q 936 869 918 903 q 971 785 954 835 q 873 684 947 715 q 719 699 799 653 q 706 786 711 761 q 684 852 701 811 q 636 924 667 893 l 615 924 q 408 720 486 838 q 325 467 329 603 q 366 289 324 358 q 499 156 408 219 q 735 407 654 281 l 729 414 l 547 379 q 501 462 506 408 q 535 549 496 515 q 910 539 736 521 q 925 247 976 443 q 849 14 901 158 q 756 5 803 -6 q 690 50 710 15 q 792 308 767 207 z "},"ğ":{"ha":936,"x_min":44,"x_max":961,"o":"m 610 214 l 590 232 q 376 19 426 72 q 127 104 210 26 q 47 301 44 182 q 85 465 49 382 q 185 615 122 547 q 342 726 247 683 q 542 771 436 769 q 671 621 608 733 q 697 761 674 719 q 874 769 815 783 q 961 700 933 756 l 828 454 q 733 -250 783 218 q 576 -380 675 -339 q 332 -428 476 -421 q 51 -153 96 -315 q 169 -51 100 -75 q 301 -64 239 -26 q 333 -170 311 -125 q 401 -268 354 -215 q 458 -258 431 -269 q 496 -226 485 -246 q 553 106 525 -108 l 610 214 m 644 497 l 643 496 q 529 631 596 590 q 376 499 431 583 q 319 319 321 415 q 376 183 318 222 q 624 381 496 276 l 644 497 m 882 1036 q 794 910 861 963 q 639 857 726 857 q 479 913 551 857 q 390 1069 407 969 q 422 1092 401 1083 q 463 1099 443 1101 q 581 974 497 997 q 714 1099 700 994 q 826 1092 782 1110 q 882 1036 869 1074 z "},"Ģ":{"ha":1004,"x_min":64,"x_max":976,"o":"m 792 308 l 782 315 q 508 0 693 139 q 172 155 279 36 q 65 449 64 274 q 101 634 67 540 q 185 792 136 728 q 401 958 269 888 q 664 1049 533 1028 q 885 939 822 1010 q 936 869 918 903 q 971 785 954 835 q 873 684 947 715 q 719 699 799 653 q 706 786 711 761 q 684 852 701 811 q 636 924 667 893 l 615 924 q 408 720 486 838 q 325 467 329 603 q 366 289 324 358 q 499 156 408 219 q 735 407 654 281 l 729 414 l 547 379 q 501 462 506 408 q 535 549 496 515 q 910 539 736 521 q 925 247 976 443 q 849 14 901 158 q 756 5 803 -6 q 690 50 710 15 q 792 308 767 207 m 376 -65 q 478 -26 426 -26 q 564 -52 531 -26 q 610 -112 597 -78 q 400 -447 594 -299 q 318 -400 335 -447 l 401 -275 l 376 -65 z "},"ģ":{"ha":936,"x_min":44,"x_max":961,"o":"m 610 214 l 590 232 q 376 19 426 72 q 127 104 210 26 q 47 301 44 182 q 85 465 49 382 q 185 615 122 547 q 342 726 247 683 q 542 771 436 769 q 671 621 608 733 q 697 761 674 719 q 874 769 815 783 q 961 700 933 756 l 828 454 q 733 -250 783 218 q 576 -380 675 -339 q 332 -428 476 -421 q 51 -153 96 -315 q 169 -51 100 -75 q 301 -64 239 -26 q 333 -170 311 -125 q 401 -268 354 -215 q 458 -258 431 -269 q 496 -226 485 -246 q 553 106 525 -108 l 610 214 m 644 497 l 643 496 q 529 631 596 590 q 376 499 431 583 q 319 319 321 415 q 376 183 318 222 q 624 381 496 276 l 644 497 m 657 1118 l 736 904 q 640 835 694 850 q 544 836 586 819 q 479 885 503 853 q 613 1299 443 1090 q 714 1271 683 1315 l 657 1118 z "},"Ī":{"ha":440,"x_min":21,"x_max":643,"o":"m 622 1251 q 638 1210 643 1240 q 600 1144 632 1181 l 108 1129 q 126 1233 78 1167 l 375 1226 l 622 1251 m 183 988 q 364 1039 288 1039 q 483 1017 440 1039 l 360 614 q 336 325 351 528 q 314 31 321 122 q 150 5 256 -10 q 21 68 44 19 q 181 738 111 344 l 183 988 z "},"ī":{"ha":440,"x_min":26,"x_max":600,"o":"m 579 982 q 594 941 600 971 q 557 875 589 911 l 65 860 q 83 964 35 897 l 332 957 l 579 982 m 153 468 l 143 726 q 415 739 319 807 l 347 507 q 318 31 335 376 q 163 6 258 -8 q 26 68 68 19 q 153 468 113 282 z "},"Į":{"ha":440,"x_min":-57,"x_max":483,"o":"m 108 -178 q 229 -221 150 -221 q 379 -162 308 -221 q 432 -178 417 -161 q 440 -228 447 -196 q 330 -314 400 -283 q 170 -344 260 -344 q 12 -295 81 -344 q -57 -181 -57 -246 q 89 19 -57 -65 q 21 68 35 38 q 181 738 111 344 l 183 988 q 364 1039 288 1039 q 483 1017 440 1039 l 360 614 q 336 325 351 528 q 314 31 321 122 q 289 17 306 24 l 289 15 q 173 -63 233 -8 q 108 -178 113 -118 z "},"į":{"ha":444,"x_min":-42,"x_max":461,"o":"m 117 -190 q 248 -222 164 -222 q 401 -162 332 -222 q 461 -228 461 -164 q 204 -343 368 -343 q 21 -294 83 -343 q -42 -171 -42 -244 q -8 -63 -42 -117 q 86 28 26 -10 q 31 68 51 44 q 158 468 117 278 l 149 726 q 421 739 325 807 l 353 507 q 324 31 340 396 q 300 18 314 22 l 300 17 q 176 -73 228 -18 q 117 -190 125 -128 m 442 978 q 443 952 442 978 q 405 886 443 925 q 312 847 367 847 q 217 886 257 847 q 176 978 176 925 q 215 1070 175 1032 q 311 1108 256 1108 q 404 1070 367 1108 q 442 978 442 1032 z "},"İ":{"ha":440,"x_min":21,"x_max":483,"o":"m 476 1265 q 476 1241 476 1265 q 443 1185 476 1218 q 362 1151 410 1151 q 280 1185 314 1151 q 246 1265 246 1218 q 280 1344 246 1311 q 362 1378 314 1378 q 443 1344 410 1378 q 476 1265 476 1311 m 183 988 q 364 1039 288 1039 q 483 1017 440 1039 l 360 614 q 336 325 351 528 q 314 31 321 122 q 150 5 256 -10 q 21 68 44 19 q 181 738 111 344 l 183 988 z "},"ı":{"ha":440,"x_min":26,"x_max":415,"o":"m 153 468 l 143 726 q 415 739 319 807 l 347 507 q 318 31 335 376 q 163 6 258 -8 q 26 68 68 19 q 153 468 113 282 z "},"Ķ":{"ha":976,"x_min":36,"x_max":982,"o":"m 397 1050 q 503 1029 457 1050 l 376 614 l 374 582 l 551 697 l 782 1050 q 933 992 885 1038 q 976 869 982 946 q 490 532 800 721 q 635 328 542 404 q 879 224 728 251 q 873 95 913 165 q 732 0 833 25 q 508 201 592 74 q 406 489 425 329 l 364 465 q 329 31 363 451 q 165 5 271 -10 q 36 68 60 19 q 196 738 129 349 l 201 999 q 397 1050 303 1050 m 344 -65 q 447 -26 394 -26 q 532 -52 499 -26 q 578 -112 565 -78 q 368 -447 563 -299 q 286 -400 304 -447 l 369 -275 l 344 -65 z "},"ķ":{"ha":872,"x_min":42,"x_max":867,"o":"m 343 492 l 356 472 q 538 649 453 578 q 736 782 624 719 q 837 706 807 774 q 814 554 867 638 q 421 414 586 510 q 559 293 476 339 q 783 228 642 247 q 792 108 828 181 q 669 0 757 36 q 361 311 456 104 q 335 33 343 103 q 169 5 271 -8 q 42 71 68 18 q 229 765 147 331 l 171 1082 q 429 1150 286 1193 q 436 935 444 1053 q 392 560 428 818 l 343 492 m 340 -65 q 444 -26 392 -26 q 528 -52 496 -26 q 574 -112 561 -78 q 365 -447 560 -297 q 283 -400 300 -447 l 367 -275 l 340 -65 z "},"Ĺ":{"ha":800,"x_min":39,"x_max":746,"o":"m 208 988 q 369 1038 290 1029 q 508 1017 449 1046 l 374 578 l 310 150 q 686 238 483 179 q 735 186 724 222 q 736 115 746 150 q 707 56 726 79 l 226 0 q 39 154 67 51 q 204 733 142 428 l 208 988 m 451 1435 q 679 1351 633 1460 l 407 1113 q 339 1126 368 1111 q 311 1168 310 1142 l 410 1299 l 451 1435 z "},"ĺ":{"ha":467,"x_min":38,"x_max":640,"o":"m 210 749 l 203 1104 q 493 1147 364 1201 l 400 818 q 376 488 399 792 q 340 33 354 185 q 172 6 282 -8 q 38 68 63 19 q 210 749 150 372 m 413 1547 q 640 1464 594 1572 l 368 1225 q 300 1239 329 1224 q 272 1281 271 1254 l 371 1411 l 413 1547 z "},"Ļ":{"ha":800,"x_min":39,"x_max":746,"o":"m 208 988 q 369 1038 290 1029 q 508 1017 449 1046 l 374 578 l 310 150 q 686 238 483 179 q 735 186 724 222 q 736 115 746 150 q 707 56 726 79 l 226 0 q 39 154 67 51 q 204 733 142 428 l 208 988 m 265 -65 q 367 -26 315 -26 q 453 -52 419 -26 q 499 -112 486 -78 q 289 -447 483 -299 q 207 -400 225 -447 l 290 -275 l 265 -65 z "},"ļ":{"ha":467,"x_min":6,"x_max":493,"o":"m 210 749 l 203 1104 q 493 1147 364 1201 l 400 818 q 376 488 399 792 q 340 33 354 185 q 172 6 282 -8 q 38 68 63 19 q 210 749 150 372 m 63 -65 q 166 -26 114 -26 q 251 -52 218 -26 q 296 -112 283 -78 q 88 -447 282 -297 q 6 -400 22 -447 l 89 -275 l 63 -65 z "},"Ľ":{"ha":800,"x_min":39,"x_max":857,"o":"m 208 988 q 369 1038 290 1029 q 508 1017 449 1046 l 374 578 l 310 150 q 686 238 483 179 q 735 186 724 222 q 736 115 746 150 q 707 56 726 79 l 226 0 q 39 154 67 51 q 204 733 142 428 l 208 988 m 649 757 q 565 804 583 758 l 650 929 l 624 1140 q 726 1178 674 1179 q 811 1152 778 1178 q 857 1092 844 1126 q 649 757 842 906 z "},"ľ":{"ha":536,"x_min":38,"x_max":804,"o":"m 210 749 l 203 1104 q 493 1147 364 1201 l 400 818 q 376 488 399 792 q 340 33 354 185 q 172 6 282 -8 q 38 68 63 19 q 210 749 150 372 m 596 888 q 513 935 531 889 l 597 1060 l 571 1271 q 673 1309 621 1310 q 758 1283 725 1308 q 804 1222 792 1257 q 596 888 790 1039 z "},"Ł":{"ha":900,"x_min":28,"x_max":847,"o":"m 469 544 l 411 150 q 788 238 585 179 q 836 186 825 222 q 838 115 847 150 q 808 56 828 79 l 328 0 q 140 154 168 51 q 246 479 204 328 l 94 429 q 38 506 49 460 q 51 575 28 551 l 272 583 q 306 733 278 606 l 310 988 q 471 1038 392 1029 q 610 1017 550 1046 l 499 654 l 676 715 q 737 668 722 706 q 718 576 751 631 l 469 544 z "},"ł":{"ha":710,"x_min":47,"x_max":767,"o":"m 497 654 l 671 708 q 717 569 767 686 l 490 547 q 450 33 464 189 q 282 6 392 -8 q 147 68 172 19 q 268 481 219 264 l 124 438 q 58 513 69 465 q 75 588 47 560 l 293 596 q 319 749 303 646 l 313 1104 q 603 1147 474 1201 l 510 818 q 497 654 501 710 z "},"Ń":{"ha":1058,"x_min":14,"x_max":1111,"o":"m 810 986 q 988 1038 911 1038 q 1111 1017 1065 1038 l 986 615 q 935 31 939 83 q 779 3 861 -7 q 642 54 697 13 q 413 813 475 419 l 356 614 q 331 322 349 518 q 306 31 313 125 q 141 5 246 -10 q 14 68 36 19 q 174 731 117 386 l 182 988 q 389 1039 286 1039 q 490 1011 438 1039 q 644 372 586 579 l 704 253 q 806 728 779 581 l 810 986 m 964 1351 l 692 1113 q 624 1126 653 1111 q 596 1168 594 1142 l 694 1299 l 736 1435 q 964 1351 918 1460 z "},"ń":{"ha":942,"x_min":35,"x_max":886,"o":"m 886 576 l 825 386 q 842 31 817 208 q 703 2 796 -8 q 547 67 610 13 q 635 521 565 264 q 581 594 622 572 q 365 426 488 546 q 329 31 358 261 q 163 5 264 -8 q 35 65 63 18 q 168 486 118 289 l 122 700 q 375 769 231 792 q 385 642 392 714 l 338 578 l 351 557 q 615 771 474 686 q 793 706 724 763 q 886 576 863 649 m 836 1082 l 564 843 q 496 857 525 842 q 468 899 467 872 l 567 1029 l 608 1165 q 836 1082 790 1190 z "},"Ņ":{"ha":1058,"x_min":14,"x_max":1111,"o":"m 810 986 q 988 1038 911 1038 q 1111 1017 1065 1038 l 986 615 q 935 31 939 83 q 779 3 861 -7 q 642 54 697 13 q 413 813 475 419 l 356 614 q 331 322 349 518 q 306 31 313 125 q 141 5 246 -10 q 14 68 36 19 q 174 731 117 386 l 182 988 q 389 1039 286 1039 q 490 1011 438 1039 q 644 372 586 579 l 704 253 q 806 728 779 581 l 810 986 m 365 -65 q 469 -26 417 -26 q 553 -52 521 -26 q 599 -112 586 -78 q 390 -447 585 -297 q 308 -400 325 -447 l 392 -275 l 365 -65 z "},"ņ":{"ha":942,"x_min":35,"x_max":886,"o":"m 886 576 l 825 386 q 842 31 817 208 q 703 2 796 -8 q 547 67 610 13 q 635 521 565 264 q 581 594 622 572 q 365 426 488 546 q 329 31 358 261 q 163 5 264 -8 q 35 65 63 18 q 168 486 118 289 l 122 700 q 375 769 231 792 q 385 642 392 714 l 338 578 l 351 557 q 615 771 474 686 q 793 706 724 763 q 886 576 863 649 m 335 -65 q 437 -26 385 -26 q 522 -52 489 -26 q 568 -112 556 -78 q 360 -447 554 -297 q 276 -400 294 -447 l 361 -275 l 335 -65 z "},"Ň":{"ha":1058,"x_min":14,"x_max":1111,"o":"m 810 986 q 988 1038 911 1038 q 1111 1017 1065 1038 l 986 615 q 935 31 939 83 q 779 3 861 -7 q 642 54 697 13 q 413 813 475 419 l 356 614 q 331 322 349 518 q 306 31 313 125 q 141 5 246 -10 q 14 68 36 19 q 174 731 117 386 l 182 988 q 389 1039 286 1039 q 490 1011 438 1039 q 644 372 586 579 l 704 253 q 806 728 779 581 l 810 986 m 1017 1365 l 790 1144 q 556 1136 647 1086 l 401 1371 q 448 1410 415 1397 q 515 1413 481 1422 l 646 1211 l 819 1410 q 949 1415 897 1431 q 1017 1365 1001 1400 z "},"ň":{"ha":942,"x_min":35,"x_max":890,"o":"m 886 576 l 825 386 q 842 31 817 208 q 703 2 796 -8 q 547 67 610 13 q 635 521 565 264 q 581 594 622 572 q 365 426 488 546 q 329 31 358 261 q 163 5 264 -8 q 35 65 63 18 q 168 486 118 289 l 122 700 q 375 769 231 792 q 385 642 392 714 l 338 578 l 351 557 q 615 771 474 686 q 793 706 724 763 q 886 576 863 649 m 890 1096 l 664 875 q 429 867 521 817 l 275 1101 q 322 1140 289 1128 q 389 1143 354 1153 l 519 942 l 693 1140 q 823 1146 771 1161 q 890 1096 875 1131 z "},"Ō":{"ha":974,"x_min":60,"x_max":971,"o":"m 732 517 q 687 743 718 647 q 588 926 656 839 q 391 715 469 849 q 313 461 313 582 q 447 128 315 260 q 626 300 553 199 q 732 517 700 401 m 60 440 q 135 731 60 589 q 336 963 210 874 q 600 1053 463 1053 q 760 983 675 1053 q 907 798 846 914 q 969 560 968 682 q 890 306 971 439 q 685 87 810 174 q 446 0 561 0 q 269 67 360 0 q 119 238 178 135 q 60 440 60 342 m 882 1251 q 897 1210 903 1240 q 860 1144 892 1181 l 368 1129 q 386 1233 338 1167 l 635 1226 l 882 1251 z "},"ō":{"ha":839,"x_min":38,"x_max":813,"o":"m 517 957 l 764 982 q 779 941 785 971 q 742 875 774 911 l 250 860 q 268 964 219 897 l 517 957 m 38 339 q 74 478 38 401 q 170 624 110 554 q 320 740 231 693 q 509 786 410 786 q 709 661 608 786 q 813 425 810 536 q 745 230 813 329 q 569 65 678 131 q 350 0 460 0 q 139 106 240 0 q 38 339 38 213 m 476 669 q 340 513 393 604 q 278 331 286 422 q 371 121 281 207 q 585 390 542 224 q 476 669 574 554 z "},"Ő":{"ha":974,"x_min":60,"x_max":971,"o":"m 732 517 q 687 743 718 647 q 588 926 656 839 q 391 715 469 849 q 313 461 313 582 q 447 128 315 260 q 626 300 553 199 q 732 517 700 401 m 60 440 q 135 731 60 589 q 336 963 210 874 q 600 1053 463 1053 q 760 983 675 1053 q 907 798 846 914 q 969 560 968 682 q 890 306 971 439 q 685 87 810 174 q 446 0 561 0 q 269 67 360 0 q 119 238 178 135 q 60 440 60 342 m 644 1125 l 758 1372 q 949 1372 890 1394 l 904 1279 l 760 1113 q 644 1125 690 1106 m 381 1125 l 499 1372 q 688 1372 628 1394 l 643 1279 l 508 1113 q 381 1125 432 1106 z "},"ő":{"ha":839,"x_min":38,"x_max":832,"o":"m 264 856 l 382 1103 q 571 1103 511 1125 l 526 1010 l 392 843 q 264 856 315 836 m 528 856 l 642 1103 q 832 1103 774 1125 l 788 1010 l 643 843 q 528 856 574 836 m 38 339 q 74 478 38 401 q 170 624 110 554 q 320 740 231 693 q 509 786 410 786 q 709 661 608 786 q 813 425 810 536 q 745 230 813 329 q 569 65 678 131 q 350 0 460 0 q 139 106 240 0 q 38 339 38 213 m 476 669 q 340 513 393 604 q 278 331 286 422 q 371 121 281 207 q 585 390 542 224 q 476 669 574 554 z "},"Œ":{"ha":1424,"x_min":61,"x_max":1474,"o":"m 314 461 q 349 277 313 364 q 450 128 385 190 q 744 563 681 272 q 707 763 742 683 q 588 926 672 842 q 392 715 469 849 q 314 461 314 582 m 664 83 q 453 0 547 0 q 269 67 360 0 q 120 238 179 135 q 61 440 61 342 q 136 731 61 589 q 338 963 211 874 q 601 1053 464 1053 q 810 964 688 1053 q 1075 1030 926 1017 q 1438 1029 1224 1043 q 1448 893 1474 957 q 1342 788 1422 829 l 1219 897 q 1004 885 1089 903 l 954 815 l 933 571 q 1250 607 1093 593 q 1247 438 1307 544 q 918 456 1056 454 l 868 150 q 1290 231 1072 178 q 1343 182 1332 218 q 1303 36 1364 114 l 822 1 q 664 83 726 22 z "},"œ":{"ha":1343,"x_min":38,"x_max":1321,"o":"m 350 0 q 139 106 240 0 q 38 339 38 213 q 74 478 38 401 q 170 624 110 554 q 320 740 231 693 q 506 786 410 786 q 623 743 563 786 q 731 633 683 700 q 1076 786 907 758 q 1271 671 1221 768 q 1276 440 1321 574 q 828 285 1064 333 q 915 144 844 200 q 1199 258 1082 175 q 1275 156 1293 261 q 1099 54 1218 99 q 876 0 981 10 q 663 135 735 39 q 350 0 514 0 m 996 651 l 969 640 q 865 515 904 586 q 822 376 825 444 q 1057 469 956 418 q 996 651 1081 592 m 371 121 q 585 390 542 224 q 476 669 574 554 q 340 513 393 604 q 278 331 286 422 q 371 121 281 207 z "},"Ŕ":{"ha":975,"x_min":85,"x_max":951,"o":"m 154 1003 q 498 1051 300 1051 q 824 963 696 1051 q 949 760 951 875 q 886 574 947 644 q 681 431 825 504 q 544 417 619 421 q 667 288 593 331 q 882 224 742 246 q 875 94 918 158 q 739 0 832 31 q 531 167 608 60 q 435 413 454 274 l 410 411 q 378 32 396 222 q 222 3 328 -7 q 85 64 117 14 q 242 721 182 372 l 239 892 l 172 899 q 141 952 146 921 q 154 1003 136 983 m 704 740 q 651 859 704 811 q 494 913 597 907 l 425 619 q 420 551 422 579 q 417 511 418 524 q 615 554 519 521 q 704 740 704 639 m 839 1351 l 567 1113 q 499 1126 528 1111 q 471 1168 469 1142 l 569 1299 l 611 1435 q 839 1351 793 1460 z "},"ŕ":{"ha":763,"x_min":36,"x_max":778,"o":"m 339 578 l 356 554 q 574 771 419 619 q 718 686 663 753 q 778 514 774 619 q 661 459 728 467 q 538 482 594 451 q 513 578 539 525 q 449 518 497 563 q 368 443 400 474 q 331 31 360 239 q 165 5 265 -8 q 36 65 65 18 q 171 486 113 265 l 125 700 q 248 763 179 747 q 376 769 317 779 q 386 642 393 721 l 339 578 m 758 1082 l 486 843 q 418 857 447 842 q 390 899 389 872 l 489 1029 l 531 1165 q 758 1082 713 1190 z "},"Ŗ":{"ha":975,"x_min":85,"x_max":951,"o":"m 154 1003 q 498 1051 300 1051 q 824 963 696 1051 q 949 760 951 875 q 886 574 947 644 q 681 431 825 504 q 544 417 619 421 q 667 288 593 331 q 882 224 742 246 q 875 94 918 158 q 739 0 832 31 q 531 167 608 60 q 435 413 454 274 l 410 411 q 378 32 396 222 q 222 3 328 -7 q 85 64 117 14 q 242 721 182 372 l 239 892 l 172 899 q 141 952 146 921 q 154 1003 136 983 m 704 740 q 651 859 704 811 q 494 913 597 907 l 425 619 q 420 551 422 579 q 417 511 418 524 q 615 554 519 521 q 704 740 704 639 m 374 -65 q 476 -26 424 -26 q 561 -52 528 -26 q 607 -112 594 -78 q 399 -447 594 -296 q 315 -400 333 -447 l 400 -275 l 374 -65 z "},"ŗ":{"ha":763,"x_min":14,"x_max":778,"o":"m 339 578 l 356 554 q 574 771 419 619 q 718 686 663 753 q 778 514 774 619 q 661 459 728 467 q 538 482 594 451 q 513 578 539 525 q 449 518 497 563 q 368 443 400 474 q 331 31 360 239 q 165 5 265 -8 q 36 65 65 18 q 171 486 113 265 l 125 700 q 248 763 179 747 q 376 769 317 779 q 386 642 393 721 l 339 578 m 72 -65 q 174 -26 122 -26 q 260 -52 226 -26 q 306 -112 293 -78 q 97 -447 292 -297 q 14 -400 32 -447 l 99 -275 l 72 -65 z "},"Ř":{"ha":975,"x_min":85,"x_max":951,"o":"m 154 1003 q 498 1051 300 1051 q 824 963 696 1051 q 949 760 951 875 q 886 574 947 644 q 681 431 825 504 q 544 417 619 421 q 667 288 593 331 q 882 224 742 246 q 875 94 918 158 q 739 0 832 31 q 531 167 608 60 q 435 413 454 274 l 410 411 q 378 32 396 222 q 222 3 328 -7 q 85 64 117 14 q 242 721 182 372 l 239 892 l 172 899 q 141 952 146 921 q 154 1003 136 983 m 704 740 q 651 859 704 811 q 494 913 597 907 l 425 619 q 420 551 422 579 q 417 511 418 524 q 615 554 519 521 q 704 740 704 639 m 892 1365 l 665 1144 q 431 1136 522 1086 l 276 1371 q 323 1410 290 1397 q 390 1413 356 1422 l 521 1211 l 694 1410 q 824 1415 772 1431 q 892 1365 876 1400 z "},"ř":{"ha":763,"x_min":36,"x_max":813,"o":"m 339 578 l 356 554 q 574 771 419 619 q 718 686 663 753 q 778 514 774 619 q 661 459 728 467 q 538 482 594 451 q 513 578 539 525 q 449 518 497 563 q 368 443 400 474 q 331 31 360 239 q 165 5 265 -8 q 36 65 65 18 q 171 486 113 265 l 125 700 q 248 763 179 747 q 376 769 317 779 q 386 642 393 721 l 339 578 m 813 1096 l 586 875 q 351 867 443 817 l 197 1101 q 244 1140 211 1128 q 311 1143 276 1153 l 442 942 l 615 1140 q 745 1146 693 1161 q 813 1096 797 1131 z "},"Ś":{"ha":939,"x_min":22,"x_max":911,"o":"m 615 304 q 567 363 615 332 q 449 428 519 393 q 306 504 378 463 q 178 610 235 546 q 110 751 121 675 q 296 958 169 878 q 581 1054 422 1038 q 779 986 693 1040 q 911 850 865 932 q 664 735 875 693 q 575 931 644 857 q 435 863 503 910 q 369 781 368 817 q 417 720 369 754 q 534 649 464 686 q 677 569 604 611 q 811 469 750 526 q 892 353 872 411 q 738 114 869 207 q 404 0 607 21 q 169 90 276 24 q 22 236 61 156 q 127 361 67 322 q 282 371 188 400 q 328 240 297 296 q 415 124 358 185 q 558 192 500 142 q 615 304 615 242 m 674 1435 q 901 1351 856 1460 l 629 1113 q 561 1126 590 1111 q 533 1168 532 1142 l 632 1299 l 674 1435 z "},"ś":{"ha":775,"x_min":28,"x_max":772,"o":"m 476 221 q 301 339 476 254 q 170 426 235 372 q 86 539 106 481 q 238 725 135 656 q 475 801 342 794 q 624 744 568 785 q 715 635 681 704 q 660 554 711 579 q 515 543 610 529 q 442 697 496 643 q 346 647 389 681 q 303 588 303 613 q 360 529 303 564 q 488 462 417 494 q 626 375 558 429 q 710 264 693 321 q 571 75 678 144 q 313 0 464 6 q 138 58 213 14 q 28 168 63 103 q 235 283 96 329 q 263 181 244 219 q 321 96 281 143 q 431 148 386 111 q 476 221 476 185 m 544 1165 q 772 1082 726 1190 l 500 843 q 432 857 461 842 q 404 899 403 872 l 503 1029 l 544 1165 z "},"Ş":{"ha":939,"x_min":22,"x_max":911,"o":"m 615 304 q 567 363 615 332 q 449 428 519 393 q 306 504 378 463 q 178 610 235 546 q 110 751 121 675 q 296 958 169 878 q 581 1054 422 1038 q 779 986 693 1040 q 911 850 865 932 q 664 735 875 693 q 575 931 644 857 q 435 863 503 910 q 369 781 368 817 q 417 720 369 754 q 534 649 464 686 q 677 569 604 611 q 811 469 750 526 q 892 353 872 411 q 765 135 871 224 q 489 13 658 46 l 431 -100 q 538 -60 482 -60 q 626 -102 593 -60 q 649 -208 660 -144 q 565 -346 633 -297 q 408 -393 497 -394 q 246 -355 318 -392 q 139 -261 174 -318 q 149 -214 138 -233 q 179 -193 161 -194 q 365 -282 264 -282 q 478 -218 465 -282 q 461 -157 483 -185 q 385 -192 421 -164 q 327 -176 353 -192 q 296 -136 301 -160 l 367 8 q 154 99 250 36 q 22 236 58 163 q 127 361 67 322 q 282 371 188 400 q 328 240 297 296 q 415 124 358 185 q 558 192 500 142 q 615 304 615 242 z "},"ş":{"ha":775,"x_min":28,"x_max":715,"o":"m 476 221 q 301 339 476 254 q 170 426 235 372 q 86 539 106 481 q 238 725 135 656 q 475 801 342 794 q 624 744 568 785 q 715 635 681 704 q 660 554 711 579 q 515 543 610 529 q 442 697 496 643 q 346 647 389 681 q 303 588 303 613 q 360 529 303 564 q 488 462 417 494 q 626 375 558 429 q 710 264 693 321 q 601 97 683 163 q 399 8 518 31 l 342 -100 q 449 -60 393 -60 q 538 -102 504 -60 q 560 -208 571 -144 q 476 -346 544 -297 q 319 -393 408 -394 q 157 -355 229 -392 q 50 -261 85 -318 q 60 -214 49 -233 q 90 -193 72 -194 q 276 -282 175 -282 q 389 -218 376 -282 q 372 -157 394 -185 q 296 -192 332 -164 q 238 -176 264 -192 q 207 -136 213 -160 l 276 6 q 28 168 94 43 q 235 283 96 329 q 263 181 244 219 q 321 96 281 143 q 431 148 386 111 q 476 221 476 185 z "},"Š":{"ha":939,"x_min":22,"x_max":954,"o":"m 615 304 q 567 363 615 332 q 449 428 519 393 q 306 504 378 463 q 178 610 235 546 q 110 751 121 675 q 296 958 169 878 q 581 1054 422 1038 q 779 986 693 1040 q 911 850 865 932 q 664 735 875 693 q 575 931 644 857 q 435 863 503 910 q 369 781 368 817 q 417 720 369 754 q 534 649 464 686 q 677 569 604 611 q 811 469 750 526 q 892 353 872 411 q 738 114 869 207 q 404 0 607 21 q 169 90 276 24 q 22 236 61 156 q 127 361 67 322 q 282 371 188 400 q 328 240 297 296 q 415 124 358 185 q 558 192 500 142 q 615 304 615 242 m 728 1144 q 493 1136 585 1086 l 339 1371 q 385 1410 353 1397 q 453 1413 418 1422 l 583 1211 l 757 1410 q 887 1415 835 1431 q 954 1365 939 1400 l 728 1144 z "},"š":{"ha":775,"x_min":28,"x_max":825,"o":"m 476 221 q 301 339 476 254 q 170 426 235 372 q 86 539 106 481 q 238 725 135 656 q 475 801 342 794 q 624 744 568 785 q 715 635 681 704 q 660 554 711 579 q 515 543 610 529 q 442 697 496 643 q 346 647 389 681 q 303 588 303 613 q 360 529 303 564 q 488 462 417 494 q 626 375 558 429 q 710 264 693 321 q 571 75 678 144 q 313 0 464 6 q 138 58 213 14 q 28 168 63 103 q 235 283 96 329 q 263 181 244 219 q 321 96 281 143 q 431 148 386 111 q 476 221 476 185 m 599 875 q 364 867 456 817 l 210 1101 q 256 1140 224 1128 q 324 1143 289 1153 l 454 942 l 628 1140 q 758 1146 706 1161 q 825 1096 810 1131 l 599 875 z "},"Ţ":{"ha":931,"x_min":106,"x_max":1044,"o":"m 422 -100 q 529 -60 474 -60 q 618 -102 585 -60 q 640 -208 651 -144 q 557 -346 625 -297 q 399 -393 489 -394 q 238 -355 310 -392 q 131 -261 165 -318 q 141 -214 129 -233 q 171 -193 153 -194 q 356 -282 256 -282 q 469 -218 457 -282 q 453 -157 475 -185 q 376 -192 413 -164 q 319 -176 344 -192 q 288 -136 293 -160 l 361 13 q 271 67 288 32 q 428 744 372 388 l 429 871 l 175 840 q 144 1011 106 925 q 554 1033 388 1031 q 993 1022 721 1036 q 974 849 1044 958 l 669 881 l 601 617 q 565 31 571 139 q 475 3 532 7 l 422 -100 z "},"ţ":{"ha":747,"x_min":42,"x_max":776,"o":"m 335 -100 q 442 -60 386 -60 q 531 -102 497 -60 q 553 -208 564 -144 q 469 -346 538 -297 q 312 -393 401 -394 q 150 -355 222 -392 q 43 -261 78 -318 q 53 -214 42 -233 q 83 -193 65 -194 q 269 -282 168 -282 q 382 -218 369 -282 q 365 -157 388 -185 q 289 -192 325 -164 q 231 -176 257 -192 q 200 -136 206 -160 l 275 17 q 136 140 169 50 q 283 651 224 392 l 100 619 q 69 686 69 653 q 99 763 69 719 l 294 757 l 275 997 q 444 1053 369 1049 q 558 1015 518 1057 l 486 790 l 724 835 q 724 693 776 789 l 463 682 q 435 394 454 575 q 410 151 415 213 q 619 275 518 194 q 686 251 669 274 q 697 174 703 229 q 390 7 553 50 l 335 -100 z "},"Ť":{"ha":931,"x_min":106,"x_max":1044,"o":"m 429 871 l 175 840 q 144 1011 106 925 q 554 1033 388 1031 q 993 1022 721 1036 q 974 849 1044 958 l 669 881 l 601 617 q 565 31 571 139 q 401 5 507 -10 q 271 67 294 19 q 428 744 372 388 l 429 871 m 947 1365 l 721 1144 q 486 1136 578 1086 l 332 1371 q 378 1410 346 1397 q 446 1413 411 1422 l 576 1211 l 750 1410 q 880 1415 828 1431 q 947 1365 932 1400 z "},"ť":{"ha":747,"x_min":69,"x_max":886,"o":"m 100 574 q 69 640 69 607 q 99 717 69 674 l 297 711 l 297 714 l 275 997 q 444 1053 369 1049 q 558 1015 518 1057 l 471 742 l 724 789 q 724 647 776 743 l 463 636 l 460 636 q 435 384 453 544 q 410 151 417 224 q 619 275 518 194 q 686 251 669 274 q 697 174 703 229 q 360 0 542 38 q 136 140 181 18 q 272 603 224 392 l 100 574 m 679 1006 l 653 1217 q 756 1255 704 1256 q 841 1228 808 1254 q 886 1168 874 1203 q 678 833 872 983 q 596 881 613 836 l 679 1006 z "},"Ū":{"ha":953,"x_min":76,"x_max":996,"o":"m 861 1251 q 876 1210 882 1240 q 839 1144 871 1181 l 347 1129 q 365 1233 317 1167 l 614 1226 l 861 1251 m 456 0 q 196 85 297 0 q 76 290 94 171 q 176 999 146 664 q 374 1050 278 1050 q 478 1029 433 1050 q 336 426 354 629 q 363 222 317 301 q 438 166 385 183 q 572 158 492 149 q 675 379 639 260 q 738 679 711 499 l 694 999 q 892 1050 796 1050 q 996 1029 953 1050 q 908 476 950 706 q 756 124 864 247 q 456 0 647 0 z "},"ū":{"ha":935,"x_min":33,"x_max":913,"o":"m 131 415 l 114 758 q 273 769 188 785 q 400 699 358 754 q 278 247 394 549 q 376 178 292 203 q 557 378 506 301 q 644 761 601 633 q 825 765 763 779 q 913 700 888 751 l 792 469 q 807 31 786 278 q 667 2 763 -8 q 508 67 572 13 l 571 210 l 554 225 q 360 0 500 153 q 33 197 74 33 l 131 415 m 765 875 l 274 860 q 292 964 243 897 l 540 957 l 788 982 q 803 941 808 971 q 765 875 797 911 z "},"Ů":{"ha":953,"x_min":76,"x_max":996,"o":"m 456 0 q 196 85 297 0 q 76 290 94 171 q 176 999 146 664 q 374 1050 278 1050 q 478 1029 433 1050 q 336 426 354 629 q 363 222 317 301 q 438 166 385 183 q 572 158 492 149 q 675 379 639 260 q 738 679 711 499 l 694 999 q 892 1050 796 1050 q 996 1029 953 1050 q 908 476 950 706 q 756 124 864 247 q 456 0 647 0 m 660 1381 q 635 1374 646 1381 q 592 1277 606 1333 q 587 1194 579 1221 q 617 1167 594 1167 q 639 1174 628 1167 q 682 1268 668 1210 q 688 1353 696 1326 q 660 1381 681 1381 m 413 1276 q 426 1316 413 1276 q 515 1400 439 1357 q 690 1443 592 1443 q 844 1402 789 1443 q 872 1278 899 1361 q 766 1151 844 1196 q 590 1107 688 1107 q 440 1151 493 1107 q 413 1276 388 1194 z "},"ů":{"ha":935,"x_min":33,"x_max":913,"o":"m 131 415 l 114 758 q 273 769 188 785 q 400 699 358 754 q 278 247 394 549 q 376 178 292 203 q 557 378 506 301 q 644 761 601 633 q 825 765 763 779 q 913 700 888 751 l 792 469 q 807 31 786 278 q 667 2 763 -8 q 508 67 572 13 l 571 210 l 554 225 q 360 0 500 153 q 33 197 74 33 l 131 415 m 798 1009 q 784 968 798 1009 q 692 882 771 926 q 517 838 614 838 q 367 881 419 838 q 340 1006 314 925 q 442 1131 365 1088 q 617 1174 518 1174 q 770 1133 715 1174 q 798 1009 825 1092 m 543 897 q 565 904 554 897 q 608 999 594 940 q 615 1084 622 1057 q 586 1111 607 1111 q 561 1104 572 1111 q 519 1008 532 1064 q 513 924 506 951 q 543 897 521 897 z "},"Ű":{"ha":953,"x_min":76,"x_max":996,"o":"m 624 1125 l 738 1372 q 928 1372 869 1394 l 883 1279 l 739 1113 q 624 1125 669 1106 m 360 1125 l 478 1372 q 667 1372 607 1394 l 622 1279 l 488 1113 q 360 1125 411 1106 m 456 0 q 196 85 297 0 q 76 290 94 171 q 176 999 146 664 q 374 1050 278 1050 q 478 1029 433 1050 q 336 426 354 629 q 363 222 317 301 q 438 166 385 183 q 572 158 492 149 q 675 379 639 260 q 738 679 711 499 l 694 999 q 892 1050 796 1050 q 996 1029 953 1050 q 908 476 950 706 q 756 124 864 247 q 456 0 647 0 z "},"ű":{"ha":935,"x_min":33,"x_max":913,"o":"m 131 415 l 114 758 q 273 769 188 785 q 400 699 358 754 q 278 247 394 549 q 376 178 292 203 q 557 378 506 301 q 644 761 601 633 q 825 765 763 779 q 913 700 888 751 l 792 469 q 807 31 786 278 q 667 2 763 -8 q 508 67 572 13 l 571 210 l 554 225 q 360 0 500 153 q 33 197 74 33 l 131 415 m 549 1010 l 414 843 q 286 856 338 836 l 404 1103 q 593 1103 533 1125 l 549 1010 m 810 1010 l 665 843 q 550 856 596 836 l 664 1103 q 854 1103 796 1125 l 810 1010 z "},"Ų":{"ha":953,"x_min":76,"x_max":996,"o":"m 892 1050 q 996 1029 953 1050 q 908 476 950 706 q 538 7 826 54 q 417 -62 468 -14 q 357 -168 365 -111 q 483 -224 399 -224 q 635 -162 567 -224 q 681 -178 665 -160 q 694 -228 696 -196 q 585 -312 653 -282 q 443 -343 517 -343 q 256 -293 324 -343 q 188 -169 188 -243 q 321 19 188 -61 q 153 125 218 50 q 76 290 89 200 q 176 999 146 664 q 374 1050 278 1050 q 478 1029 433 1050 q 336 426 354 629 q 363 222 317 301 q 438 166 385 183 q 572 158 492 149 q 675 379 639 260 q 738 679 711 499 l 694 999 q 892 1050 796 1050 z "},"ų":{"ha":935,"x_min":33,"x_max":913,"o":"m 131 415 l 114 758 q 273 769 188 785 q 400 699 358 754 q 278 247 394 549 q 376 178 292 203 q 557 378 506 301 q 644 761 601 633 q 825 765 763 779 q 913 700 888 751 l 792 469 q 807 31 786 278 q 753 6 789 15 l 753 3 q 615 -75 671 -21 q 551 -196 558 -129 q 803 -158 681 -249 q 855 -174 840 -157 q 871 -228 869 -190 q 622 -343 776 -343 q 455 -297 515 -343 q 394 -187 394 -250 q 436 -65 394 -124 q 553 38 478 -7 q 508 67 528 51 l 571 210 l 554 225 q 360 0 500 153 q 33 197 74 33 l 131 415 z "},"Ÿ":{"ha":932,"x_min":131,"x_max":1003,"o":"m 751 761 l 688 1007 q 878 1049 799 1056 q 1003 990 957 1042 q 914 779 994 886 q 777 622 875 729 q 639 469 679 515 q 597 31 614 325 q 442 2 544 -10 q 303 61 340 14 q 400 415 357 210 q 131 921 278 682 q 258 1038 182 1008 q 408 1036 335 1067 l 424 746 l 524 465 l 533 465 l 574 544 l 751 761 m 344 1333 q 362 1350 344 1333 q 426 1367 379 1367 q 507 1333 474 1367 q 540 1253 540 1300 q 507 1174 540 1207 q 426 1140 474 1140 q 344 1174 378 1140 q 310 1253 310 1207 q 344 1333 310 1300 m 843 1254 q 843 1239 843 1254 q 822 1201 843 1224 q 769 1179 800 1179 q 714 1201 738 1179 q 690 1254 690 1224 q 714 1306 690 1285 q 769 1326 738 1326 q 822 1306 800 1326 q 843 1254 843 1285 z "},"Ź":{"ha":993,"x_min":25,"x_max":1025,"o":"m 25 110 q 222 364 25 196 q 403 514 310 438 q 714 840 636 707 l 704 853 q 424 885 550 860 q 344 726 367 818 q 104 815 151 704 q 326 1050 172 994 q 757 954 422 1026 l 793 1051 q 958 1026 901 1051 q 1025 924 1014 1001 q 701 542 958 778 q 324 211 532 386 l 328 200 q 681 185 657 185 q 722 317 708 243 q 968 231 929 360 q 901 109 946 160 q 763 0 857 58 q 274 94 632 36 l 265 90 l 278 43 q 69 4 203 -11 q 25 110 25 42 m 707 1435 q 935 1351 889 1460 l 663 1113 q 594 1126 624 1111 q 567 1168 565 1142 l 665 1299 l 707 1435 z "},"ź":{"ha":888,"x_min":40,"x_max":889,"o":"m 308 179 l 576 153 q 619 268 592 183 q 765 267 711 292 q 829 179 818 243 q 614 0 774 51 q 264 94 522 29 l 254 90 l 269 39 q 81 0 222 -10 q 43 110 40 47 q 112 234 46 174 q 261 339 178 294 q 593 568 507 474 l 590 582 q 381 618 535 588 q 317 482 338 569 q 169 492 219 471 q 99 569 118 513 q 307 772 165 736 q 644 682 593 692 l 679 771 q 824 756 772 778 q 889 674 875 735 q 811 533 874 606 q 658 397 749 461 q 308 194 497 285 l 308 179 m 611 1165 q 839 1082 793 1190 l 567 843 q 499 857 528 842 q 471 899 469 872 l 569 1029 l 611 1165 z "},"Ż":{"ha":993,"x_min":25,"x_max":1025,"o":"m 736 1265 q 736 1241 736 1265 q 703 1185 736 1218 q 622 1151 669 1151 q 540 1185 574 1151 q 506 1265 506 1218 q 540 1344 506 1311 q 622 1378 574 1378 q 703 1344 669 1378 q 736 1265 736 1311 m 25 110 q 222 364 25 196 q 403 514 310 438 q 714 840 636 707 l 704 853 q 424 885 550 860 q 344 726 367 818 q 104 815 151 704 q 326 1050 172 994 q 757 954 422 1026 l 793 1051 q 958 1026 901 1051 q 1025 924 1014 1001 q 701 542 958 778 q 324 211 532 386 l 328 200 q 681 185 657 185 q 722 317 708 243 q 968 231 929 360 q 901 109 946 160 q 763 0 857 58 q 274 94 632 36 l 265 90 l 278 43 q 69 4 203 -11 q 25 110 25 42 z "},"ż":{"ha":888,"x_min":40,"x_max":889,"o":"m 640 995 q 640 972 640 995 q 607 915 640 949 q 526 882 574 882 q 444 915 478 882 q 410 995 410 949 q 444 1075 410 1042 q 526 1108 478 1108 q 607 1075 574 1108 q 640 995 640 1042 m 308 179 l 576 153 q 619 268 592 183 q 765 267 711 292 q 829 179 818 243 q 614 0 774 51 q 264 94 522 29 l 254 90 l 269 39 q 81 0 222 -10 q 43 110 40 47 q 112 234 46 174 q 261 339 178 294 q 593 568 507 474 l 590 582 q 381 618 535 588 q 317 482 338 569 q 169 492 219 471 q 99 569 118 513 q 307 772 165 736 q 644 682 593 692 l 679 771 q 824 756 772 778 q 889 674 875 735 q 811 533 874 606 q 658 397 749 461 q 308 194 497 285 l 308 179 z "},"Ž":{"ha":993,"x_min":25,"x_max":1025,"o":"m 25 110 q 222 364 25 196 q 403 514 310 438 q 714 840 636 707 l 704 853 q 424 885 550 860 q 344 726 367 818 q 104 815 151 704 q 326 1050 172 994 q 757 954 422 1026 l 793 1051 q 958 1026 901 1051 q 1025 924 1014 1001 q 701 542 958 778 q 324 211 532 386 l 328 200 q 681 185 657 185 q 722 317 708 243 q 968 231 929 360 q 901 109 946 160 q 763 0 857 58 q 274 94 632 36 l 265 90 l 278 43 q 69 4 203 -11 q 25 110 25 42 m 761 1144 q 526 1136 618 1086 l 372 1371 q 419 1410 386 1397 q 486 1413 451 1422 l 617 1211 l 790 1410 q 920 1415 868 1431 q 988 1365 972 1400 l 761 1144 z "},"ž":{"ha":888,"x_min":40,"x_max":892,"o":"m 308 179 l 576 153 q 619 268 592 183 q 765 267 711 292 q 829 179 818 243 q 614 0 774 51 q 264 94 522 29 l 254 90 l 269 39 q 81 0 222 -10 q 43 110 40 47 q 112 234 46 174 q 261 339 178 294 q 593 568 507 474 l 590 582 q 381 618 535 588 q 317 482 338 569 q 169 492 219 471 q 99 569 118 513 q 307 772 165 736 q 644 682 593 692 l 679 771 q 824 756 772 778 q 889 674 875 735 q 811 533 874 606 q 658 397 749 461 q 308 194 497 285 l 308 179 m 665 875 q 431 867 522 817 l 276 1101 q 323 1140 290 1128 q 390 1143 356 1153 l 521 942 l 694 1140 q 824 1146 772 1161 q 892 1096 876 1131 l 665 875 z "},"ƒ":{"ha":839,"x_min":-37,"x_max":933,"o":"m 367 549 l 322 993 q 489 1142 389 1082 q 685 1213 589 1203 q 852 1135 800 1188 q 933 988 904 1082 q 845 904 915 931 q 694 893 775 878 q 675 994 690 956 q 621 1075 660 1033 q 543 1032 583 1075 q 531 581 550 851 l 769 626 q 769 485 819 579 l 522 474 q 415 -275 488 76 q 132 -333 324 -379 l -37 -54 q -5 -4 -32 -21 q 51 4 22 13 l 189 -186 q 354 449 303 119 l 142 410 q 140 553 85 469 l 361 547 l 367 549 z "},"Ș":{"ha":939,"x_min":22,"x_max":911,"o":"m 615 304 q 567 363 615 332 q 449 428 519 393 q 306 504 378 463 q 178 610 235 546 q 110 751 121 675 q 296 958 169 878 q 581 1054 422 1038 q 779 986 693 1040 q 911 850 865 932 q 664 735 875 693 q 575 931 644 857 q 435 863 503 910 q 369 781 368 817 q 417 720 369 754 q 534 649 464 686 q 677 569 604 611 q 811 469 750 526 q 892 353 872 411 q 738 114 869 207 q 404 0 607 21 q 169 90 276 24 q 22 236 61 156 q 127 361 67 322 q 282 371 188 400 q 328 240 297 296 q 415 124 358 185 q 558 192 500 142 q 615 304 615 242 m 286 -65 q 388 -26 336 -26 q 474 -52 440 -26 q 519 -112 507 -78 q 310 -447 504 -299 q 228 -400 246 -447 l 311 -275 l 286 -65 z "},"ș":{"ha":775,"x_min":28,"x_max":715,"o":"m 476 221 q 301 339 476 254 q 170 426 235 372 q 86 539 106 481 q 238 725 135 656 q 475 801 342 794 q 624 744 568 785 q 715 635 681 704 q 660 554 711 579 q 515 543 610 529 q 442 697 496 643 q 346 647 389 681 q 303 588 303 613 q 360 529 303 564 q 488 462 417 494 q 626 375 558 429 q 710 264 693 321 q 571 75 678 144 q 313 0 464 6 q 138 58 213 14 q 28 168 63 103 q 235 283 96 329 q 263 181 244 219 q 321 96 281 143 q 431 148 386 111 q 476 221 476 185 m 199 -65 q 301 -26 249 -26 q 386 -52 353 -26 q 432 -112 419 -78 q 222 -447 417 -299 q 140 -400 158 -447 l 224 -275 l 199 -65 z "},"Ț":{"ha":931,"x_min":106,"x_max":1044,"o":"m 429 871 l 175 840 q 144 1011 106 925 q 554 1033 388 1031 q 993 1022 721 1036 q 974 849 1044 958 l 669 881 l 601 617 q 565 31 571 139 q 401 5 507 -10 q 271 67 294 19 q 428 744 372 388 l 429 871 m 289 -65 q 391 -26 339 -26 q 476 -52 443 -26 q 522 -112 510 -78 q 313 -447 507 -299 q 231 -400 249 -447 l 314 -275 l 289 -65 z "},"ț":{"ha":747,"x_min":69,"x_max":776,"o":"m 100 619 q 69 686 69 653 q 99 763 69 719 l 294 757 l 275 997 q 444 1053 369 1049 q 558 1015 518 1057 l 486 790 l 724 835 q 724 693 776 789 l 463 682 q 435 394 454 575 q 410 151 415 213 q 619 275 518 194 q 686 251 669 274 q 697 174 703 229 q 360 0 542 38 q 136 140 181 18 q 283 651 224 392 l 100 619 m 225 -65 q 327 -26 275 -26 q 413 -52 379 -26 q 458 -112 446 -78 q 249 -447 443 -299 q 167 -400 185 -447 l 250 -275 l 225 -65 z "},"ʼ":{"ha":510,"x_min":219,"x_max":539,"o":"m 310 868 q 219 919 238 869 l 311 1057 l 283 1289 q 369 1329 325 1321 q 446 1324 413 1338 q 539 1236 519 1293 q 310 868 524 1032 z "},"ˆ":{"ha":682,"x_min":119,"x_max":751,"o":"m 119 903 l 388 1150 q 615 1121 525 1175 l 751 889 q 664 849 714 857 q 518 867 590 836 l 436 1036 l 221 847 q 151 860 181 846 q 119 903 122 875 z "},"ˇ":{"ha":665,"x_min":156,"x_max":771,"o":"m 544 875 q 310 867 401 817 l 156 1101 q 202 1140 169 1128 q 269 1143 235 1153 l 400 942 l 574 1140 q 703 1146 651 1161 q 771 1096 756 1131 l 544 875 z "},"ˉ":{"ha":565,"x_min":89,"x_max":654,"o":"m 633 982 q 649 941 654 971 q 611 875 643 911 l 119 860 q 138 964 89 897 l 386 957 l 633 982 z "},"˘":{"ha":546,"x_min":150,"x_max":642,"o":"m 642 1036 q 553 910 621 963 q 399 857 486 857 q 239 913 311 857 q 150 1069 167 969 q 182 1092 161 1083 q 222 1099 203 1101 q 340 974 257 997 q 474 1099 460 994 q 585 1092 542 1110 q 642 1036 629 1074 z "},"˙":{"ha":282,"x_min":139,"x_max":369,"o":"m 369 995 q 369 972 369 995 q 336 915 369 949 q 255 882 303 882 q 173 915 207 882 q 139 995 139 949 q 173 1075 139 1042 q 255 1108 207 1108 q 336 1075 303 1108 q 369 995 369 1042 z "},"˚":{"ha":494,"x_min":104,"x_max":615,"o":"m 376 1111 q 351 1104 363 1111 q 309 1008 322 1064 q 303 924 296 951 q 333 897 311 897 q 356 904 344 897 q 399 999 385 940 q 405 1084 413 1057 q 376 1111 397 1111 m 130 1006 q 143 1047 130 1006 q 232 1131 156 1088 q 407 1174 308 1174 q 560 1133 506 1174 q 588 1009 615 1092 q 483 882 561 926 q 307 838 404 838 q 157 881 210 838 q 130 1006 104 925 z "},"˛":{"ha":592,"x_min":-79,"x_max":465,"o":"m 153 -165 q 268 -219 181 -219 q 422 -162 356 -219 q 453 -182 442 -164 q 465 -228 465 -200 q 193 -343 357 -343 q -3 -289 74 -343 q -65 -147 -79 -235 q 32 -10 -51 -58 q 243 53 115 39 q 322 -12 322 38 q 209 -66 258 -25 q 153 -165 160 -107 z "},"˜":{"ha":699,"x_min":108,"x_max":801,"o":"m 331 1099 q 597 964 500 1061 l 604 964 l 697 1086 q 770 1076 739 1093 q 797 1026 801 1058 q 578 843 714 894 q 325 965 421 869 l 315 963 l 222 847 q 146 861 183 839 q 111 919 108 883 q 209 1021 163 982 q 331 1099 256 1060 z "},"˝":{"ha":574,"x_min":113,"x_max":681,"o":"m 376 856 l 490 1103 q 681 1103 622 1125 l 636 1010 l 492 843 q 376 856 422 836 m 113 856 l 231 1103 q 419 1103 360 1125 l 375 1010 l 240 843 q 113 856 164 836 z "},"π":{"ha":1322,"x_min":44,"x_max":1332,"o":"m 1004 765 l 1175 911 q 1283 871 1242 907 q 1332 779 1325 835 q 1071 632 1239 676 q 990 156 989 389 q 1106 214 1054 176 q 1174 144 1161 196 q 1157 24 1188 93 q 828 -17 1021 -51 q 881 624 758 228 q 678 656 782 633 q 614 340 657 513 q 515 49 571 168 q 410 -12 471 6 q 247 -26 350 -31 q 111 72 151 22 q 44 208 71 121 q 138 299 96 281 q 243 289 181 318 q 269 194 254 231 q 321 114 285 158 q 357 128 351 122 q 504 699 465 429 q 408 733 449 715 l 399 732 l 258 642 q 206 660 226 644 q 186 701 185 676 q 438 910 264 829 q 985 761 733 790 l 1004 765 z "},"ँ":{"ha":0,"x_min":-394,"x_max":254,"o":"m 254 1090 q 101 984 199 1022 q -85 946 4 946 q -272 1028 -175 946 q -394 1225 -368 1111 q -299 1313 -354 1290 q -185 1308 -244 1335 q -81 1044 -185 1129 q 111 1178 49 1069 q 195 1169 157 1193 q 254 1090 233 1146 m 60 1210 q 60 1192 60 1210 q 34 1150 60 1175 q -27 1125 8 1125 q -88 1150 -62 1125 q -114 1210 -114 1175 q -88 1271 -114 1246 q -27 1296 -62 1296 q 34 1270 8 1296 q 60 1210 60 1244 z "},"ं":{"ha":0,"x_min":-194,"x_max":53,"o":"m 53 1116 q 53 1091 53 1116 q 17 1029 53 1065 q -70 993 -19 993 q -158 1029 -121 993 q -194 1116 -194 1065 q -158 1202 -194 1167 q -70 1238 -122 1238 q 17 1202 -18 1238 q 53 1116 53 1167 z "},"ः":{"ha":381,"x_min":50,"x_max":333,"o":"m 278 129 q 278 106 278 129 q 244 50 278 83 q 164 17 211 17 q 83 49 117 17 q 50 128 50 82 q 83 208 50 175 q 165 242 117 242 q 245 208 213 242 q 278 129 278 175 m 333 578 q 333 555 333 578 q 300 499 333 532 q 219 467 267 467 q 139 499 172 467 q 106 578 106 532 q 139 658 106 625 q 219 690 172 690 q 300 658 267 690 q 333 578 333 625 z "},"अ":{"ha":1250,"x_min":-18,"x_max":1467,"o":"m 247 594 l 360 597 q 557 765 510 654 l 549 776 q 322 693 432 776 q 215 766 247 717 q 215 858 183 815 q 582 938 385 953 q 758 769 707 903 q 421 525 700 582 l 424 514 q 629 475 544 511 q 944 635 828 572 l 978 788 l 842 788 l 817 811 q 864 868 838 850 l 996 868 l 1006 910 q 1249 868 1188 926 l 1450 868 l 1467 849 q 1428 788 1457 807 l 1244 788 l 1142 592 l 1108 25 q 978 5 1068 -8 q 818 72 888 18 l 904 458 l 954 517 l 950 528 q 715 419 794 456 q 758 325 758 376 q 669 172 758 246 q 461 58 579 99 q 246 18 343 17 q 64 80 146 28 q -18 181 -18 132 q 75 269 -18 233 q 272 338 143 297 q 467 404 400 379 q 392 422 417 415 l 292 399 q 235 465 253 425 q 221 539 217 504 q 247 594 225 574 m 297 139 q 448 200 368 153 q 554 306 528 247 q 538 339 547 322 q 228 192 314 235 q 254 160 232 176 q 297 139 276 143 z "},"आ":{"ha":1700,"x_min":-18,"x_max":1917,"o":"m 247 594 l 360 597 q 557 765 510 654 l 549 776 q 322 693 432 776 q 215 766 247 717 q 215 858 183 815 q 582 938 385 953 q 758 769 707 903 q 421 525 700 582 l 424 514 q 629 475 544 511 q 944 635 828 572 l 978 788 l 842 788 l 817 811 q 864 868 838 850 l 996 868 l 1006 910 q 1249 868 1188 926 l 1446 868 l 1456 910 q 1626 913 1567 921 q 1713 868 1685 904 l 1900 868 l 1917 849 q 1878 788 1907 807 l 1688 788 l 1592 592 l 1558 25 q 1428 5 1518 -8 q 1268 72 1338 18 l 1428 788 l 1244 788 l 1142 592 l 1108 25 q 978 5 1068 -8 q 818 72 888 18 l 904 458 l 954 517 l 950 528 q 715 419 794 456 q 758 325 758 376 q 669 172 758 246 q 461 58 579 99 q 246 18 343 17 q 64 80 146 28 q -18 181 -18 132 q 75 269 -18 233 q 272 338 143 297 q 467 404 400 379 q 392 422 417 415 l 292 399 q 235 465 253 425 q 221 539 217 504 q 247 594 225 574 m 297 139 q 448 200 368 153 q 554 306 528 247 q 538 339 547 322 q 228 192 314 235 q 254 160 232 176 q 297 139 276 143 z "},"इ":{"ha":753,"x_min":-29,"x_max":968,"o":"m 951 868 l 968 849 q 931 788 958 807 l 611 788 q 669 744 644 768 q 665 644 685 703 q 601 551 644 586 q 300 481 489 506 l 293 458 q 467 415 336 442 q 644 374 597 389 q 650 165 731 315 q 511 76 606 115 q 325 31 417 36 q 232 83 290 43 l 221 72 q 406 -156 321 -18 q 347 -230 403 -199 q 204 -256 290 -261 q -8 122 117 -21 q 79 246 25 203 q 193 275 133 289 q 289 189 238 213 q 400 222 342 193 q 489 286 458 251 l 486 299 q 308 346 439 317 q 111 400 176 375 q 108 524 79 451 q 213 642 138 596 q 521 703 400 661 l 526 714 q 408 788 488 756 l -6 788 l -29 811 q 17 868 -7 851 l 951 868 z "},"ई":{"ha":753,"x_min":-29,"x_max":968,"o":"m 951 868 l 968 849 q 931 788 958 807 l 611 788 q 669 744 644 768 q 665 644 685 703 q 601 551 644 586 q 300 481 489 506 l 293 458 q 467 415 336 442 q 644 374 597 389 q 650 165 731 315 q 511 76 606 115 q 325 31 417 36 q 232 83 290 43 l 221 72 q 406 -156 321 -18 q 347 -230 403 -199 q 204 -256 290 -261 q -8 122 117 -21 q 79 246 25 203 q 193 275 133 289 q 289 189 238 213 q 400 222 342 193 q 489 286 458 251 l 486 299 q 308 346 439 317 q 111 400 176 375 q 108 524 79 451 q 213 642 138 596 q 521 703 400 661 l 526 714 q 408 788 488 756 l -6 788 l -29 811 q 17 868 -7 851 l 951 868 m 500 1172 l 481 1160 q 535 938 488 1067 q 449 899 522 900 q 283 1129 393 1007 q 365 1258 318 1210 q 488 1325 411 1306 q 765 1225 667 1314 q 749 1131 782 1172 q 639 1067 715 1089 q 500 1172 567 1147 z "},"उ":{"ha":815,"x_min":-47,"x_max":1032,"o":"m 735 301 q 608 110 735 206 q 353 15 481 14 q 146 120 238 42 q 6 304 54 199 q 92 402 42 375 q 197 410 143 429 q 262 242 218 315 q 360 132 306 168 q 481 197 428 153 q 542 288 533 242 q 482 354 536 325 q 379 326 418 340 q 304 425 319 364 q 325 517 289 486 q 435 521 376 517 q 590 701 567 574 l 583 713 q 374 624 474 713 q 274 691 306 643 q 269 783 243 739 l 276 788 l -22 788 l -47 811 q 0 868 -26 850 l 1015 868 l 1032 849 q 993 788 1022 807 l 739 788 q 786 711 763 760 q 710 566 772 622 q 538 461 649 510 l 542 451 q 684 398 633 442 q 735 301 735 354 z "},"ऊ":{"ha":1065,"x_min":-46,"x_max":1282,"o":"m 714 301 q 587 110 714 206 q 332 15 460 14 q 125 120 217 42 q -15 304 33 199 q 72 402 21 375 q 176 410 122 429 q 242 241 197 314 q 340 132 286 168 q 460 198 407 154 q 521 288 513 242 q 467 353 518 324 q 358 326 404 342 q 284 425 299 364 q 306 517 269 486 q 415 521 361 517 q 571 701 546 572 l 564 713 q 354 624 454 713 q 254 691 286 643 q 249 783 222 739 l 256 788 l -22 788 l -46 811 q 0 868 -24 851 l 1265 868 l 1282 849 q 1243 788 1272 807 l 724 788 q 767 717 747 760 q 729 652 761 686 q 653 594 697 618 l 657 588 l 778 642 q 1039 382 986 581 q 983 234 1024 299 q 865 96 943 169 q 767 144 806 110 q 733 222 728 178 q 889 386 844 294 q 733 522 836 486 q 538 446 658 510 l 542 436 q 667 390 621 428 q 714 301 714 351 z "},"ऋ":{"ha":1419,"x_min":-29,"x_max":1636,"o":"m 1076 0 q 951 53 1011 0 q 892 171 892 107 q 960 331 892 235 q 1117 492 1029 428 l 968 478 q 885 417 950 465 q 779 340 819 369 l 761 25 q 631 5 721 -8 q 472 72 540 18 l 503 208 l 563 290 l 546 306 q 369 152 485 240 q 147 0 254 64 q 40 76 74 24 q 38 175 7 129 q 515 418 314 251 q 332 551 436 493 l 244 444 q 68 603 54 489 q 168 687 110 653 q 276 721 226 721 q 585 481 394 721 l 599 494 l 574 535 l 631 788 l -6 788 l -29 811 q 17 868 -7 851 l 649 868 l 658 910 q 901 868 840 926 l 1619 868 l 1636 849 q 1597 788 1626 807 l 897 788 l 794 592 l 786 447 q 883 518 843 485 q 849 581 858 543 q 938 660 881 626 q 1035 686 996 693 q 1061 582 1079 647 q 1221 613 1146 589 q 1295 548 1272 593 q 1303 451 1318 503 q 1143 327 1208 407 q 1054 150 1078 247 q 1092 121 1068 131 q 1183 174 1139 133 q 1254 267 1226 215 q 1385 168 1357 285 q 1257 50 1343 100 q 1076 0 1171 0 z "},"ऌ":{"ha":1151,"x_min":-28,"x_max":1339,"o":"m 1078 46 q 953 -49 1033 -8 q 797 -90 874 -90 q 636 -30 719 -90 q 553 97 553 31 q 599 176 553 132 q 701 258 644 221 q 813 350 758 296 q 881 456 867 404 q 847 485 867 476 q 572 249 753 383 q 405 301 474 247 q 350 408 336 356 q 422 467 365 421 q 393 521 415 497 q 342 546 371 544 q 262 481 304 538 q 214 375 219 425 q 281 262 238 308 q 411 176 324 215 q 401 74 440 131 q 263 0 361 18 q 75 163 158 56 q -8 354 -8 271 q 83 531 -7 438 q 293 678 174 624 q 456 671 388 686 q 542 615 514 649 q 589 517 569 581 q 513 414 529 444 l 536 393 q 806 658 685 507 q 903 650 857 663 q 946 788 954 721 l -3 788 l -28 811 q 19 868 -7 850 l 1322 868 l 1339 849 q 1300 788 1329 807 l 1074 788 q 1003 599 1079 703 q 1085 454 1068 542 q 990 308 1053 381 q 876 194 926 236 q 739 86 826 153 q 785 43 751 64 q 953 167 878 76 q 1057 135 1026 172 q 1078 46 1088 99 z "},"ऍ":{"ha":869,"x_min":-31,"x_max":1086,"o":"m 1069 868 l 1086 849 q 1047 788 1076 807 l 875 788 q 758 396 885 574 q 650 426 693 401 q 594 486 607 451 q 667 676 660 582 l 647 788 l 426 788 q 282 275 394 500 l 300 264 l 469 367 q 601 350 539 379 q 697 265 664 321 q 524 -285 696 -26 q 385 -251 435 -283 q 333 -160 336 -218 q 497 114 449 -35 l 499 210 l 478 221 l 282 97 q 119 156 181 110 q 60 271 58 203 q 201 614 168 479 l 185 788 l -6 788 l -31 811 q 17 868 -10 850 l 1069 868 m 665 917 q 490 1000 585 917 q 368 1196 394 1083 q 463 1283 408 1261 q 578 1279 518 1306 q 679 1015 581 1097 q 850 1181 801 1039 q 944 1180 897 1203 q 1014 1103 992 1157 q 867 970 963 1024 q 665 917 771 917 z "},"ए":{"ha":869,"x_min":-31,"x_max":1086,"o":"m 1069 868 l 1086 849 q 1047 788 1076 807 l 875 788 q 758 396 885 574 q 650 426 693 401 q 594 486 607 451 q 667 676 660 582 l 647 788 l 426 788 q 282 275 394 500 l 300 264 l 469 367 q 601 350 539 379 q 697 265 664 321 q 524 -285 696 -26 q 385 -251 435 -283 q 333 -160 336 -218 q 497 114 449 -35 l 499 210 l 478 221 l 282 97 q 119 156 181 110 q 60 271 58 203 q 201 614 168 479 l 185 788 l -6 788 l -31 811 q 17 868 -10 850 l 1069 868 z "},"ऐ":{"ha":869,"x_min":-31,"x_max":1086,"o":"m 1069 868 l 1086 849 q 1047 788 1076 807 l 875 788 q 758 396 885 574 q 650 426 693 401 q 594 486 607 451 q 667 676 660 582 l 647 788 l 426 788 q 282 275 394 500 l 300 264 l 469 367 q 601 350 539 379 q 697 265 664 321 q 524 -285 696 -26 q 385 -251 435 -283 q 333 -160 336 -218 q 497 114 449 -35 l 499 210 l 478 221 l 282 97 q 119 156 181 110 q 60 271 58 203 q 201 614 168 479 l 185 788 l -6 788 l -31 811 q 17 868 -10 850 l 1069 868 m 511 1343 q 679 1215 586 1343 q 822 949 772 1086 q 746 917 799 917 q 574 1131 675 1050 l 456 1050 q 318 1140 361 1089 q 290 1247 275 1192 q 511 1343 406 1343 z "},"ऑ":{"ha":1700,"x_min":-18,"x_max":1942,"o":"m 247 594 l 360 597 q 557 765 510 654 l 549 776 q 322 693 432 776 q 215 766 247 717 q 215 858 183 815 q 582 938 385 953 q 758 769 707 903 q 421 525 700 582 l 424 514 q 629 475 544 511 q 944 635 828 572 l 978 788 l 842 788 l 817 811 q 864 868 838 850 l 996 868 l 1006 910 q 1249 868 1188 926 l 1446 868 l 1456 910 q 1626 913 1567 921 q 1713 868 1685 904 l 1900 868 l 1917 849 q 1878 788 1907 807 l 1688 788 l 1592 592 l 1558 25 q 1428 5 1518 -8 q 1268 72 1338 18 l 1428 788 l 1244 788 l 1142 592 l 1108 25 q 978 5 1068 -8 q 818 72 888 18 l 904 458 l 954 517 l 950 528 q 715 419 794 456 q 758 325 758 376 q 669 172 758 246 q 461 58 579 99 q 246 18 343 17 q 64 80 146 28 q -18 181 -18 132 q 75 269 -18 233 q 272 338 143 297 q 467 404 400 379 q 392 422 417 415 l 292 399 q 235 465 253 425 q 221 539 217 504 q 247 594 225 574 m 297 139 q 448 200 368 153 q 554 306 528 247 q 538 339 547 322 q 228 192 314 235 q 254 160 232 176 q 297 139 276 143 m 1593 946 q 1417 1029 1511 946 q 1296 1225 1322 1113 q 1390 1313 1335 1290 q 1506 1308 1446 1335 q 1607 1044 1508 1125 q 1776 1210 1731 1068 q 1871 1209 1824 1232 q 1942 1132 1918 1186 q 1793 999 1889 1053 q 1593 946 1697 946 z "},"ओ":{"ha":1700,"x_min":-18,"x_max":1917,"o":"m 247 594 l 360 597 q 557 765 510 654 l 549 776 q 322 693 432 776 q 215 766 247 717 q 215 858 183 815 q 582 938 385 953 q 758 769 707 903 q 421 525 700 582 l 424 514 q 629 475 544 511 q 944 635 828 572 l 978 788 l 842 788 l 817 811 q 864 868 838 850 l 996 868 l 1006 910 q 1249 868 1188 926 l 1446 868 l 1456 910 q 1626 913 1567 921 q 1713 868 1685 904 l 1900 868 l 1917 849 q 1878 788 1907 807 l 1688 788 l 1592 592 l 1558 25 q 1428 5 1518 -8 q 1268 72 1338 18 l 1428 788 l 1244 788 l 1142 592 l 1108 25 q 978 5 1068 -8 q 818 72 888 18 l 904 458 l 954 517 l 950 528 q 715 419 794 456 q 758 325 758 376 q 669 172 758 246 q 461 58 579 99 q 246 18 343 17 q 64 80 146 28 q -18 181 -18 132 q 75 269 -18 233 q 272 338 143 297 q 467 404 400 379 q 392 422 417 415 l 292 399 q 235 465 253 425 q 221 539 217 504 q 247 594 225 574 m 297 139 q 448 200 368 153 q 554 306 528 247 q 538 339 547 322 q 228 192 314 235 q 254 160 232 176 q 297 139 276 143 m 1319 1372 q 1434 1306 1369 1372 q 1550 1151 1499 1240 q 1632 978 1601 1063 q 1554 946 1608 946 q 1383 1160 1486 1078 l 1265 1079 q 1128 1169 1171 1118 q 1100 1276 1085 1221 q 1319 1372 1213 1372 z "},"औ":{"ha":1700,"x_min":-18,"x_max":1917,"o":"m 247 594 l 360 597 q 557 765 510 654 l 549 776 q 322 693 432 776 q 215 766 247 717 q 215 858 183 815 q 582 938 385 953 q 758 769 707 903 q 421 525 700 582 l 424 514 q 629 475 544 511 q 944 635 828 572 l 978 788 l 842 788 l 817 811 q 864 868 838 850 l 996 868 l 1006 910 q 1249 868 1188 926 l 1446 868 l 1456 910 q 1626 913 1567 921 q 1713 868 1685 904 l 1900 868 l 1917 849 q 1878 788 1907 807 l 1688 788 l 1592 592 l 1558 25 q 1428 5 1518 -8 q 1268 72 1338 18 l 1428 788 l 1244 788 l 1142 592 l 1108 25 q 978 5 1068 -8 q 818 72 888 18 l 904 458 l 954 517 l 950 528 q 715 419 794 456 q 758 325 758 376 q 669 172 758 246 q 461 58 579 99 q 246 18 343 17 q 64 80 146 28 q -18 181 -18 132 q 75 269 -18 233 q 272 338 143 297 q 467 404 400 379 q 392 422 417 415 l 292 399 q 235 465 253 425 q 221 539 217 504 q 247 594 225 574 m 297 139 q 448 200 368 153 q 554 306 528 247 q 538 339 547 322 q 228 192 314 235 q 254 160 232 176 q 297 139 276 143 m 1293 1372 q 1478 1263 1371 1372 q 1647 1000 1585 1153 q 1619 964 1643 981 q 1557 946 1594 947 q 1426 1006 1485 993 l 1383 956 q 1285 980 1329 957 q 1231 1042 1240 1003 q 1369 1139 1276 1119 q 1553 1029 1450 1118 l 1561 1038 q 1368 1221 1494 1147 l 1264 1125 q 1144 1194 1182 1154 q 1119 1292 1107 1233 q 1195 1347 1144 1322 q 1293 1372 1246 1372 z "},"क":{"ha":1222,"x_min":-50,"x_max":1439,"o":"m 408 721 q 556 588 450 721 l 563 593 l 594 788 l -25 788 l -50 811 q -3 868 -29 850 l 608 868 l 615 910 q 858 868 797 926 l 1422 868 l 1439 849 q 1400 788 1429 807 l 853 788 q 704 538 818 726 l 719 525 q 818 619 754 557 q 903 701 882 682 q 1124 674 1035 728 q 1214 515 1214 619 q 1117 300 1214 392 q 1015 216 1065 251 q 883 131 965 181 q 822 211 803 163 q 959 338 921 281 q 997 450 997 396 q 901 561 997 550 q 742 433 811 493 l 718 25 q 587 5 678 -8 q 428 72 496 18 l 463 213 l 519 306 l 506 322 q 318 128 389 206 q 105 186 189 129 q 21 347 21 243 q 143 601 21 481 q 408 721 265 721 m 426 589 q 315 496 364 567 q 265 354 265 425 q 314 258 265 283 q 524 443 415 342 l 532 479 q 426 589 468 567 z "},"ख":{"ha":1351,"x_min":-29,"x_max":1567,"o":"m 447 704 q 294 633 368 704 q 191 699 225 656 q 178 782 157 742 l 183 788 l -6 788 l -29 811 q 17 868 -7 851 l 1093 868 l 1100 910 q 1343 868 1285 926 l 1550 868 l 1567 849 q 1528 788 1557 807 l 1339 788 l 1238 592 l 1203 25 q 1072 5 1163 -8 q 914 72 982 18 l 949 219 l 986 267 l 972 283 q 724 134 883 210 q 442 43 564 58 q 201 148 319 65 q 17 333 82 231 q 71 453 24 404 q 182 503 118 501 l 224 453 q 416 536 342 476 q 493 671 490 596 q 447 704 478 704 m 946 594 q 855 519 893 578 q 817 418 817 460 q 875 339 817 339 q 950 376 911 339 q 1010 463 989 414 l 1015 490 q 946 594 996 571 m 679 694 q 554 488 679 579 q 269 375 429 396 l 265 364 q 493 199 379 233 q 760 271 575 204 l 754 278 q 654 317 688 283 q 621 400 621 350 q 717 610 621 500 q 924 719 813 719 q 1042 594 1001 719 l 1050 599 l 1081 788 l 619 788 q 679 694 679 738 z "},"ग":{"ha":1040,"x_min":-29,"x_max":1253,"o":"m 1236 868 l 1253 849 q 1214 788 1243 807 l 1031 788 l 928 592 l 894 25 q 764 5 854 -8 q 604 72 674 18 l 764 788 l 571 788 q 533 482 565 644 q 456 218 500 319 q 219 128 386 136 q -8 304 57 167 q 54 433 1 394 q 349 539 211 482 q 356 669 357 608 l 317 788 l -6 788 l -29 811 q 17 868 -12 849 l 782 868 l 792 910 q 1035 868 974 926 l 1236 868 m 264 272 l 276 279 q 328 428 310 351 q 161 358 256 397 q 264 272 196 306 z "},"घ":{"ha":1051,"x_min":-29,"x_max":1268,"o":"m 1251 868 l 1268 849 q 1229 788 1258 807 l 1044 788 l 942 592 l 908 25 q 778 5 868 -8 q 619 72 688 18 l 664 269 l 724 344 l 713 357 q 507 203 622 272 q 314 122 392 133 q 167 198 226 142 q 107 315 107 254 q 168 378 117 349 q 290 441 219 408 q 394 500 361 474 l 386 510 q 204 458 282 471 q 90 532 138 482 q 57 639 43 582 q 313 788 131 717 l -4 788 l -29 811 q 19 868 -8 850 l 796 868 l 806 910 q 1049 868 990 926 l 1251 868 m 719 521 l 778 788 l 575 788 q 275 610 363 693 l 288 596 q 449 650 314 603 q 558 583 518 628 q 586 479 597 538 q 344 290 444 388 l 357 272 q 557 372 461 304 q 719 521 653 439 z "},"ङ":{"ha":803,"x_min":-29,"x_max":965,"o":"m 949 868 l 965 849 q 926 788 956 807 l 603 788 q 661 744 636 768 q 656 647 676 704 q 593 551 636 589 q 289 475 497 511 l 283 454 q 460 410 335 436 q 633 369 585 383 q 674 277 675 338 q 625 138 672 217 q 390 50 550 89 q 82 7 229 11 q 11 116 22 57 q 39 207 0 175 q 286 221 160 201 q 483 281 413 240 l 481 293 q 297 341 426 311 q 103 396 168 371 q 99 520 71 449 q 203 636 126 592 q 515 704 417 665 l 521 717 q 396 788 493 746 l -6 788 l -29 811 q 17 868 -7 851 l 949 868 m 642 488 q 642 507 642 488 q 669 553 642 526 q 737 581 697 581 q 803 553 776 581 q 831 488 831 526 q 803 421 831 449 q 737 393 776 393 q 669 421 697 393 q 642 488 642 449 z "},"च":{"ha":1090,"x_min":-49,"x_max":1307,"o":"m 117 338 q 162 406 117 378 q 301 470 207 435 q 440 529 396 506 l 432 540 q 89 492 329 524 q 31 561 49 519 q 19 638 13 603 q 50 690 25 672 q 532 678 264 661 q 610 594 588 649 q 608 489 633 539 q 383 357 468 421 q 406 331 389 344 q 438 313 422 317 q 763 536 617 364 l 818 788 l -25 788 l -49 811 q -3 868 -26 851 l 836 868 l 846 910 q 1089 868 1028 926 l 1290 868 l 1307 849 q 1268 788 1297 807 l 1085 788 l 982 592 l 949 25 q 818 5 908 -8 q 658 72 728 18 l 704 275 l 760 369 l 743 383 q 567 235 664 301 q 379 139 471 168 q 201 213 285 150 q 117 338 117 275 z "},"छ":{"ha":1088,"x_min":-28,"x_max":1264,"o":"m 1247 868 l 1264 849 q 1225 788 1254 807 l 972 788 q 938 663 971 739 q 1031 525 1032 590 q 872 311 1029 444 q 935 115 944 188 q 606 -215 914 -42 q 492 -125 519 -175 q 493 -29 464 -75 q 722 96 660 43 q 769 149 753 121 q 747 217 768 176 q 525 92 639 143 q 322 28 411 40 q 178 103 236 51 q 119 221 119 154 q 364 457 150 329 l 354 471 q 179 417 278 440 q 66 511 107 450 q 49 629 25 572 q 310 788 153 721 l -1 788 l -28 811 q 21 868 -8 849 l 1247 868 m 806 425 q 875 519 860 479 q 840 559 865 540 q 794 583 815 578 q 768 556 776 579 q 806 425 763 507 m 343 203 l 356 190 q 683 328 515 219 q 616 478 638 410 q 610 613 594 546 q 695 694 642 658 q 801 735 749 729 q 840 721 811 733 q 847 788 850 761 l 589 788 q 254 572 414 719 l 265 557 q 415 599 279 560 q 526 513 493 564 q 540 400 560 461 q 343 203 446 333 z "},"ज":{"ha":1125,"x_min":-31,"x_max":1338,"o":"m 1321 868 l 1338 849 q 1300 788 1328 807 l 1115 788 l 1013 592 l 979 25 q 849 5 939 -8 q 690 72 758 18 l 760 376 l 815 464 l 807 474 q 649 413 732 419 l 610 415 l 603 407 l 617 363 q 496 194 611 268 q 278 126 381 119 q 113 238 183 151 q 40 431 42 324 q 103 581 53 501 q 228 708 154 660 q 349 676 304 710 q 390 586 393 642 q 260 402 269 496 q 303 260 251 308 q 406 314 357 269 q 458 399 454 358 q 408 438 447 418 q 472 559 428 517 q 575 596 515 601 q 650 528 619 533 q 735 554 690 529 q 811 614 781 579 l 850 788 l -7 788 l -31 811 q 15 868 -14 849 l 867 868 l 876 910 q 1119 868 1058 926 l 1321 868 z "},"झ":{"ha":1218,"x_min":-29,"x_max":1433,"o":"m 642 376 q 694 283 694 344 q 624 125 694 222 q 308 33 490 38 q 229 83 258 63 l 219 72 q 410 -156 325 -25 q 352 -230 408 -199 q 208 -256 296 -261 q -10 118 126 -43 q 78 243 22 197 q 196 274 135 289 q 279 189 235 219 q 402 222 342 194 q 494 286 463 249 l 492 297 q 313 344 446 315 q 115 400 181 372 q 114 524 85 451 q 218 642 143 596 q 525 703 401 661 l 531 714 q 407 788 501 744 l -6 788 l -29 811 q 17 868 -7 851 l 963 868 l 972 910 q 1215 868 1154 926 l 1417 868 l 1433 849 q 1394 788 1424 807 l 1211 788 l 1108 592 l 1075 25 q 944 5 1035 -8 q 785 72 854 18 l 867 433 l 925 504 l 914 518 q 642 376 813 451 m 911 635 l 946 788 l 617 788 q 674 744 650 765 q 669 644 689 703 q 606 551 649 586 q 306 479 486 506 l 297 457 q 504 410 375 425 q 911 635 758 511 z "},"ञ":{"ha":1051,"x_min":-29,"x_max":1268,"o":"m 1251 868 l 1268 849 q 1229 788 1258 807 l 1046 788 l 943 592 l 910 25 q 779 5 869 -8 q 619 72 689 18 l 688 367 l 753 435 l 743 454 q 549 372 651 404 q 404 199 506 274 q 207 124 303 125 q 76 194 136 135 q -3 336 15 254 q 83 399 33 381 q 168 396 132 417 q 238 274 186 317 q 368 446 346 338 q 307 592 371 539 q 178 510 239 569 q 85 568 108 538 q 71 643 61 599 q 181 712 128 690 q 316 732 233 733 q 482 652 399 731 q 571 482 565 574 q 733 582 669 526 l 779 788 l -6 788 l -29 811 q 17 868 -7 851 l 797 868 l 807 910 q 1050 868 989 926 l 1251 868 z "},"ट":{"ha":794,"x_min":-26,"x_max":1003,"o":"m 17 339 q 151 572 17 465 q 500 682 357 610 l 504 694 q 375 788 461 743 l -1 788 l -26 811 q 21 868 -6 850 l 986 868 l 1003 849 q 964 788 993 807 l 561 788 q 646 721 603 760 q 640 624 660 679 q 579 533 619 568 q 289 426 458 469 q 231 325 231 376 q 363 160 233 215 q 494 242 432 186 q 594 363 556 299 q 710 329 668 369 q 750 200 751 289 q 336 57 569 58 q 107 165 197 82 q 17 339 17 249 z "},"ठ":{"ha":854,"x_min":-28,"x_max":1053,"o":"m 17 342 q 163 581 17 465 q 503 685 411 631 l 508 699 q 388 788 463 744 l -3 788 l -28 811 q 19 868 -7 850 l 1036 868 l 1053 849 q 1014 788 1043 807 l 569 788 q 650 724 614 758 q 649 644 661 689 q 607 561 636 599 q 828 432 756 504 q 701 166 836 283 q 354 47 565 49 q 112 157 207 72 q 17 342 17 242 m 371 143 q 554 247 483 172 q 631 406 625 321 q 517 501 601 453 q 380 443 471 479 q 258 392 289 407 q 235 293 225 350 q 371 143 250 197 z "},"ड":{"ha":751,"x_min":-29,"x_max":965,"o":"m 949 868 l 965 849 q 926 788 956 807 l 603 788 q 661 744 636 768 q 656 647 676 704 q 593 551 636 589 q 289 475 497 511 l 283 454 q 460 410 335 436 q 633 369 585 383 q 674 277 675 338 q 625 138 672 217 q 390 50 550 89 q 82 7 229 11 q 11 116 22 57 q 39 207 0 175 q 286 221 160 201 q 483 281 413 240 l 481 293 q 297 341 426 311 q 103 396 168 371 q 99 520 71 449 q 203 636 126 592 q 515 704 417 665 l 521 717 q 396 788 493 746 l -6 788 l -29 811 q 17 868 -7 851 l 949 868 z "},"ढ":{"ha":911,"x_min":-22,"x_max":1119,"o":"m 509 470 q 456 445 509 470 q 334 379 403 419 q 265 305 265 339 q 299 226 265 271 q 581 425 514 375 q 774 375 694 428 q 854 266 854 322 q 778 150 854 210 q 606 54 703 90 q 439 18 508 18 q 190 103 306 25 q 28 296 74 181 q 100 467 28 410 q 294 552 121 476 q 533 668 467 628 l 538 681 q 397 788 500 731 l 3 788 l -22 811 q 24 868 -1 850 l 1103 868 l 1119 849 q 1082 788 1110 807 l 601 788 q 714 718 668 753 q 663 554 744 643 q 509 470 615 521 m 642 250 q 567 290 614 278 q 365 165 538 274 q 440 124 399 140 q 569 170 514 135 q 642 250 625 206 z "},"ण":{"ha":1136,"x_min":-31,"x_max":1350,"o":"m 317 188 q 142 291 226 188 q 57 486 57 394 q 99 628 57 547 q 221 788 142 710 l -6 788 l -31 811 q 17 868 -10 850 l 879 868 l 889 910 q 1132 868 1071 926 l 1333 868 l 1350 849 q 1313 788 1340 807 l 1128 788 l 1025 592 l 992 25 q 861 5 951 -8 q 701 72 771 18 l 861 788 l 622 788 q 693 525 697 647 q 556 290 682 392 q 317 188 431 188 m 435 788 l 406 788 q 263 493 293 624 q 339 335 275 376 q 494 529 461 383 q 435 788 483 674 z "},"त":{"ha":904,"x_min":-29,"x_max":1119,"o":"m 1103 868 l 1119 849 q 1082 788 1110 807 l 897 788 l 794 592 l 761 25 q 631 5 721 -8 q 472 72 540 18 l 551 425 l 597 486 l 588 501 q 263 361 443 411 q 239 307 243 335 q 369 104 268 219 q 272 -1 376 38 q 17 300 65 146 q 65 432 38 383 q 139 500 92 481 q 377 534 257 503 q 593 622 497 565 l 631 788 l -6 788 l -29 811 q 17 868 -7 851 l 649 868 l 658 910 q 901 868 840 926 l 1103 868 z "},"थ":{"ha":1033,"x_min":49,"x_max":1249,"o":"m 333 156 q 145 226 242 156 q 49 376 49 296 q 161 475 49 419 q 365 600 303 544 l 244 621 q 115 792 139 693 q 215 946 131 874 q 392 1026 300 1018 q 547 932 476 1015 q 618 782 617 849 q 567 631 618 714 q 510 563 547 601 q 449 506 472 525 q 382 450 426 486 q 325 403 338 414 q 349 346 318 372 q 414 318 381 319 q 703 529 569 364 l 760 788 l 697 788 l 672 811 q 721 868 693 850 l 778 868 l 788 910 q 1031 868 969 926 l 1232 868 l 1249 849 q 1211 788 1239 807 l 1026 788 l 924 592 l 890 25 q 760 5 850 -8 q 601 72 669 18 l 644 265 l 707 353 l 690 371 q 498 220 604 285 q 333 156 392 156 m 447 751 q 383 872 447 839 q 316 833 351 865 q 281 769 281 800 q 317 700 281 739 l 422 665 q 447 751 447 706 z "},"द":{"ha":811,"x_min":-29,"x_max":1007,"o":"m 143 500 q 264 551 201 528 q 504 683 431 614 l 510 696 q 386 788 469 743 l -4 788 l -29 811 q 18 868 -8 850 l 990 868 l 1007 849 q 969 788 997 807 l 575 788 q 661 724 626 756 q 660 628 679 682 q 594 536 640 575 q 423 434 553 506 q 243 329 293 363 q 283 248 247 288 q 367 193 319 208 q 453 284 393 219 q 542 375 514 349 q 660 368 594 394 q 764 271 726 342 q 611 -253 679 56 q 463 -229 524 -258 q 393 -151 403 -200 q 561 221 497 107 l 544 231 q 461 129 515 200 q 389 36 407 58 q 122 135 228 50 q 15 330 15 221 q 143 500 15 439 z "},"ध":{"ha":1051,"x_min":22,"x_max":1268,"o":"m 208 647 q 204 628 204 635 q 205 617 204 622 q 208 606 206 611 q 211 598 210 601 q 215 590 213 594 q 220 583 218 585 q 226 576 222 581 q 231 570 229 572 q 238 564 233 568 q 244 558 243 560 q 403 618 338 583 q 529 447 547 572 q 322 279 426 381 l 335 261 q 548 369 436 290 q 721 526 660 447 l 779 788 l 692 788 l 667 811 q 715 868 688 850 l 797 868 l 807 910 q 1050 868 989 926 l 1251 868 l 1268 849 q 1229 788 1258 807 l 1046 788 l 943 592 l 910 25 q 778 5 869 -8 q 619 72 688 18 l 664 269 l 725 346 l 710 363 q 495 199 617 274 q 292 113 374 125 q 144 187 204 131 q 83 306 83 243 q 144 367 94 339 q 265 428 193 396 q 375 492 336 461 l 365 501 q 186 447 271 461 q 24 638 22 524 q 195 875 65 750 q 474 1028 325 1000 q 575 982 531 1029 q 625 850 619 935 q 490 710 594 772 q 276 622 385 647 l 208 647 m 238 711 q 391 769 329 725 q 471 860 453 813 q 438 899 467 894 q 328 817 385 869 q 238 711 272 765 z "},"न":{"ha":992,"x_min":-31,"x_max":1208,"o":"m 1192 868 l 1208 849 q 1169 788 1199 807 l -6 788 l -31 811 q 17 868 -10 850 l 1192 868 m 676 603 l 663 610 q 458 507 526 540 q 461 225 500 375 q 385 163 444 188 q 267 139 325 139 q 25 276 99 174 q 79 439 10 392 q 399 574 219 492 q 700 726 578 656 q 875 718 815 736 q 964 651 935 700 l 860 494 l 844 25 q 714 5 804 -8 q 554 72 624 18 l 676 603 m 257 264 l 272 272 q 267 413 292 338 q 160 358 204 382 q 257 264 194 293 z "},"प":{"ha":926,"x_min":-31,"x_max":1142,"o":"m 1125 868 l 1142 849 q 1104 788 1132 807 l 919 788 l 817 592 l 783 25 q 653 5 743 -8 q 494 72 563 18 l 563 372 l 606 447 l 594 458 q 294 190 413 290 q 125 232 200 193 q 38 338 50 271 q 165 788 89 581 l -6 788 l -31 811 q 17 868 -10 850 l 671 868 l 681 910 q 924 868 863 926 l 1125 868 m 608 581 l 654 788 l 440 788 l 347 646 q 268 343 288 458 l 282 336 q 608 581 506 485 z "},"फ":{"ha":1332,"x_min":-29,"x_max":1539,"o":"m 1325 535 q 1293 404 1325 476 q 1251 348 1282 379 q 1204 300 1221 317 q 1142 253 1188 283 q 1037 186 1088 217 q 978 150 986 156 l 914 228 q 1065 356 1021 300 q 1108 479 1108 413 q 1013 585 1108 565 q 797 419 922 519 l 775 25 q 644 5 735 -8 q 485 72 553 18 l 550 363 l 594 436 l 583 447 q 297 192 399 278 q 127 233 200 196 q 46 332 54 271 q 175 788 92 568 l -6 788 l -29 811 q 17 868 -7 851 l 663 868 l 672 910 q 915 868 854 926 l 1522 868 l 1539 849 q 1500 788 1529 807 l 911 788 l 808 592 l 761 521 l 776 506 q 1015 726 879 597 q 1238 694 1150 750 q 1325 535 1325 638 m 597 569 l 646 788 l 444 788 l 353 646 q 269 344 294 479 l 283 338 q 597 569 489 471 z "},"ब":{"ha":904,"x_min":-29,"x_max":1121,"o":"m 565 343 l 340 115 q 122 178 207 118 q 38 347 38 239 q 161 606 38 486 q 433 725 285 725 q 551 643 493 706 q 599 588 569 624 l 606 592 l 638 788 l -6 788 l -29 811 q 17 868 -7 851 l 651 868 l 658 910 q 901 868 840 926 l 1104 868 l 1121 849 q 1082 788 1111 807 l 897 788 l 796 592 l 761 25 q 631 5 721 -8 q 471 72 540 18 l 508 228 l 579 328 l 565 343 m 322 485 q 281 350 281 419 q 335 247 281 281 q 375 281 349 258 q 464 351 436 328 q 322 485 372 426 m 519 400 l 568 444 l 576 479 q 456 599 513 574 q 374 547 413 586 q 519 400 439 469 z "},"भ":{"ha":1096,"x_min":60,"x_max":1296,"o":"m 1279 868 l 1296 849 q 1257 788 1286 807 l 756 788 l 732 811 q 778 868 749 849 l 1279 868 m 447 638 l 286 571 q 167 632 217 592 q 96 719 117 672 q 147 828 107 800 q 321 919 224 860 q 468 1026 418 978 q 654 940 604 1029 q 619 628 651 808 q 806 726 718 676 q 981 718 921 736 q 1071 651 1040 700 l 965 494 l 950 25 q 819 5 910 -8 q 661 72 729 18 l 782 603 l 768 611 q 597 522 711 581 q 506 208 557 342 q 397 150 465 169 q 271 138 328 131 q 149 197 207 153 q 60 297 90 242 q 77 371 61 335 q 125 419 93 407 q 406 529 264 467 l 418 583 l 454 628 l 447 638 m 454 844 l 439 851 q 257 732 331 776 q 279 697 263 717 q 310 674 296 678 l 438 706 q 454 844 451 801 m 315 271 l 331 279 q 375 415 361 365 q 222 346 275 368 q 315 271 254 300 z "},"म":{"ha":1044,"x_min":-29,"x_max":1260,"o":"m 1243 868 l 1260 849 q 1221 788 1250 807 l 569 788 q 554 626 565 719 q 751 726 683 688 q 926 718 867 736 q 1015 651 986 700 l 911 494 l 896 25 q 765 5 856 -8 q 606 72 674 18 l 728 603 l 714 611 q 539 525 647 576 q 456 214 504 326 q 351 152 421 172 q 217 138 282 132 q 94 197 153 153 q 4 296 36 240 q 67 438 7 404 q 346 539 193 478 q 353 658 354 601 l 314 788 l -6 788 l -29 811 q 17 868 -7 851 l 1243 868 m 261 271 l 276 279 q 326 429 304 343 q 157 360 213 382 q 261 271 193 297 z "},"य":{"ha":1031,"x_min":-29,"x_max":1247,"o":"m 438 676 q 249 643 369 719 q 140 702 175 661 q 125 788 106 743 l -4 788 l -29 811 q 19 868 -8 850 l 775 868 l 785 910 q 1029 868 968 926 l 1231 868 l 1247 849 q 1208 788 1238 807 l 1024 788 l 921 592 l 888 25 q 757 5 847 -8 q 599 72 667 18 l 643 267 l 706 356 l 689 374 q 488 213 601 285 q 318 142 375 142 q 142 215 239 142 q 44 357 44 288 q 233 494 44 414 q 368 574 306 525 q 438 676 431 624 m 593 788 q 632 709 632 749 q 594 619 632 669 q 515 536 556 569 q 407 453 474 503 q 322 389 340 403 q 347 331 315 358 q 410 303 378 304 q 700 525 581 372 l 758 788 l 593 788 z "},"र":{"ha":711,"x_min":-29,"x_max":928,"o":"m 726 694 q 652 539 726 615 q 470 418 578 463 q 263 374 363 374 l 257 363 q 586 210 449 247 q 594 96 625 165 q 490 -3 563 26 q 226 136 364 35 q 18 338 89 238 q 68 456 25 410 q 175 503 111 501 q 229 451 210 468 q 438 537 346 471 q 538 674 531 603 q 478 708 519 708 q 288 633 390 708 q 183 699 217 656 q 171 782 150 742 l 179 788 l -6 788 l -29 811 q 17 868 -7 851 l 911 868 l 928 849 q 889 788 918 807 l 661 788 q 726 694 726 736 z "},"ऱ":{"ha":711,"x_min":-79,"x_max":928,"o":"m 726 694 q 652 539 726 615 q 470 418 578 463 q 263 374 363 374 l 257 363 q 586 210 449 247 q 594 96 625 165 q 490 -3 563 26 q 226 136 364 35 q 18 338 89 238 q 68 456 25 410 q 175 503 111 501 q 229 451 210 468 q 438 537 346 471 q 538 674 531 603 q 478 708 519 708 q 288 633 390 708 q 183 699 217 656 q 171 782 150 742 l 179 788 l -6 788 l -29 811 q 17 868 -7 851 l 911 868 l 928 849 q 889 788 918 807 l 661 788 q 726 694 726 736 m -79 74 q -79 94 -79 74 q -50 143 -79 114 q 21 172 -21 172 q 91 143 63 172 q 119 74 119 114 q 91 4 119 33 q 21 -25 63 -25 q -50 4 -21 -25 q -79 74 -79 33 z "},"ल":{"ha":1133,"x_min":-29,"x_max":1349,"o":"m 306 0 q 113 167 196 60 q 31 358 31 275 q 122 535 31 440 q 328 678 214 631 q 490 671 426 686 q 625 497 614 629 q 551 414 578 443 l 563 406 q 826 633 692 489 l 861 788 l -6 788 l -29 811 q 17 868 -7 851 l 878 868 l 888 910 q 1131 868 1069 926 l 1332 868 l 1349 849 q 1311 788 1339 807 l 1126 788 l 1024 592 l 990 25 q 860 5 950 -8 q 701 72 769 18 l 771 385 l 821 467 l 811 478 q 567 263 703 374 q 427 317 475 275 q 388 408 379 360 q 458 467 428 438 q 431 519 451 497 q 379 546 410 542 q 300 484 343 540 q 251 376 257 428 q 322 260 276 308 q 451 176 367 213 q 441 73 481 128 q 306 0 401 18 z "},"ळ":{"ha":1275,"x_min":-29,"x_max":1490,"o":"m 32 282 q 88 413 32 340 q 245 536 144 485 q 451 581 346 588 q 613 349 551 450 q 697 439 639 375 q 783 530 754 503 q 858 588 811 557 q 949 626 904 618 q 976 788 986 719 l -6 788 l -29 811 q 17 868 -12 849 l 1474 868 l 1490 849 q 1453 788 1481 807 l 1108 788 q 1063 601 1113 697 q 1167 489 1122 560 q 1089 131 1281 308 q 818 0 969 21 q 631 153 718 50 q 317 0 468 19 q 116 90 200 6 q 32 282 32 174 m 251 261 q 317 136 249 179 q 540 279 431 185 q 407 432 458 379 q 303 356 344 403 q 251 261 261 308 m 832 135 q 940 221 896 163 q 992 344 985 279 q 954 458 999 410 q 820 338 901 421 q 710 225 739 254 q 832 135 775 156 z "},"व":{"ha":888,"x_min":-31,"x_max":1103,"o":"m 38 350 q 160 603 38 486 q 431 721 282 721 q 582 586 476 722 l 590 593 l 621 788 l -6 788 l -31 811 q 17 868 -10 850 l 633 868 l 640 910 q 885 868 824 926 l 1086 868 l 1103 849 q 1064 788 1093 807 l 879 788 l 776 592 l 743 25 q 613 5 703 -8 q 454 72 522 18 l 490 228 l 553 315 l 540 332 q 396 188 431 222 q 336 128 361 154 q 120 189 203 129 q 38 350 38 249 m 449 589 q 329 500 376 565 q 282 360 282 435 q 336 258 282 286 q 549 444 436 343 l 557 479 q 449 589 493 568 z "},"श":{"ha":1150,"x_min":22,"x_max":1367,"o":"m 1350 868 l 1367 849 q 1328 788 1357 807 l 1143 788 l 1040 592 l 1007 25 q 876 5 967 -8 q 718 72 786 18 l 876 788 l 772 788 l 747 811 q 794 868 768 850 l 894 868 l 904 910 q 1149 868 1088 926 l 1350 868 m 471 1026 q 638 913 567 1003 q 710 738 710 822 q 644 569 710 654 q 475 430 579 485 q 267 374 371 375 l 261 363 q 356 300 322 321 q 449 252 389 279 q 572 210 510 225 q 579 96 611 165 q 476 -3 547 26 q 220 142 347 43 q 22 338 93 242 q 72 455 29 408 q 178 503 115 501 q 239 451 215 471 q 464 589 379 476 l 288 618 q 163 792 183 692 q 274 945 181 872 q 471 1026 367 1018 m 515 732 q 436 872 515 836 q 376 832 404 865 q 347 766 347 799 q 389 688 347 733 l 500 654 q 515 732 515 693 z "},"ष":{"ha":926,"x_min":-31,"x_max":1142,"o":"m 1125 868 l 1142 849 q 1104 788 1132 807 l 919 788 l 817 592 l 783 25 q 653 5 743 -8 q 494 72 563 18 l 563 372 l 606 447 l 594 458 q 294 190 413 290 q 125 232 200 193 q 38 338 50 271 q 165 788 89 581 l -6 788 l -31 811 q 17 868 -10 850 l 671 868 l 681 910 q 924 868 863 926 l 1125 868 m 268 343 l 282 336 q 503 493 425 432 q 349 649 404 572 l 347 646 q 268 343 288 458 m 608 581 l 654 788 l 440 788 l 394 718 q 561 539 464 629 q 608 581 578 553 z "},"स":{"ha":1213,"x_min":-29,"x_max":1429,"o":"m 894 464 q 726 383 818 417 q 578 349 633 349 q 414 399 522 349 q 263 374 336 374 l 257 363 q 586 210 449 247 q 593 96 625 165 q 490 -3 561 26 q 226 136 364 35 q 18 338 89 238 q 68 455 25 408 q 174 503 111 501 q 235 451 199 478 q 440 538 350 474 q 538 671 531 603 q 479 708 517 708 q 286 633 390 708 q 183 699 217 656 q 171 782 150 742 l 179 788 l -6 788 l -29 811 q 17 868 -7 851 l 958 868 l 968 910 q 1211 868 1150 926 l 1413 868 l 1429 849 q 1390 788 1419 807 l 1207 788 l 1104 592 l 1071 25 q 940 5 1031 -8 q 781 72 850 18 l 847 369 l 908 450 l 894 464 m 726 694 q 677 568 726 631 q 547 458 628 506 q 592 454 569 454 q 745 503 642 454 q 901 610 849 553 l 940 788 l 661 788 q 726 694 726 736 z "},"ह":{"ha":774,"x_min":6,"x_max":974,"o":"m 582 342 q 514 175 582 251 q 403 182 451 161 q 353 233 354 203 q 406 279 385 256 q 372 308 400 303 q 268 258 321 299 q 193 164 215 218 q 338 6 196 65 q 532 119 454 36 q 613 83 581 115 q 646 0 644 50 q 317 -119 524 -115 q 101 -16 196 -99 q 6 157 6 67 q 100 317 6 247 q 321 393 194 386 l 324 404 q 190 482 244 431 q 180 566 171 522 q 214 636 189 610 q 561 710 424 651 l 568 722 q 469 788 528 760 l 42 788 l 18 811 q 64 868 40 851 l 957 868 l 974 849 q 935 788 964 807 l 656 788 q 703 747 685 769 q 697 647 717 704 q 632 554 676 590 q 361 488 506 501 l 358 478 q 524 419 465 450 q 582 342 582 389 z "},"़":{"ha":0,"x_min":6,"x_max":213,"o":"m 213 94 q 213 73 213 94 q 183 22 213 51 q 110 -8 153 -8 q 36 22 67 -8 q 6 94 6 51 q 36 166 6 136 q 110 196 67 196 q 183 166 153 196 q 213 94 213 136 z "},"ऽ":{"ha":794,"x_min":10,"x_max":958,"o":"m 317 0 q 150 58 250 0 q 10 165 50 117 q 28 232 13 211 q 86 254 44 253 q 322 122 192 154 q 442 201 393 147 q 493 306 492 254 q 296 426 496 349 q 160 497 221 456 q 100 577 99 538 q 143 687 101 617 q 250 797 185 757 q 567 854 360 833 q 919 868 775 875 q 957 815 956 850 q 921 739 958 781 q 638 737 799 746 q 386 711 476 728 q 328 625 346 679 q 472 551 363 599 q 650 452 582 503 q 717 340 718 401 q 572 113 713 225 q 317 0 432 0 z "},"ा":{"ha":450,"x_min":-31,"x_max":667,"o":"m 650 868 l 667 849 q 628 788 657 807 l 438 788 l 340 592 l 307 25 q 176 5 267 -8 q 18 72 86 18 l 176 788 l -6 788 l -31 811 q 17 868 -10 850 l 194 868 l 204 910 q 376 913 317 921 q 463 868 435 904 l 650 868 z "},"ि":{"ha":456,"x_min":-31,"x_max":932,"o":"m 211 1189 q 334 1315 247 1260 q 503 1372 421 1371 q 749 1233 629 1326 q 931 1044 869 1140 q 894 961 932 988 q 799 933 857 935 q 635 1113 713 1046 q 451 1221 557 1179 l 433 1206 l 386 868 l 649 868 l 665 849 q 628 788 656 807 l 376 788 q 310 25 319 351 q 178 5 269 -8 q 19 72 88 18 l 188 788 l -6 788 l -31 811 q 17 868 -10 850 l 197 868 l 211 1189 z "},"ी":{"ha":449,"x_min":-190,"x_max":665,"o":"m 271 1372 q 403 1324 335 1372 q 508 1200 471 1275 q 357 868 411 1013 l 649 868 l 665 849 q 626 788 656 807 l 339 788 l 346 699 l 307 25 q 176 5 267 -8 q 18 72 86 18 q 178 788 81 332 l -6 788 l -31 811 q 17 868 -10 850 l 194 868 q 265 1199 210 939 l 249 1208 q 113 1094 188 1171 q -17 938 38 1018 q -133 978 -87 943 q -190 1067 -179 1013 q 24 1273 -121 1174 q 271 1372 168 1372 z "},"ु":{"ha":0,"x_min":-836,"x_max":-74,"o":"m -303 -26 q -151 -74 -228 -26 q -74 -171 -74 -121 q -209 -336 -74 -253 q -467 -421 -344 -419 q -677 -348 -562 -419 q -836 -194 -792 -276 q -752 -94 -804 -125 q -637 -81 -700 -64 q -572 -227 -612 -167 q -458 -324 -532 -287 q -326 -256 -383 -304 q -260 -161 -269 -208 q -287 -147 -267 -149 q -397 -225 -340 -167 q -497 -170 -465 -210 q -514 -89 -528 -131 q -303 -26 -419 -26 z "},"ू":{"ha":0,"x_min":-557,"x_max":150,"o":"m -385 -415 q -504 -331 -451 -387 q -557 -211 -557 -274 q -479 -87 -557 -149 q -310 -26 -401 -26 q -80 -99 -219 -26 q 140 -258 60 -171 q 112 -352 150 -307 q -8 -421 74 -397 q -162 -242 -87 -306 q -340 -143 -237 -178 q -390 -192 -371 -149 q -275 -261 -347 -239 q -276 -355 -250 -314 q -385 -415 -303 -396 z "},"ृ":{"ha":0,"x_min":-637,"x_max":-79,"o":"m -444 -421 q -576 -375 -515 -421 q -637 -285 -637 -329 q -552 -131 -637 -217 q -357 -8 -467 -44 q -250 -122 -240 -33 q -389 -193 -328 -144 q -476 -297 -450 -242 l -462 -318 q -215 -181 -304 -308 q -113 -214 -147 -185 q -83 -285 -79 -243 q -244 -386 -146 -351 q -444 -421 -342 -421 z "},"ॄ":{"ha":0,"x_min":-564,"x_max":-140,"o":"m -542 -147 q -435 -62 -510 -100 q -285 -8 -360 -24 q -221 -107 -187 -24 q -403 -183 -331 -132 l -394 -200 q -296 -171 -343 -193 q -250 -205 -264 -178 q -251 -269 -236 -232 q -417 -362 -349 -306 l -404 -379 q -212 -283 -286 -353 q -149 -383 -140 -287 q -426 -469 -260 -469 q -519 -428 -482 -458 q -564 -351 -556 -397 q -401 -250 -514 -275 l -406 -239 q -506 -217 -468 -244 q -542 -147 -543 -190 z "},"ॅ":{"ha":0,"x_min":-390,"x_max":256,"o":"m -93 946 q -269 1029 -175 946 q -390 1225 -364 1113 q -295 1313 -350 1290 q -181 1308 -240 1335 q -79 1044 -178 1125 q 92 1210 43 1068 q 185 1209 138 1232 q 256 1132 232 1186 q 108 999 204 1053 q -93 946 13 946 z "},"े":{"ha":0,"x_min":-618,"x_max":-71,"o":"m -383 1372 q -269 1306 -333 1372 q -153 1151 -204 1240 q -71 978 -101 1063 q -147 946 -94 946 q -319 1160 -218 1079 l -437 1079 q -575 1169 -532 1118 q -603 1276 -618 1221 q -383 1372 -487 1372 z "},"ै":{"ha":0,"x_min":-625,"x_max":-74,"o":"m -428 1372 q -243 1263 -350 1372 q -74 1000 -136 1153 q -103 964 -79 981 q -165 946 -128 947 q -294 1006 -235 992 l -337 956 q -437 980 -392 957 q -492 1042 -482 1003 q -353 1139 -443 1119 q -168 1029 -274 1118 l -161 1038 q -353 1221 -225 1146 l -457 1125 q -603 1292 -625 1183 q -527 1348 -578 1324 q -428 1372 -476 1372 z "},"ॉ":{"ha":450,"x_min":-31,"x_max":694,"o":"m 463 868 l 650 868 l 667 849 q 628 788 657 807 l 438 788 l 340 592 l 307 25 q 176 5 267 -8 q 18 72 86 18 l 176 788 l -6 788 l -31 811 q 17 868 -10 850 l 194 868 l 204 910 q 376 913 317 921 q 463 868 435 904 m 346 946 q 169 1029 264 946 q 49 1225 75 1113 q 144 1313 89 1290 q 258 1308 199 1335 q 360 1044 261 1125 q 531 1210 482 1068 q 624 1209 576 1232 q 694 1132 671 1186 q 547 999 643 1053 q 346 946 451 946 z "},"ो":{"ha":450,"x_min":-174,"x_max":667,"o":"m 650 868 l 667 849 q 628 788 657 807 l 438 788 l 340 592 l 307 25 q 176 5 267 -8 q 18 72 86 18 l 176 788 l -6 788 l -31 811 q 17 868 -10 850 l 194 868 l 204 910 q 376 913 317 921 q 463 868 435 904 l 650 868 m 61 1372 q 176 1307 111 1372 q 292 1153 240 1242 q 374 979 343 1064 q 296 947 349 944 q 125 1160 229 1076 l 7 1081 q -131 1171 -87 1119 q -158 1278 -174 1222 q 61 1372 -44 1372 z "},"ौ":{"ha":450,"x_min":-162,"x_max":667,"o":"m 650 868 l 667 849 q 628 788 657 807 l 438 788 l 340 592 l 307 25 q 176 5 267 -8 q 18 72 86 18 l 176 788 l -6 788 l -31 811 q 17 868 -10 850 l 194 868 l 204 910 q 376 913 317 921 q 463 868 435 904 l 650 868 m 33 1372 q 219 1263 111 1372 q 389 1000 326 1153 q 359 964 383 981 q 297 946 335 947 q 168 1006 228 992 l 124 956 q 26 980 71 957 q -29 1042 -19 1003 q 110 1139 19 1119 q 293 1029 190 1118 l 301 1038 q 108 1221 236 1147 l 4 1125 q -140 1292 -162 1183 q -65 1347 -115 1322 q 33 1372 -14 1372 z "},"्":{"ha":0,"x_min":-471,"x_max":100,"o":"m 35 -418 q -458 -201 -189 -271 q -344 -25 -471 -43 q -110 -151 -236 -62 q 99 -328 17 -239 q 35 -418 100 -381 z "},"ॐ":{"ha":1563,"x_min":99,"x_max":1469,"o":"m 806 457 l 861 476 q 1078 658 933 518 q 1171 747 1142 722 q 1385 626 1311 719 q 1461 396 1458 533 q 1338 169 1431 269 q 1108 0 1246 68 q 995 63 1028 13 q 997 165 963 114 q 1304 406 1225 228 q 1201 575 1286 533 q 957 364 1051 425 l 907 363 q 926 300 926 332 q 788 96 924 190 q 486 0 651 1 q 99 332 204 94 q 172 438 119 406 q 288 447 225 469 q 508 133 360 226 q 728 299 678 182 q 656 418 717 361 q 542 382 592 393 q 488 440 501 401 q 500 506 474 478 q 677 585 622 533 q 746 713 732 638 q 704 758 733 744 q 496 656 606 746 q 390 729 421 675 q 392 831 358 783 q 768 918 569 928 q 965 738 907 882 q 765 478 943 593 q 806 457 793 464 m 1469 961 q 1317 855 1414 893 q 1130 817 1219 817 q 944 899 1040 817 q 821 1096 847 982 q 916 1183 861 1161 q 1031 1179 971 1206 q 1135 914 1031 999 q 1326 1049 1264 942 q 1410 1040 1371 1064 q 1469 961 1449 1017 m 1275 1081 q 1275 1063 1275 1081 q 1249 1020 1275 1046 q 1188 994 1224 994 q 1127 1020 1153 994 q 1101 1081 1101 1046 q 1127 1140 1101 1115 q 1189 1165 1153 1165 q 1250 1140 1225 1165 q 1275 1081 1275 1115 z "},"क़":{"ha":1222,"x_min":-50,"x_max":1439,"o":"m 408 721 q 556 588 450 721 l 563 593 l 594 788 l -25 788 l -50 811 q -3 868 -29 850 l 608 868 l 615 910 q 858 868 797 926 l 1422 868 l 1439 849 q 1400 788 1429 807 l 853 788 q 704 538 818 726 l 719 525 q 818 619 754 557 q 903 701 882 682 q 1124 674 1035 728 q 1214 515 1214 619 q 1117 300 1214 392 q 1015 216 1065 251 q 883 131 965 181 q 822 211 803 163 q 959 338 921 281 q 997 450 997 396 q 901 561 997 550 q 742 433 811 493 l 718 25 q 587 5 678 -8 q 428 72 496 18 l 463 213 l 519 306 l 506 322 q 318 128 389 206 q 105 186 189 129 q 21 347 21 243 q 143 601 21 481 q 408 721 265 721 m 426 589 q 315 496 364 567 q 265 354 265 425 q 314 258 265 283 q 524 443 415 342 l 532 479 q 426 589 468 567 m 38 -8 q 38 14 38 -8 q 68 65 38 35 q 142 94 99 94 q 215 65 185 94 q 244 -8 244 35 q 215 -81 244 -50 q 142 -111 185 -111 q 68 -81 99 -111 q 38 -8 38 -50 z "},"ख़":{"ha":1351,"x_min":-29,"x_max":1567,"o":"m 447 704 q 294 633 368 704 q 191 699 225 656 q 178 782 157 742 l 183 788 l -6 788 l -29 811 q 17 868 -7 851 l 1093 868 l 1100 910 q 1343 868 1285 926 l 1550 868 l 1567 849 q 1528 788 1557 807 l 1339 788 l 1238 592 l 1203 25 q 1072 5 1163 -8 q 914 72 982 18 l 949 219 l 986 267 l 972 283 q 724 134 883 210 q 442 43 564 58 q 201 148 319 65 q 17 333 82 231 q 71 453 24 404 q 182 503 118 501 l 224 453 q 416 536 342 476 q 493 671 490 596 q 447 704 478 704 m 946 594 q 855 519 893 578 q 817 418 817 460 q 875 339 817 339 q 950 376 911 339 q 1010 463 989 414 l 1015 490 q 946 594 996 571 m 679 694 q 554 488 679 579 q 269 375 429 396 l 265 364 q 493 199 379 233 q 760 271 575 204 l 754 278 q 654 317 688 283 q 621 400 621 350 q 717 610 621 500 q 924 719 813 719 q 1042 594 1001 719 l 1050 599 l 1081 788 l 619 788 q 679 694 679 738 m -4 -10 q -4 11 -4 -10 q 26 62 -4 32 q 100 92 57 92 q 174 62 143 92 q 204 -10 204 32 q 174 -83 204 -53 q 100 -112 143 -112 q 26 -83 57 -112 q -4 -10 -4 -53 z "},"ग़":{"ha":1040,"x_min":-29,"x_max":1253,"o":"m 1236 868 l 1253 849 q 1214 788 1243 807 l 1031 788 l 928 592 l 894 25 q 764 5 854 -8 q 604 72 674 18 l 764 788 l 571 788 q 533 482 565 644 q 456 218 500 319 q 219 128 386 136 q -8 304 57 167 q 54 433 1 394 q 349 539 211 482 q 356 669 357 608 l 317 788 l -6 788 l -29 811 q 17 868 -12 849 l 782 868 l 792 910 q 1035 868 974 926 l 1236 868 m 264 272 l 276 279 q 328 428 310 351 q 161 358 256 397 q 264 272 196 306 m 74 -56 q 74 -35 74 -56 q 104 16 74 -14 q 178 46 135 46 q 252 16 222 46 q 282 -56 282 -14 q 252 -129 282 -99 q 179 -160 222 -160 q 105 -129 136 -160 q 74 -56 74 -99 z "},"ज़":{"ha":1125,"x_min":-31,"x_max":1338,"o":"m 1321 868 l 1338 849 q 1300 788 1328 807 l 1115 788 l 1013 592 l 979 25 q 849 5 939 -8 q 690 72 758 18 l 760 376 l 815 464 l 807 474 q 649 413 732 419 l 610 415 l 603 407 l 617 363 q 496 194 611 268 q 278 126 381 119 q 113 238 183 151 q 40 431 42 324 q 103 581 53 501 q 228 708 154 660 q 349 676 304 710 q 390 586 393 642 q 260 402 269 496 q 303 260 251 308 q 406 314 357 269 q 458 399 454 358 q 408 438 447 418 q 472 559 428 517 q 575 596 515 601 q 650 528 619 533 q 735 554 690 529 q 811 614 781 579 l 850 788 l -7 788 l -31 811 q 15 868 -14 849 l 867 868 l 876 910 q 1119 868 1058 926 l 1321 868 m 128 -56 q 128 -35 128 -56 q 158 17 128 -14 q 232 47 189 47 q 306 17 275 47 q 336 -56 336 -14 q 306 -128 336 -99 q 232 -158 275 -158 q 158 -128 189 -158 q 128 -56 128 -99 z "},"ड़":{"ha":751,"x_min":-29,"x_max":965,"o":"m 949 868 l 965 849 q 926 788 956 807 l 603 788 q 661 744 636 768 q 656 647 676 704 q 593 551 636 589 q 289 475 497 511 l 283 454 q 460 410 335 436 q 633 369 585 383 q 674 277 675 338 q 625 138 672 217 q 390 50 550 89 q 82 7 229 11 q 11 116 22 57 q 39 207 0 175 q 286 221 160 201 q 483 281 413 240 l 481 293 q 297 341 426 311 q 103 396 168 371 q 99 520 71 449 q 203 636 126 592 q 515 704 417 665 l 521 717 q 396 788 493 746 l -6 788 l -29 811 q 17 868 -7 851 l 949 868 m 172 -133 q 172 -111 172 -133 q 203 -60 172 -90 q 276 -31 233 -31 q 349 -60 319 -31 q 379 -133 379 -90 q 349 -205 379 -175 q 276 -235 319 -235 q 203 -205 233 -235 q 172 -133 172 -175 z "},"ढ़":{"ha":911,"x_min":-22,"x_max":1119,"o":"m 509 470 q 456 445 509 470 q 334 379 403 419 q 265 305 265 339 q 299 226 265 271 q 581 425 514 375 q 774 375 694 428 q 854 266 854 322 q 778 150 854 210 q 606 54 703 90 q 439 18 508 18 q 190 103 306 25 q 28 296 74 181 q 100 467 28 410 q 294 552 121 476 q 533 668 467 628 l 538 681 q 397 788 500 731 l 3 788 l -22 811 q 24 868 -1 850 l 1103 868 l 1119 849 q 1082 788 1110 807 l 601 788 q 714 718 668 753 q 663 554 744 643 q 509 470 615 521 m 642 250 q 567 290 614 278 q 365 165 538 274 q 440 124 399 140 q 569 170 514 135 q 642 250 625 206 m 232 -134 q 232 -113 232 -134 q 263 -62 232 -92 q 336 -32 293 -32 q 409 -62 379 -32 q 439 -134 439 -92 q 409 -207 439 -176 q 336 -237 379 -237 q 263 -207 293 -237 q 232 -134 232 -176 z "},"फ़":{"ha":1332,"x_min":-29,"x_max":1539,"o":"m 1325 535 q 1293 404 1325 476 q 1251 348 1282 379 q 1204 300 1221 317 q 1142 253 1188 283 q 1037 186 1088 217 q 978 150 986 156 l 914 228 q 1065 356 1021 300 q 1108 479 1108 413 q 1013 585 1108 565 q 797 419 922 519 l 775 25 q 644 5 735 -8 q 485 72 553 18 l 550 363 l 594 436 l 583 447 q 297 192 399 278 q 127 233 200 196 q 46 332 54 271 q 175 788 92 568 l -6 788 l -29 811 q 17 868 -7 851 l 663 868 l 672 910 q 915 868 854 926 l 1522 868 l 1539 849 q 1500 788 1529 807 l 911 788 l 808 592 l 761 521 l 776 506 q 1015 726 879 597 q 1238 694 1150 750 q 1325 535 1325 638 m 597 569 l 646 788 l 444 788 l 353 646 q 269 344 294 479 l 283 338 q 597 569 489 471 m 58 27 q 58 48 58 27 q 89 99 58 69 q 163 129 119 129 q 235 99 206 129 q 265 27 265 69 q 235 -45 265 -15 q 163 -75 206 -75 q 89 -45 119 -75 q 58 27 58 -15 z "},"ॠ":{"ha":1381,"x_min":-29,"x_max":1597,"o":"m 276 721 q 585 481 394 721 l 599 494 l 574 535 l 631 788 l -6 788 l -29 811 q 17 868 -7 851 l 649 868 l 658 910 q 901 868 840 926 l 1581 868 l 1597 849 q 1558 788 1588 807 l 897 788 l 794 592 l 788 476 q 908 561 851 515 q 872 621 876 596 q 978 702 917 669 q 1081 725 1040 735 q 1113 668 1108 697 q 1101 594 1117 639 q 1225 586 1156 579 q 1290 525 1274 567 q 1288 431 1306 483 q 1064 331 1154 404 q 1075 315 1067 324 q 1175 344 1135 322 q 1217 222 1250 310 q 1044 124 1121 190 q 1067 97 1053 107 q 1260 199 1181 114 q 1324 92 1338 193 q 1065 0 1225 4 q 953 47 997 10 q 899 140 910 83 q 968 215 919 185 q 1067 251 1017 244 l 1060 263 q 963 283 999 257 q 922 360 926 308 q 1144 481 1006 451 l 1144 492 l 1008 515 q 782 381 793 386 l 761 25 q 631 5 721 -8 q 472 72 540 18 l 503 208 l 563 290 l 546 306 q 369 152 485 240 q 147 0 254 64 q 40 76 74 24 q 38 175 7 129 q 515 418 314 251 q 332 551 436 493 l 244 444 q 68 603 54 489 q 168 687 110 653 q 276 721 226 721 z "},"ॡ":{"ha":1151,"x_min":-28,"x_max":1339,"o":"m 1322 868 l 1339 849 q 1300 788 1329 807 l 1072 788 q 1001 599 1078 707 q 1071 499 1054 554 q 986 351 1042 410 q 822 215 931 292 l 828 204 q 911 238 883 222 q 965 204 947 233 q 968 136 983 175 q 866 85 925 119 q 774 19 807 51 l 782 8 q 1014 122 904 40 q 1085 19 1090 119 q 950 -63 1047 -22 q 776 -110 853 -104 q 604 1 621 -96 q 757 114 643 82 l 754 122 q 649 135 688 110 q 613 208 611 161 q 878 460 835 340 q 847 485 861 479 q 728 367 807 435 q 572 249 650 300 q 404 301 472 247 q 350 408 336 356 q 422 467 365 421 q 393 521 415 497 q 342 546 371 544 q 262 481 304 538 q 214 375 219 425 q 281 262 238 308 q 411 176 324 215 q 401 74 440 131 q 263 0 361 18 q 75 163 158 56 q -8 354 -8 271 q 83 531 -7 438 q 293 678 174 624 q 456 671 388 686 q 542 615 514 649 q 589 517 569 581 q 513 414 529 444 l 536 393 q 806 658 685 507 q 901 650 856 663 q 944 788 953 721 l -3 788 l -28 811 q 19 868 -7 850 l 1322 868 z "},"ॢ":{"ha":0,"x_min":-610,"x_max":-3,"o":"m -6 -354 q -81 -406 -35 -383 q -172 -429 -126 -429 q -266 -395 -218 -429 q -314 -326 -314 -361 q -286 -280 -314 -306 q -224 -234 -258 -254 q -160 -187 -190 -214 q -126 -144 -129 -160 q -128 -124 -122 -129 q -142 -118 -135 -118 q -276 -228 -193 -179 q -372 -200 -332 -232 q -406 -137 -411 -168 q -374 -114 -385 -125 q -410 -87 -385 -89 q -448 -125 -426 -97 q -472 -175 -469 -153 q -431 -236 -453 -214 q -365 -281 -410 -258 q -372 -338 -347 -307 q -456 -378 -396 -369 q -562 -289 -515 -347 q -608 -186 -610 -231 q -557 -91 -607 -142 q -439 -10 -507 -40 q -324 -22 -364 -6 q -265 -85 -283 -37 q -296 -132 -275 -103 l -285 -140 q -172 -19 -224 -94 q -59 -49 -106 -17 q -3 -140 -12 -82 q -35 -191 -24 -178 q -53 -213 -46 -204 q -75 -235 -60 -222 q -97 -255 -90 -249 q -122 -276 -103 -261 q -146 -294 -142 -290 q -197 -332 -183 -325 q -179 -353 -193 -346 q -96 -286 -139 -337 q -6 -354 -11 -278 z "},"ॣ":{"ha":0,"x_min":-608,"x_max":1,"o":"m -456 -378 q -560 -292 -511 -351 q -608 -188 -608 -233 q -556 -91 -608 -143 q -439 -10 -504 -39 q -336 -15 -375 -4 q -265 -85 -285 -37 q -296 -132 -281 -112 l -287 -139 q -172 -19 -222 -83 q -73 -40 -118 -14 q -14 -107 -28 -67 q -161 -249 -49 -192 l -158 -257 q -93 -239 -128 -256 q -68 -303 -51 -256 q -181 -374 -97 -314 l -175 -382 q -43 -310 -96 -367 q -4 -367 1 -310 q -78 -412 -25 -390 q -175 -437 -131 -435 q -271 -376 -250 -424 q -164 -301 -244 -331 l -165 -297 q -235 -298 -206 -310 q -265 -257 -264 -286 q -125 -132 -144 -189 q -140 -118 -135 -119 q -272 -228 -193 -181 q -369 -201 -326 -233 q -406 -136 -411 -169 q -374 -112 -382 -126 q -410 -87 -385 -89 q -449 -126 -431 -101 q -472 -175 -467 -150 q -433 -234 -454 -211 q -365 -281 -411 -257 q -373 -340 -349 -308 q -456 -378 -397 -371 z "},"।":{"ha":625,"x_min":229,"x_max":615,"o":"m 369 672 l 381 993 q 615 1003 546 1074 l 517 603 q 465 26 481 272 q 338 3 407 -6 q 229 49 269 11 q 369 672 319 397 z "},"॥":{"ha":1006,"x_min":229,"x_max":996,"o":"m 369 672 l 381 993 q 615 1003 546 1074 l 517 603 q 465 26 481 272 q 338 3 407 -6 q 229 49 269 11 q 369 672 319 397 m 749 672 l 761 993 q 996 1003 925 1074 l 897 603 q 844 26 861 297 q 718 3 788 -6 q 608 49 649 11 q 749 672 704 421 z "},"०":{"ha":746,"x_min":49,"x_max":721,"o":"m 471 715 q 417 700 440 713 q 246 422 300 599 q 329 221 250 296 q 533 444 492 285 q 471 715 556 579 m 49 399 q 135 619 49 492 q 306 797 221 747 q 564 847 458 871 q 721 426 719 676 q 573 193 711 306 q 307 81 435 81 q 183 136 244 81 q 85 265 121 192 q 49 399 49 339 z "},"१":{"ha":733,"x_min":89,"x_max":681,"o":"m 681 703 q 614 538 681 658 q 481 306 547 418 q 415 169 415 194 q 435 144 415 144 q 517 174 461 144 q 613 236 574 204 q 669 179 664 236 q 401 0 585 79 q 176 154 176 24 q 205 228 176 181 q 283 347 233 276 q 356 458 332 418 l 431 513 l 417 532 q 286 476 356 503 q 89 668 92 551 q 228 840 121 757 q 436 922 336 922 q 608 853 536 921 q 681 703 681 785 m 443 625 q 468 706 468 675 q 460 760 468 738 q 431 782 451 782 q 365 743 410 782 q 299 663 319 704 q 344 592 306 611 q 443 625 394 604 z "},"२":{"ha":771,"x_min":26,"x_max":788,"o":"m 479 921 q 690 823 592 921 q 786 636 788 725 q 659 447 785 547 q 364 286 533 346 q 574 31 446 121 q 526 -69 578 -31 q 393 -101 474 -107 q 222 247 274 54 q 140 238 167 239 q 49 424 26 329 q 155 485 92 468 q 292 475 218 503 q 313 407 300 442 q 484 501 410 444 q 583 621 558 557 q 467 757 569 713 q 307 654 383 735 q 181 713 214 671 q 167 808 147 756 q 479 921 308 921 z "},"३":{"ha":769,"x_min":17,"x_max":768,"o":"m 444 404 l 338 351 q 255 465 272 394 q 276 564 238 535 q 406 550 336 556 q 515 635 481 593 q 561 739 550 678 q 528 769 546 760 q 315 678 413 753 q 213 751 243 704 q 208 847 182 797 q 560 921 374 931 q 768 747 715 872 q 686 600 751 658 q 518 499 621 542 l 524 486 q 669 427 621 471 q 719 326 718 383 q 591 128 721 218 q 331 31 461 38 l 232 140 l 219 126 q 295 -23 240 79 q 374 -186 350 -125 q 313 -253 365 -232 q 174 -264 261 -274 q 17 232 106 18 q 218 322 114 357 q 332 164 285 221 q 459 229 407 186 q 521 313 511 272 q 444 404 519 374 z "},"४":{"ha":772,"x_min":100,"x_max":799,"o":"m 313 207 q 418 164 368 161 q 429 286 438 232 q 342 382 394 347 q 313 207 303 286 m 572 772 q 799 904 693 863 q 789 874 796 897 q 742 765 769 815 q 546 478 651 638 q 553 154 603 308 q 275 67 464 47 q 161 190 199 108 q 146 358 124 272 q 258 653 179 503 q 100 782 194 739 q 314 836 154 889 q 572 772 451 843 z "},"५":{"ha":731,"x_min":22,"x_max":743,"o":"m 543 404 q 333 101 543 404 q 22 383 22 153 q 189 684 22 529 q 572 914 356 839 q 639 831 656 903 q 366 622 492 749 q 240 397 240 494 q 306 275 240 319 q 506 568 401 386 q 673 549 610 576 q 743 458 736 522 q 620 124 704 326 q 465 -219 536 -78 q 372 -201 406 -222 q 336 -137 338 -179 q 558 399 503 190 l 543 404 z "},"६":{"ha":769,"x_min":53,"x_max":719,"o":"m 379 29 q 140 117 226 43 q 53 276 53 192 q 114 418 53 360 q 293 496 175 476 l 303 508 q 121 738 115 593 q 371 921 194 868 q 704 847 561 931 q 678 751 719 799 q 557 678 636 704 q 367 779 469 761 q 326 747 347 768 q 342 640 325 678 q 417 556 358 603 q 483 569 444 558 q 525 579 522 579 q 548 482 567 547 q 463 376 529 417 q 354 419 401 399 q 260 308 279 386 q 292 224 260 267 q 375 161 324 181 q 518 333 454 228 q 711 264 625 382 q 521 -265 601 22 q 392 -264 443 -281 q 331 -201 340 -247 q 392 -89 351 -161 q 504 133 471 53 l 490 144 l 379 29 z "},"७":{"ha":988,"x_min":60,"x_max":982,"o":"m 771 369 l 758 396 q 604 325 686 358 q 488 390 533 351 q 428 472 443 428 q 438 642 400 556 q 739 776 557 772 q 911 673 844 747 q 982 496 978 599 q 744 134 935 294 q 340 -17 553 -26 q 129 208 199 50 q 72 541 60 367 q 161 849 83 715 q 297 869 222 885 q 383 786 371 854 q 283 461 307 663 q 295 263 271 363 q 383 94 319 164 q 693 324 569 153 l 771 369 m 663 644 l 639 638 q 604 543 603 607 q 657 443 606 479 q 779 479 736 465 q 742 583 769 544 q 663 644 714 621 z "},"८":{"ha":825,"x_min":32,"x_max":788,"o":"m 786 321 q 594 109 717 213 q 367 6 471 6 q 151 115 264 6 q 32 333 39 224 q 281 645 106 482 q 617 900 457 808 q 678 889 660 906 q 703 832 696 872 q 263 329 417 585 q 407 146 278 204 q 710 388 564 204 q 772 372 756 386 q 786 321 788 357 z "},"९":{"ha":611,"x_min":11,"x_max":667,"o":"m 85 632 q 207 815 85 722 q 453 908 329 908 q 622 796 576 908 q 593 539 667 683 l 390 442 q 499 274 483 308 q 460 103 532 199 q 279 -19 386 43 q 85 -115 172 -82 q 27 -76 43 -108 q 28 -18 11 -43 q 328 189 247 82 l 333 214 q 244 369 308 279 l 133 529 q 85 632 85 599 m 342 515 l 453 588 q 467 684 472 632 q 433 753 463 736 q 345 712 386 747 q 288 621 304 676 q 342 515 303 575 z "},"॰":{"ha":568,"x_min":68,"x_max":589,"o":"m 313 517 q 231 374 233 454 q 265 288 231 333 q 360 400 342 331 q 313 517 353 457 m 331 574 q 453 519 392 574 q 432 289 589 400 q 249 228 346 228 q 128 272 186 228 q 68 365 71 317 q 145 508 68 442 q 331 574 222 574 z "},"ॲ":{"ha":1250,"x_min":-18,"x_max":1504,"o":"m 247 594 l 360 597 q 557 765 510 654 l 549 776 q 322 693 432 776 q 215 766 247 717 q 215 858 183 815 q 582 938 385 953 q 758 769 707 903 q 421 525 700 582 l 424 514 q 629 475 544 511 q 944 635 828 572 l 978 788 l 842 788 l 817 811 q 864 868 838 850 l 996 868 l 1006 910 q 1249 868 1188 926 l 1450 868 l 1467 849 q 1428 788 1457 807 l 1244 788 l 1142 592 l 1108 25 q 978 5 1068 -8 q 818 72 888 18 l 904 458 l 954 517 l 950 528 q 715 419 794 456 q 758 325 758 376 q 669 172 758 246 q 461 58 579 99 q 246 18 343 17 q 64 80 146 28 q -18 181 -18 132 q 75 269 -18 233 q 272 338 143 297 q 467 404 400 379 q 392 422 417 415 l 292 399 q 235 465 253 425 q 221 539 217 504 q 247 594 225 574 m 297 139 q 448 200 368 153 q 554 306 528 247 q 538 339 547 322 q 228 192 314 235 q 254 160 232 176 q 297 139 276 143 m 1156 946 q 979 1029 1074 946 q 858 1225 885 1113 q 953 1313 899 1290 q 1068 1308 1008 1335 q 1169 1044 1071 1125 q 1340 1210 1292 1068 q 1433 1209 1386 1232 q 1504 1132 1481 1186 q 1357 999 1453 1053 q 1156 946 1261 946 z "},"​":{"ha":0,"x_min":0,"x_max":0,"o":""},"‌":{"ha":0,"x_min":-32,"x_max":33,"o":"m 33 -319 l -32 -319 l -32 1126 l 33 1126 l 33 -319 z "},"‍":{"ha":0,"x_min":-176,"x_max":179,"o":"m 33 -319 l -32 -319 l -32 882 l -128 781 l -174 826 l -44 956 l -176 1088 l -131 1133 l 1 1001 l 135 1133 l 179 1089 l 46 956 l 179 824 l 133 778 l 33 882 l 33 -319 z "},"–":{"ha":935,"x_min":83,"x_max":885,"o":"m 865 542 q 879 492 885 532 q 843 414 874 451 l 100 400 q 88 453 83 418 q 118 522 93 489 l 490 517 l 865 542 z "},"—":{"ha":1403,"x_min":83,"x_max":1353,"o":"m 1333 542 q 1347 492 1353 532 q 1310 414 1340 451 l 100 400 q 88 453 83 418 q 118 522 93 489 l 779 517 l 1333 542 z "},"‘":{"ha":522,"x_min":206,"x_max":499,"o":"m 375 1331 q 475 1303 444 1347 l 419 1150 l 499 938 q 402 867 457 882 q 306 869 347 853 q 240 917 264 885 q 375 1331 206 1121 z "},"’":{"ha":510,"x_min":219,"x_max":539,"o":"m 310 868 q 219 919 238 869 l 311 1057 l 283 1289 q 369 1329 325 1321 q 446 1324 413 1338 q 539 1236 519 1293 q 310 868 524 1032 z "},"‚":{"ha":750,"x_min":-75,"x_max":285,"o":"m 285 79 q 7 -253 242 -122 q -75 -189 -65 -240 l 35 -67 l 39 169 q 157 195 104 206 q 243 152 210 185 q 285 79 276 119 z "},"“":{"ha":890,"x_min":206,"x_max":868,"o":"m 375 1331 q 475 1303 444 1347 l 419 1150 l 499 938 q 402 867 457 882 q 306 869 347 853 q 240 917 264 885 q 375 1331 206 1121 m 744 1331 q 844 1303 814 1347 l 789 1150 l 868 938 q 772 867 826 882 q 675 869 717 853 q 610 917 633 885 q 744 1331 575 1121 z "},"”":{"ha":875,"x_min":219,"x_max":904,"o":"m 675 868 q 585 919 603 869 l 676 1057 l 649 1289 q 734 1329 690 1321 q 811 1324 778 1338 q 904 1236 885 1293 q 675 868 889 1032 m 310 868 q 219 919 238 869 l 311 1057 l 283 1289 q 369 1329 325 1321 q 446 1324 413 1338 q 539 1236 519 1293 q 310 868 524 1032 z "},"„":{"ha":806,"x_min":-78,"x_max":689,"o":"m 439 -67 l 443 169 q 561 195 508 206 q 647 152 614 185 q 689 79 681 119 q 411 -253 646 -122 q 329 -189 339 -240 l 439 -67 m 32 -67 l 36 169 q 154 195 101 206 q 240 152 207 185 q 282 79 274 119 q 4 -253 239 -122 q -78 -189 -68 -240 l 32 -67 z "},"†":{"ha":711,"x_min":107,"x_max":771,"o":"m 517 838 l 722 860 q 706 718 771 808 l 492 733 l 226 -483 q 132 -474 185 -506 l 317 721 l 133 706 q 110 774 107 742 q 147 850 113 807 l 326 826 l 336 1111 q 631 1139 511 1193 l 517 838 z "},"‡":{"ha":735,"x_min":-74,"x_max":796,"o":"m 515 760 l 421 360 l 376 -50 l 564 -35 q 550 -179 613 -101 l 368 -156 l 360 -449 q 81 -476 194 -528 l 183 -167 l -26 -189 q -10 -49 -74 -140 l 207 -64 l 301 360 l 344 747 l 158 731 q 172 875 110 797 l 353 851 l 361 1144 q 640 1172 531 1225 l 540 863 l 749 886 q 732 744 796 833 l 515 760 z "},"•":{"ha":696,"x_min":114,"x_max":617,"o":"m 617 490 q 460 344 549 397 q 294 290 372 290 q 169 338 217 290 q 114 460 121 385 q 217 660 136 571 q 397 761 297 749 q 536 674 467 761 q 617 490 606 588 z "},"…":{"ha":1124,"x_min":17,"x_max":1011,"o":"m 1011 114 q 923 31 974 61 q 828 0 872 0 q 758 26 785 0 q 728 96 731 53 q 785 209 739 158 q 888 267 832 260 q 965 217 926 267 q 1011 114 1004 168 m 656 114 q 567 31 618 61 q 473 0 517 0 q 402 26 429 0 q 372 96 375 53 q 430 209 383 158 q 532 267 476 260 q 610 217 571 267 q 656 114 649 168 m 300 114 q 212 31 263 61 q 117 0 161 0 q 47 26 74 0 q 17 96 19 53 q 74 209 28 158 q 176 267 121 260 q 254 217 215 267 q 300 114 293 168 z "},"‰":{"ha":1753,"x_min":90,"x_max":1708,"o":"m 617 550 l 885 1193 q 990 1193 957 1204 q 1044 1143 1024 1182 l 340 -122 q 240 -111 272 -128 q 200 -53 208 -94 l 617 550 m 1468 485 q 1406 306 1429 419 q 1383 126 1383 192 q 1447 75 1404 92 q 1510 266 1486 146 q 1525 454 1533 386 q 1468 485 1503 481 m 1413 -15 q 1264 69 1322 -15 q 1227 290 1206 154 q 1311 506 1249 425 q 1467 588 1374 586 q 1644 496 1579 586 q 1692 290 1708 406 q 1597 66 1669 147 q 1413 -15 1525 -15 m 956 485 q 893 308 915 417 q 871 126 871 199 q 933 75 892 92 q 1001 285 974 143 q 1011 454 1018 389 q 956 485 992 481 m 899 -15 q 751 69 810 -15 q 715 289 693 154 q 799 505 736 424 q 953 588 861 586 q 1130 496 1065 586 q 1176 276 1194 406 q 1085 66 1158 147 q 899 -15 1013 -15 m 408 918 q 351 949 386 944 q 289 767 311 878 q 267 592 267 657 q 329 538 285 557 q 393 726 369 603 q 408 918 417 850 m 112 752 q 123 820 112 752 q 195 969 133 888 q 359 1050 257 1050 q 526 959 461 1050 q 574 754 590 868 q 481 529 554 611 q 296 447 408 447 q 149 532 207 447 q 112 752 90 617 z "},"‹":{"ha":524,"x_min":81,"x_max":510,"o":"m 422 356 q 413 230 440 289 q 333 172 385 171 l 82 478 q 101 568 81 518 l 447 829 q 503 759 497 810 q 467 640 510 708 l 222 488 l 308 425 l 422 356 z "},"›":{"ha":525,"x_min":58,"x_max":486,"o":"m 146 646 q 156 772 128 713 q 235 829 185 831 l 485 524 q 467 433 486 481 l 279 294 l 121 172 q 65 242 71 192 q 101 361 58 292 l 344 514 l 258 575 l 146 646 z "},"⁄":{"ha":776,"x_min":-3,"x_max":842,"o":"m 414 550 l 682 1193 q 788 1193 754 1204 q 842 1143 821 1182 l 138 -122 q 38 -111 69 -128 q -3 -53 6 -94 l 414 550 z "},"₨":{"ha":1688,"x_min":85,"x_max":1629,"o":"m 1356 697 q 1260 647 1303 681 q 1217 588 1217 613 q 1274 529 1217 564 q 1401 462 1331 494 q 1540 375 1472 429 q 1622 264 1607 321 q 1484 75 1592 144 q 1225 0 1376 6 q 1050 58 1125 14 q 942 168 975 103 q 1147 283 1010 331 q 1176 180 1158 218 q 1235 96 1194 142 q 1344 148 1299 111 q 1389 221 1389 185 q 1215 339 1389 254 q 1083 426 1149 372 q 1000 539 1018 481 q 1151 724 1047 654 q 1389 801 1256 794 q 1538 744 1482 785 q 1629 635 1594 704 q 1574 554 1625 579 q 1428 543 1522 529 q 1356 697 1408 644 m 154 1003 q 498 1051 300 1051 q 824 963 696 1051 q 949 760 951 875 q 886 574 947 644 q 681 431 825 504 q 544 417 619 421 q 667 288 593 331 q 882 224 742 246 q 875 94 918 158 q 739 0 832 31 q 531 167 608 60 q 435 413 454 274 l 410 411 q 378 32 396 222 q 222 3 328 -7 q 85 64 117 14 q 242 721 182 372 l 239 892 l 172 899 q 141 952 146 921 q 154 1003 136 983 m 704 740 q 651 859 704 811 q 494 913 597 907 l 425 619 q 420 551 422 579 q 417 511 418 524 q 615 554 519 521 q 704 740 704 639 z "},"€":{"ha":1054,"x_min":32,"x_max":1029,"o":"m 196 453 q 201 526 196 479 l 79 521 q 62 573 58 540 q 92 632 65 606 l 224 619 q 313 814 249 700 q 767 1054 513 1006 q 932 980 878 1028 q 1029 835 986 932 q 937 749 1013 774 q 781 758 861 724 q 750 867 764 838 q 715 925 736 897 l 688 918 q 481 632 533 799 l 775 672 q 805 626 806 660 q 776 556 804 593 l 461 540 q 457 478 457 507 q 458 438 457 450 l 757 478 q 786 431 788 465 q 757 361 785 397 l 475 347 q 644 171 514 236 q 919 322 796 224 q 991 300 968 328 q 1011 224 1014 272 q 848 98 951 157 q 626 0 744 39 q 347 117 451 29 q 210 335 242 204 l 53 326 q 36 378 32 344 q 67 438 40 411 l 196 425 l 196 453 z "},"₹":{"ha":903,"x_min":88,"x_max":986,"o":"m 367 986 q 501 1040 424 1040 q 633 989 578 1040 l 951 1008 q 933 903 986 982 l 694 899 q 724 768 721 835 l 911 781 q 894 674 946 757 l 711 671 q 569 490 676 561 q 321 413 461 418 l 354 306 l 610 204 q 581 61 633 121 q 417 0 529 1 q 226 202 307 92 q 114 421 144 313 q 158 498 138 476 q 225 533 178 519 q 376 533 293 518 q 474 667 447 582 l 111 660 q 124 763 88 693 l 483 754 q 428 894 479 842 l 150 889 q 164 990 126 922 l 367 986 z "},"₺":{"ha":800,"x_min":15,"x_max":800,"o":"m 61 607 q 43 657 43 622 q 61 731 43 692 l 265 760 l 258 988 q 422 1038 342 1029 q 560 1017 503 1047 l 500 815 l 710 874 q 731 826 731 865 q 706 743 731 786 l 463 692 l 435 597 l 682 664 q 703 617 704 657 q 678 535 703 578 l 403 476 l 310 135 l 457 163 q 639 356 536 217 q 760 306 719 363 q 778 175 800 250 q 281 0 590 46 q 76 163 117 33 q 175 428 121 271 l 33 397 q 16 448 17 414 q 35 521 15 482 l 214 549 q 243 646 231 594 l 61 607 z "},"₽":{"ha":940,"x_min":-35,"x_max":951,"o":"m 154 1003 q 498 1051 300 1051 q 824 963 696 1051 q 949 756 951 875 q 879 563 947 636 q 661 431 811 490 q 408 401 583 414 l 401 299 l 635 329 q 653 281 656 319 q 622 206 651 243 l 392 193 q 378 32 381 64 q 222 3 328 -7 q 85 64 117 14 q 119 178 114 156 l -18 171 q -33 222 -35 188 q -10 290 -32 257 l 150 289 q 176 393 160 324 q 39 392 125 392 q 15 443 15 413 q 29 489 14 474 q 199 494 143 492 q 242 721 221 596 l 239 892 l 172 899 q 141 952 146 921 q 154 1003 136 983 m 704 740 q 651 859 704 811 q 494 913 597 907 l 425 619 q 417 513 419 547 q 615 554 519 525 q 704 740 704 639 z "},"ℓ":{"ha":707,"x_min":35,"x_max":765,"o":"m 411 193 l 428 179 q 590 272 481 200 q 638 211 640 271 q 368 1 550 118 q 217 56 258 21 q 160 149 176 90 q 244 454 210 315 q 92 417 172 432 q 75 514 35 464 l 265 538 q 365 981 325 779 q 615 1150 467 1122 q 725 1052 693 1115 q 765 872 757 989 q 465 550 676 672 q 411 193 438 390 m 633 856 q 565 994 619 938 q 485 660 526 872 q 633 856 588 747 z "}}}
